{
.appVersion = "1189";
DisplayStrings = (
"/commaaccent.case/Gcommaaccent",
"/commaaccent/kcommaaccent",
"/commaaccentcomb",
A
);
classes = (
{
automatic = 1;
code = "A B C D E F G H I J K L M N O P Q R S T U V W X Y Z Agrave Aacute Acircumflex Atilde Amacron Abreve Adieresis Aring Aogonek AE Cacute Ccircumflex Cdotaccent Ccaron Ccedilla Dcaron Dcroat Egrave Eacute Ecircumflex Emacron Ebreve Edotaccent Edieresis Ecaron Eogonek Gcircumflex Gbreve Gdotaccent Gcommaaccent Hcircumflex Hbar Igrave Iacute Icircumflex Itilde Imacron Ibreve Idotaccent Idieresis Iogonek IJ Jcircumflex Kcommaaccent Lacute Lcommaaccent Lcaron Ldot Lslash Nacute Ntilde Ncaron Eng Ncommaaccent Ograve Oacute Ocircumflex Otilde Omacron Obreve Odieresis Ohungarumlaut Oslash OE Racute Rcaron Rcommaaccent Sacute Scircumflex Scaron Scommaaccent Scedilla Germandbls Tcaron Tcommaaccent Tcedilla Tbar Ugrave Uacute Ucircumflex Utilde Umacron Ubreve Udieresis Uring Uhungarumlaut Uogonek Wgrave Wacute Wcircumflex Wdieresis Ygrave Yacute Ycircumflex Ydieresis Zacute Zdotaccent Zcaron Eth Thorn Germandbls.c2sc Q.ss02";
name = Uppercase;
}
);
copyright = "Copyright 2011 by Anna Giedrys. All rights reserved. Reserved Font Name: Signika.";
customParameters = (
{
name = trademark;
value = "Signika Light is a trademark of Anna Giedrys.";
},
{
name = openTypeOS2Type;
value = (
3
);
},
{
name = glyphOrder;
value = (
.notdef,
NULL,
CR,
space,
nbspace,
A,
B,
C,
D,
E,
F,
G,
H,
I,
J,
K,
L,
M,
N,
O,
P,
Q,
R,
S,
T,
U,
V,
W,
X,
Y,
Z,
a,
b,
c,
d,
e,
f,
g,
h,
i,
j,
k,
l,
m,
n,
o,
p,
q,
r,
s,
t,
u,
v,
w,
x,
y,
z,
a.smcp,
b.smcp,
c.smcp,
d.smcp,
e.smcp,
f.smcp,
g.smcp,
h.smcp,
i.smcp,
j.smcp,
k.smcp,
l.smcp,
m.smcp,
n.smcp,
o.smcp,
p.smcp,
q.smcp,
r.smcp,
s.smcp,
t.smcp,
u.smcp,
v.smcp,
w.smcp,
x.smcp,
y.smcp,
z.smcp,
quotesingle,
quotedbl,
numbersign,
ampersand,
asterisk,
comma,
hyphen,
hyphen.case,
softhyphen,
period,
colon,
semicolon,
question,
exclam,
questiondown,
exclamdown,
at,
parenleft,
parenright,
bracketleft,

glyphs = (
{
glyphname = A;
lastChange = "2018-11-27 14:54:32 +0000";
layers = (
{
anchors = (
{
name = bottom_U;
position = "{595, -40}";
},
{
name = top_U;
position = "{594, 1464}";
}
);
layerId = UUID0;
paths = (
{
closed = 1;
nodes = (
"54 8 LINE",
"58 2 LINE",
"80 -4 OFFCURVE",
"98 -8 OFFCURVE",
"128 -8 CURVE SMOOTH",
"150 -8 OFFCURVE",
"174 -6 OFFCURVE",
"192 -2 CURVE",
"514 978 LINE SMOOTH",
"530 1028 OFFCURVE",
"560 1132 OFFCURVE",
"580 1208 CURVE",
"590 1208 LINE",
"614 1120 OFFCURVE",
"652 996 OFFCURVE",
"692 878 CURVE SMOOTH",
"962 62 LINE SMOOTH",
"982 4 OFFCURVE",
"1002 -12 OFFCURVE",
"1048 -12 CURVE SMOOTH",
"1084 -12 OFFCURVE",
"1112 -6 OFFCURVE",
"1134 8 CURVE",
"674 1366 LINE",
"658 1370 OFFCURVE",
"618 1372 OFFCURVE",
"596 1372 CURVE SMOOTH",
"572 1372 OFFCURVE",
"534 1370 OFFCURVE",
"512 1366 CURVE"
);
},
{
closed = 1;
nodes = (
"720 358 LINE SMOOTH",
"732 358 OFFCURVE",
"862 360 OFFCURVE",
"876 360 CURVE",
"930 360 LINE",
"888 484 LINE",
"840 484 LINE",
"826 484 OFFCURVE",
"716 486 OFFCURVE",
"704 486 CURVE SMOOTH",
"470 486 LINE SMOOTH",
"458 486 OFFCURVE",
"352 484 OFFCURVE",
"338 484 CURVE",
"290 484 LINE",
"244 360 LINE",
"298 360 LINE",
"312 360 OFFCURVE",
"440 358 OFFCURVE",
"452 358 CURVE SMOOTH"
);
}
);
width = 1189;
},
{
anchors = (
{
name = bottom_U;
position = "{648, -40}";
},
{
name = top_U;
position = "{648, 1464}";
}
);
layerId = UUID1;
paths = (
{
closed = 1;
nodes = (
"14 26 LINE",
"26 8 LINE",
"64 -6 OFFCURVE",
"138 -14 OFFCURVE",
"188 -14 CURVE SMOOTH",
"240 -14 OFFCURVE",
"288 -12 OFFCURVE",
"330 -2 CURVE",
"524 668 LINE SMOOTH",
"556 782 OFFCURVE",
"604 948 OFFCURVE",
"624 1062 CURVE",
"636 1062 LINE",
"670 926 OFFCURVE",
"716 756 OFFCURVE",
"746 644 CURVE SMOOTH",
"878 164 LINE SMOOTH",
"918 20 OFFCURVE",
"972 -18 OFFCURVE",
"1078 -18 CURVE SMOOTH",
"1140 -18 OFFCURVE",
"1224 -4 OFFCURVE",
"1270 22 CURVE",
"842 1364 LINE",
"788 1374 OFFCURVE",
"702 1378 OFFCURVE",
"648 1378 CURVE SMOOTH",
"592 1378 OFFCURVE",
"508 1374 OFFCURVE",
"454 1366 CURVE"
);
},
{
closed = 1;
nodes = (
"772 280 LINE SMOOTH",
"802 280 OFFCURVE",
"840 282 OFFCURVE",
"870 282 CURVE",
"1048 282 LINE",
"964 542 LINE",
"802 542 LINE",
"772 542 OFFCURVE",
"734 544 OFFCURVE",
"704 544 CURVE SMOOTH",
"566 544 LINE SMOOTH",
"536 544 OFFCURVE",
"498 542 OFFCURVE",
"468 542 CURVE",
"312 542 LINE",
"210 282 LINE",
"388 282 LINE",
"418 282 OFFCURVE",
"456 280 OFFCURVE",
"486 280 CURVE SMOOTH"
);
}
);
width = 1284;
}
);
leftKerningGroup = A;
rightKerningGroup = A;
unicode = 0041;
},
{
glyphname = B;
lastChange = "2018-11-23 02:18:52 +0000";
layers = (
{
anchors = (
{
name = bottom_U;
position = "{590, -40}";
},
{
name = top_U;
position = "{556, 1464}";
}
);
layerId = UUID0;
paths = (
{
closed = 1;
nodes = (
"200 1354 LINE",
"200 12 LINE",
"212 0 LINE",
"350 -2 OFFCURVE",
"454 -6 OFFCURVE",
"620 -6 CURVE SMOOTH",
"970 -6 OFFCURVE",
"1082 190 OFFCURVE",
"1082 376 CURVE SMOOTH",
"1082 590 OFFCURVE",
"910 738 OFFCURVE",
"742 738 CURVE",
"742 710 LINE",
"910 728 OFFCURVE",
"1016 856 OFFCURVE",
"1016 1012 CURVE SMOOTH",
"1016 1220 OFFCURVE",
"904 1372 OFFCURVE",
"598 1372 CURVE SMOOTH",
"472 1372 OFFCURVE",
"350 1368 OFFCURVE",
"212 1366 CURVE"
);
},
{
closed = 1;
nodes = (
"344 1252 LINE",
"418 1250 OFFCURVE",
"534 1250 OFFCURVE",
"602 1250 CURVE SMOOTH",
"826 1250 OFFCURVE",
"864 1126 OFFCURVE",
"864 1016 CURVE SMOOTH",
"864 910 OFFCURVE",
"818 780 OFFCURVE",
"596 780 CURVE SMOOTH",
"284 780 LINE",
"284 656 LINE",
"614 656 LINE SMOOTH",
"864 656 OFFCURVE",
"930 494 OFFCURVE",
"930 386 CURVE SMOOTH",
"930 274 OFFCURVE",
"884 116 OFFCURVE",
"634 116 CURVE SMOOTH",
"538 116 OFFCURVE",
"440 114 OFFCURVE",
"344 114 CURVE"
);
}
);
width = 1198;
},
{
anchors = (
{
name = bottom_U;
position = "{598, -40}";
},
{
name = top_U;
position = "{582, 1464}";
}
);
layerId = UUID1;
paths = (
{
closed = 1;
nodes = (
"148 1356 LINE",
"148 10 LINE",
"162 -4 LINE",
"336 -8 OFFCURVE",
"508 -12 OFFCURVE",
"662 -12 CURVE SMOOTH",
"964 -12 OFFCURVE",
"1166 106 OFFCURVE",
"1166 394 CURVE SMOOTH",
"1166 578 OFFCURVE",
"1022 744 OFFCURVE",
"860 754 CURVE",
"860 722 LINE",
"990 738 OFFCURVE",
"1102 868 OFFCURVE",
"1102 1014 CURVE SMOOTH",
"1102 1270 OFFCURVE",
"906 1378 OFFCURVE",
"630 1378 CURVE SMOOTH",
"486 1378 OFFCURVE",
"324 1374 OFFCURVE",
"162 1370 CURVE"
);
},
{
closed = 1;
nodes = (
"478 1144 LINE",
"526 1142 OFFCURVE",
"580 1142 OFFCURVE",
"612 1142 CURVE SMOOTH",
"738 1142 OFFCURVE",
"776 1066 OFFCURVE",
"776 990 CURVE SMOOTH",
"776 914 OFFCURVE",
"740 834 OFFCURVE",
"612 834 CURVE SMOOTH",
"352 834 LINE",
"352 598 LINE",
"636 598 LINE SMOOTH",
"788 598 OFFCURVE",
"830 494 OFFCURVE",
"830 408 CURVE SMOOTH",
"830 326 OFFCURVE",
"792 222 OFFCURVE",
"636 222 CURVE SMOOTH",
"598 222 OFFCURVE",
"540 222 OFFCURVE",
"478 220 CURVE"
);
}
);
width = 1232;
}
);
unicode = 0042;
},
{
glyphname = C;
lastChange = "2018-11-23 02:18:52 +0000";
layers = (
{
anchors = (
{
name = bottom_U;
position = "{632, -40}";
},
{
name = top_U;
position = "{636, 1466}";
}
);
layerId = UUID0;
paths = (
{
closed = 1;
nodes = (
"984 932 OFFCURVE",
"998 930 OFFCURVE",
"1022 930 CURVE SMOOTH",
"1090 930 OFFCURVE",
"1102 976 OFFCURVE",
"1102 1016 CURVE SMOOTH",
"1102 1196 OFFCURVE",
"928 1390 OFFCURVE",
"640 1390 CURVE SMOOTH",
"360 1390 OFFCURVE",
"116 1170 OFFCURVE",
"116 676 CURVE SMOOTH",
"116 314 OFFCURVE",
"256 -24 OFFCURVE",
"616 -24 CURVE SMOOTH",
"810 -24 OFFCURVE",
"978 60 OFFCURVE",
"1084 168 CURVE",
"1072 202 OFFCURVE",
"1040 240 OFFCURVE",
"1004 262 CURVE",
"874 148 OFFCURVE",
"752 102 OFFCURVE",
"636 102 CURVE SMOOTH",
"408 102 OFFCURVE",
"268 316 OFFCURVE",
"268 676 CURVE SMOOTH",
"268 1064 OFFCURVE",
"404 1268 OFFCURVE",
"640 1268 CURVE SMOOTH",
"880 1268 OFFCURVE",
"960 1082 OFFCURVE",
"956 940 CURVE"
);
}
);
width = 1200;
},
{
anchors = (
{
name = bottom_U;
position = "{656, -40}";
},
{
name = top_U;
position = "{654, 1466}";
}
);
layerId = UUID1;
paths = (
{
closed = 1;
nodes = (
"898 802 OFFCURVE",
"936 794 OFFCURVE",
"984 794 CURVE SMOOTH",
"1102 794 OFFCURVE",
"1176 846 OFFCURVE",
"1176 978 CURVE SMOOTH",
"1176 1218 OFFCURVE",
"970 1398 OFFCURVE",
"658 1398 CURVE SMOOTH",
"336 1398 OFFCURVE",
"68 1182 OFFCURVE",
"68 678 CURVE SMOOTH",
"68 336 OFFCURVE",
"198 -30 OFFCURVE",
"624 -30 CURVE SMOOTH",
"848 -30 OFFCURVE",
"1060 70 OFFCURVE",
"1176 184 CURVE",
"1162 262 OFFCURVE",
"1088 356 OFFCURVE",
"1024 400 CURVE",
"934 338 OFFCURVE",
"826 262 OFFCURVE",
"686 262 CURVE SMOOTH",
"516 262 OFFCURVE",
"420 398 OFFCURVE",
"420 676 CURVE SMOOTH",
"420 972 OFFCURVE",
"480 1132 OFFCURVE",
"646 1132 CURVE SMOOTH",
"818 1132 OFFCURVE",
"862 980 OFFCURVE",
"858 812 CURVE"
);
}
);
width = 1220;
}
);
leftKerningGroup = C;
rightKerningGroup = C;
unicode = 0043;
},
{
glyphname = D;
lastChange = "2018-11-23 02:18:52 +0000";
layers = (
{
anchors = (
{
name = bottom_U;
position = "{622, -40}";
},
{
name = top_U;
position = "{602, 1464}";
}
);
layerId = UUID0;
paths = (
{
closed = 1;
nodes = (
"1152 914 OFFCURVE",
"1120 1122 OFFCURVE",
"948 1270 CURVE SMOOTH",
"864 1342 OFFCURVE",
"714 1372 OFFCURVE",
"612 1372 CURVE",
"456 1372 OFFCURVE",
"386 1372 OFFCURVE",
"212 1366 CURVE",
"200 1354 LINE",
"200 12 LINE",
"212 0 LINE",
"386 -4 OFFCURVE",
"456 -8 OFFCURVE",
"612 -8 CURVE",
"714 -8 OFFCURVE",
"864 22 OFFCURVE",
"948 94 CURVE SMOOTH",
"1122 242 OFFCURVE",
"1152 448 OFFCURVE",
"1152 682 CURVE SMOOTH"
);
},
{
closed = 1;
nodes = (
"1000 422 OFFCURVE",
"950 114 OFFCURVE",
"610 114 CURVE SMOOTH",
"516 114 OFFCURVE",
"448 116 OFFCURVE",
"344 116 CURVE",
"344 1252 LINE",
"448 1252 OFFCURVE",
"516 1250 OFFCURVE",
"610 1250 CURVE SMOOTH",
"950 1250 OFFCURVE",
"1000 944 OFFCURVE",
"1000 682 CURVE"
);
}
);
width = 1272;
},
{
anchors = (
{
name = bottom_U;
position = "{644, -40}";
},
{
name = top_U;
position = "{644, 1464}";
}
);
layerId = UUID1;
paths = (
{
closed = 1;
nodes = (
"1270 916 OFFCURVE",
"1234 1130 OFFCURVE",
"1044 1278 CURVE SMOOTH",
"952 1350 OFFCURVE",
"786 1378 OFFCURVE",
"674 1378 CURVE",
"500 1378 OFFCURVE",
"334 1376 OFFCURVE",
"162 1370 CURVE",
"148 1356 LINE",
"148 10 LINE",
"162 -4 LINE",
"336 -8 OFFCURVE",
"500 -12 OFFCURVE",
"674 -12 CURVE",
"786 -12 OFFCURVE",
"952 16 OFFCURVE",
"1044 88 CURVE SMOOTH",
"1236 236 OFFCURVE",
"1270 450 OFFCURVE",
"1270 684 CURVE SMOOTH"
);
},
{
closed = 1;
nodes = (
"926 486 OFFCURVE",
"894 248 OFFCURVE",
"674 248 CURVE SMOOTH",
"608 248 OFFCURVE",
"550 248 OFFCURVE",
"482 246 CURVE",
"482 1120 LINE",
"550 1118 OFFCURVE",
"608 1118 OFFCURVE",
"674 1118 CURVE SMOOTH",
"894 1118 OFFCURVE",
"926 882 OFFCURVE",
"926 684 CURVE"
);
}
);
width = 1340;
}
);
rightKerningGroup = D;
unicode = 0044;
},
{
glyphname = E;
lastChange = "2018-11-23 02:18:52 +0000";
layers = (
{
anchors = (
{
name = bottom_U;
position = "{604, -40}";
},
{
name = top_U;
position = "{598, 1464}";
}
);
layerId = UUID0;
paths = (
{
closed = 1;
nodes = (
"200 96 LINE",
"200 36 OFFCURVE",
"232 0 OFFCURVE",
"282 0 CURVE SMOOTH",
"338 0 LINE",
"338 120 LINE SMOOTH",
"338 148 OFFCURVE",
"340 168 OFFCURVE",
"340 194 CURVE SMOOTH",
"340 1120 LINE",
"340 1174 OFFCURVE",
"338 1192 OFFCURVE",
"338 1248 CURVE SMOOTH",
"338 1366 LINE",
"212 1366 LINE",
"200 1354 LINE"
);
},
{
closed = 1;
nodes = (
"458 754 LINE SMOOTH",
"414 754 OFFCURVE",
"348 752 OFFCURVE",
"290 752 CURVE",
"290 632 LINE",
"348 632 OFFCURVE",
"414 630 OFFCURVE",
"458 630 CURVE SMOOTH",
"878 630 LINE",
"882 652 OFFCURVE",
"884 676 OFFCURVE",
"884 692 CURVE SMOOTH",
"884 708 OFFCURVE",
"882 732 OFFCURVE",
"878 754 CURVE"
);
},
{
closed = 1;
nodes = (
"290 1366 LINE",
"290 1244 LINE",
"348 1242 OFFCURVE",
"414 1242 OFFCURVE",
"458 1242 CURVE SMOOTH",
"974 1242 LINE",
"982 1264 OFFCURVE",
"984 1292 OFFCURVE",
"984 1308 CURVE SMOOTH",
"984 1324 OFFCURVE",
"984 1344 OFFCURVE",
"980 1366 CURVE"
);
},
{
closed = 1;
nodes = (
"460 126 LINE",
"388 126 OFFCURVE",
"340 122 OFFCURVE",
"290 118 CURVE",
"290 0 LINE",
"916 0 LINE SMOOTH",
"966 0 OFFCURVE",
"1000 20 OFFCURVE",
"1008 66 CURVE SMOOTH",
"1012 86 OFFCURVE",
"1012 114 OFFCURVE",
"1012 126 CURVE"
);
}
);
width = 1124;
},
{
anchors = (
{
name = bottom_U;
position = "{604, -40}";
},
{
name = top_U;
position = "{598, 1464}";
}
);
layerId = UUID1;
paths = (
{
closed = 1;
nodes = (
"146 188 LINE",
"146 68 OFFCURVE",
"218 -6 OFFCURVE",
"338 -6 CURVE SMOOTH",
"476 -6 LINE",
"476 272 LINE SMOOTH",
"476 328 OFFCURVE",
"478 368 OFFCURVE",
"478 422 CURVE SMOOTH",
"478 940 LINE",
"478 994 OFFCURVE",
"476 1034 OFFCURVE",
"476 1090 CURVE SMOOTH",
"476 1366 LINE",
"160 1366 LINE",
"146 1352 LINE"
);
},
{
closed = 1;
nodes = (
"614 822 LINE SMOOTH",
"564 822 OFFCURVE",
"426 820 OFFCURVE",
"362 818 CURVE",
"362 554 LINE",
"426 552 OFFCURVE",
"564 550 OFFCURVE",
"614 550 CURVE SMOOTH",
"910 550 LINE",
"924 592 OFFCURVE",
"930 648 OFFCURVE",
"930 686 CURVE SMOOTH",
"930 722 OFFCURVE",
"924 782 OFFCURVE",
"910 822 CURVE"
);
},
{
closed = 1;
nodes = (
"362 1366 LINE",
"362 1090 LINE",
"426 1088 OFFCURVE",
"564 1086 OFFCURVE",
"614 1086 CURVE SMOOTH",
"1014 1086 LINE",
"1032 1136 OFFCURVE",
"1042 1196 OFFCURVE",
"1042 1234 CURVE SMOOTH",
"1042 1272 OFFCURVE",
"1040 1316 OFFCURVE",
"1030 1366 CURVE"
);
},
{
closed = 1;
nodes = (
"626 274 LINE",
"526 274 OFFCURVE",
"452 268 OFFCURVE",
"362 264 CURVE",
"362 -6 LINE",
"862 -6 LINE SMOOTH",
"984 -6 OFFCURVE",
"1058 50 OFFCURVE",
"1076 156 CURVE SMOOTH",
"1082 196 OFFCURVE",
"1082 246 OFFCURVE",
"1082 274 CURVE"
);
}
);
width = 1148;
}
);
rightKerningGroup = E;
unicode = 0045;
},
{
glyphname = F;
lastChange = "2018-11-23 02:18:52 +0000";
layers = (
{
anchors = (
{
name = bottom_U;
position = "{270, -40}";
},
{
name = top_U;
position = "{598, 1464}";
}
);
layerId = UUID0;
paths = (
{
closed = 1;
nodes = (
"344 958 LINE SMOOTH",
"344 1056 OFFCURVE",
"342 1156 OFFCURVE",
"342 1254 CURVE SMOOTH",
"342 1366 LINE",
"212 1366 LINE",
"200 1354 LINE",
"200 0 LINE",
"218 -4 OFFCURVE",
"244 -6 OFFCURVE",
"270 -6 CURVE SMOOTH",
"298 -6 OFFCURVE",
"324 -4 OFFCURVE",
"344 0 CURVE"
);
},
{
closed = 1;
nodes = (
"290 1366 LINE",
"290 1248 LINE",
"358 1242 OFFCURVE",
"448 1240 OFFCURVE",
"564 1240 CURVE SMOOTH",
"886 1240 LINE SMOOTH",
"946 1240 OFFCURVE",
"974 1260 OFFCURVE",
"974 1306 CURVE SMOOTH",
"974 1326 OFFCURVE",
"970 1348 OFFCURVE",
"964 1366 CURVE"
);
},
{
closed = 1;
nodes = (
"458 754 LINE SMOOTH",
"414 754 OFFCURVE",
"348 752 OFFCURVE",
"290 752 CURVE",
"290 632 LINE",
"348 632 OFFCURVE",
"414 630 OFFCURVE",
"458 630 CURVE SMOOTH",
"868 630 LINE",
"872 652 OFFCURVE",
"874 676 OFFCURVE",
"874 692 CURVE SMOOTH",
"874 708 OFFCURVE",
"872 732 OFFCURVE",
"868 754 CURVE"
);
}
);
width = 1026;
},
{
anchors = (
{
name = bottom_U;
position = "{320, -40}";
},
{
name = top_U;
position = "{590, 1464}";
}
);
layerId = UUID1;
paths = (
{
closed = 1;
nodes = (
"484 936 LINE SMOOTH",
"484 1042 OFFCURVE",
"482 1160 OFFCURVE",
"482 1272 CURVE SMOOTH",
"482 1366 LINE",
"162 1366 LINE",
"148 1354 LINE",
"148 0 LINE",
"206 -10 OFFCURVE",
"274 -12 OFFCURVE",
"320 -12 CURVE SMOOTH",
"366 -12 OFFCURVE",
"426 -10 OFFCURVE",
"484 0 CURVE"
);
},
{
closed = 1;
nodes = (
"344 1366 LINE",
"344 1084 LINE",
"434 1084 OFFCURVE",
"520 1082 OFFCURVE",
"618 1082 CURVE SMOOTH",
"862 1082 LINE SMOOTH",
"982 1082 OFFCURVE",
"1040 1128 OFFCURVE",
"1040 1238 CURVE SMOOTH",
"1040 1276 OFFCURVE",
"1036 1330 OFFCURVE",
"1026 1366 CURVE"
);
},
{
closed = 1;
nodes = (
"516 816 LINE SMOOTH",
"458 816 OFFCURVE",
"394 814 OFFCURVE",
"356 812 CURVE",
"356 546 LINE",
"394 544 OFFCURVE",
"458 542 OFFCURVE",
"516 542 CURVE SMOOTH",
"902 542 LINE",
"914 582 OFFCURVE",
"920 642 OFFCURVE",
"920 680 CURVE SMOOTH",
"920 716 OFFCURVE",
"914 778 OFFCURVE",
"902 816 CURVE"
);
}
);
width = 1074;
}
);
unicode = 0046;
},
{
glyphname = G;
lastChange = "2018-11-23 02:18:52 +0000";
layers = (
{
anchors = (
{
name = bottom_U;
position = "{670, -40}";
},
{
name = top_U;
position = "{682, 1464}";
}
);
layerId = UUID0;
paths = (
{
closed = 1;
nodes = (
"1018 1334 OFFCURVE",
"842 1390 OFFCURVE",
"682 1390 CURVE SMOOTH",
"404 1390 OFFCURVE",
"116 1196 OFFCURVE",
"116 674 CURVE SMOOTH",
"116 336 OFFCURVE",
"242 -24 OFFCURVE",
"658 -24 CURVE SMOOTH",
"840 -24 OFFCURVE",
"1008 14 OFFCURVE",
"1130 64 CURVE",
"1058 182 LINE",
"992 150 OFFCURVE",
"866 104 OFFCURVE",
"684 104 CURVE SMOOTH",
"408 104 OFFCURVE",
"268 298 OFFCURVE",
"268 672 CURVE SMOOTH",
"268 1114 OFFCURVE",
"462 1260 OFFCURVE",
"670 1260 CURVE SMOOTH",
"820 1260 OFFCURVE",
"950 1208 OFFCURVE",
"1050 1128 CURVE",
"1080 1148 OFFCURVE",
"1116 1190 OFFCURVE",
"1128 1240 CURVE"
);
},
{
closed = 1;
nodes = (
"988 60 LINE",
"1064 62 OFFCURVE",
"1072 60 OFFCURVE",
"1130 64 CURVE",
"1130 582 LINE",
"1002 628 LINE",
"992 584 OFFCURVE",
"988 524 OFFCURVE",
"988 432 CURVE"
);
},
{
closed = 1;
nodes = (
"712 682 LINE",
"706 664 OFFCURVE",
"700 636 OFFCURVE",
"700 620 CURVE SMOOTH",
"700 574 OFFCURVE",
"722 552 OFFCURVE",
"766 552 CURVE SMOOTH",
"868 552 OFFCURVE",
"1016 554 OFFCURVE",
"1130 556 CURVE",
"1130 582 LINE SMOOTH",
"1130 652 OFFCURVE",
"1100 682 OFFCURVE",
"1016 682 CURVE SMOOTH"
);
}
);
width = 1272;
},
{
anchors = (
{
name = bottom_U;
position = "{690, -40}";
},
{
name = top_U;
position = "{702, 1464}";
}
);
layerId = UUID1;
paths = (
{
closed = 1;
nodes = (
"1070 1338 OFFCURVE",
"898 1396 OFFCURVE",
"702 1396 CURVE SMOOTH",
"384 1396 OFFCURVE",
"68 1156 OFFCURVE",
"68 674 CURVE SMOOTH",
"68 234 OFFCURVE",
"270 -30 OFFCURVE",
"678 -30 CURVE SMOOTH",
"904 -30 OFFCURVE",
"1096 14 OFFCURVE",
"1212 52 CURVE",
"1036 280 LINE",
"968 262 OFFCURVE",
"864 232 OFFCURVE",
"736 232 CURVE SMOOTH",
"528 232 OFFCURVE",
"410 366 OFFCURVE",
"410 672 CURVE SMOOTH",
"410 982 OFFCURVE",
"528 1120 OFFCURVE",
"728 1120 CURVE SMOOTH",
"838 1120 OFFCURVE",
"962 1078 OFFCURVE",
"1060 1014 CURVE",
"1128 1058 OFFCURVE",
"1202 1160 OFFCURVE",
"1208 1254 CURVE"
);
},
{
closed = 1;
nodes = (
"898 48 LINE",
"974 50 OFFCURVE",
"1152 48 OFFCURVE",
"1212 52 CURVE",
"1212 578 LINE",
"928 672 LINE",
"902 578 OFFCURVE",
"898 460 OFFCURVE",
"898 366 CURVE"
);
},
{
closed = 1;
nodes = (
"678 784 LINE",
"664 744 OFFCURVE",
"654 690 OFFCURVE",
"654 646 CURVE SMOOTH",
"654 542 OFFCURVE",
"704 506 OFFCURVE",
"814 506 CURVE SMOOTH",
"892 506 OFFCURVE",
"1086 508 OFFCURVE",
"1212 510 CURVE",
"1212 578 LINE SMOOTH",
"1212 698 OFFCURVE",
"1158 788 OFFCURVE",
"992 786 CURVE SMOOTH"
);
}
);
width = 1312;
}
);
leftKerningGroup = C;
rightKerningGroup = G;
unicode = 0047;
},
{
glyphname = H;
lastChange = "2018-11-23 02:18:52 +0000";
layers = (
{
anchors = (
{
name = bottom_U;
position = "{666, -40}";
},
{
name = top_U;
position = "{666, 1464}";
}
);
layerId = UUID0;
paths = (
{
closed = 1;
nodes = (
"870 642 LINE",
"882 642 OFFCURVE",
"978 644 OFFCURVE",
"992 644 CURVE SMOOTH",
"1020 644 OFFCURVE",
"1048 642 OFFCURVE",
"1076 642 CURVE",
"1076 770 LINE",
"1048 770 OFFCURVE",
"1020 768 OFFCURVE",
"992 768 CURVE SMOOTH",
"978 768 OFFCURVE",
"882 770 OFFCURVE",
"870 770 CURVE SMOOTH",
"464 770 LINE SMOOTH",
"452 770 OFFCURVE",
"356 768 OFFCURVE",
"342 768 CURVE SMOOTH",
"314 768 OFFCURVE",
"286 770 OFFCURVE",
"258 770 CURVE",
"258 642 LINE",
"286 642 OFFCURVE",
"314 644 OFFCURVE",
"342 644 CURVE SMOOTH",
"356 644 OFFCURVE",
"452 642 OFFCURVE",
"464 642 CURVE SMOOTH"
);
},
{
closed = 1;
nodes = (
"344 496 LINE SMOOTH",
"344 552 OFFCURVE",
"342 590 OFFCURVE",
"342 644 CURVE SMOOTH",
"342 768 LINE SMOOTH",
"342 822 OFFCURVE",
"344 860 OFFCURVE",
"344 916 CURVE SMOOTH",
"344 1366 LINE",
"324 1370 OFFCURVE",
"298 1372 OFFCURVE",
"270 1372 CURVE SMOOTH",
"244 1372 OFFCURVE",
"218 1370 OFFCURVE",
"200 1366 CURVE",
"200 0 LINE",
"218 -4 OFFCURVE",
"244 -6 OFFCURVE",
"270 -6 CURVE SMOOTH",
"298 -6 OFFCURVE",
"324 -4 OFFCURVE",
"344 0 CURVE"
);
},
{
closed = 1;
nodes = (
"990 0 LINE",
"1008 -4 OFFCURVE",
"1034 -6 OFFCURVE",
"1060 -6 CURVE SMOOTH",
"1088 -6 OFFCURVE",
"1114 -4 OFFCURVE",
"1134 0 CURVE",
"1134 1366 LINE",
"1114 1370 OFFCURVE",
"1088 1372 OFFCURVE",
"1060 1372 CURVE SMOOTH",
"1034 1372 OFFCURVE",
"1008 1370 OFFCURVE",
"990 1366 CURVE",
"990 916 LINE SMOOTH",
"990 860 OFFCURVE",
"992 822 OFFCURVE",
"992 768 CURVE SMOOTH",
"992 644 LINE SMOOTH",
"992 590 OFFCURVE",
"990 552 OFFCURVE",
"990 496 CURVE SMOOTH"
);
}
);
width = 1334;
},
{
anchors = (
{
name = bottom_U;
position = "{688, -40}";
},
{
name = top_U;
position = "{688, 1466}";
}
);
layerId = UUID1;
paths = (
{
closed = 1;
nodes = (
"796 564 LINE",
"826 564 OFFCURVE",
"864 566 OFFCURVE",
"894 566 CURVE SMOOTH",
"960 566 OFFCURVE",
"1030 564 OFFCURVE",
"1096 564 CURVE",
"1096 844 LINE",
"1030 844 OFFCURVE",
"960 842 OFFCURVE",
"894 842 CURVE SMOOTH",
"864 842 OFFCURVE",
"826 844 OFFCURVE",
"796 844 CURVE SMOOTH",
"580 844 LINE SMOOTH",
"550 844 OFFCURVE",
"512 842 OFFCURVE",
"482 842 CURVE SMOOTH",
"416 842 OFFCURVE",
"346 844 OFFCURVE",
"280 844 CURVE",
"280 564 LINE",
"346 564 OFFCURVE",
"416 566 OFFCURVE",
"482 566 CURVE SMOOTH",
"512 566 OFFCURVE",
"550 564 OFFCURVE",
"580 564 CURVE SMOOTH"
);
},
{
closed = 1;
nodes = (
"484 418 LINE SMOOTH",
"484 474 OFFCURVE",
"482 512 OFFCURVE",
"482 566 CURVE SMOOTH",
"482 842 LINE SMOOTH",
"482 896 OFFCURVE",
"484 934 OFFCURVE",
"484 990 CURVE SMOOTH",
"484 1366 LINE",
"428 1376 OFFCURVE",
"360 1378 OFFCURVE",
"316 1378 CURVE SMOOTH",
"276 1378 OFFCURVE",
"202 1376 OFFCURVE",
"148 1366 CURVE",
"148 0 LINE",
"202 -10 OFFCURVE",
"276 -12 OFFCURVE",
"316 -12 CURVE SMOOTH",
"360 -12 OFFCURVE",
"428 -10 OFFCURVE",
"484 0 CURVE"
);
},
{
closed = 1;
nodes = (
"892 0 LINE",
"950 -10 OFFCURVE",
"1018 -12 OFFCURVE",
"1064 -12 CURVE SMOOTH",
"1110 -12 OFFCURVE",
"1170 -10 OFFCURVE",
"1228 0 CURVE",
"1228 1366 LINE",
"1174 1376 OFFCURVE",
"1100 1378 OFFCURVE",
"1060 1378 CURVE SMOOTH",
"1016 1378 OFFCURVE",
"948 1376 OFFCURVE",
"892 1366 CURVE",
"892 990 LINE SMOOTH",
"892 934 OFFCURVE",
"894 896 OFFCURVE",
"894 842 CURVE SMOOTH",
"894 566 LINE SMOOTH",
"894 512 OFFCURVE",
"892 474 OFFCURVE",
"892 418 CURVE SMOOTH"
);
}
);
width = 1376;
}
);
unicode = 0048;
},
{
glyphname = I;
lastChange = "2018-11-23 02:18:52 +0000";
layers = (
{
anchors = (
{
name = bottom_U;
position = "{278, -40}";
},
{
name = top_U;
position = "{280, 1464}";
}
);
layerId = UUID0;
paths = (
{
closed = 1;
nodes = (
"208 0 LINE",
"226 -4 OFFCURVE",
"252 -6 OFFCURVE",
"278 -6 CURVE SMOOTH",
"306 -6 OFFCURVE",
"332 -4 OFFCURVE",
"352 0 CURVE",
"352 1366 LINE",
"332 1370 OFFCURVE",
"306 1372 OFFCURVE",
"278 1372 CURVE SMOOTH",
"252 1372 OFFCURVE",
"226 1370 OFFCURVE",
"208 1366 CURVE"
);
}
);
width = 560;
},
{
anchors = (
{
name = bottom_U;
position = "{320, -40}";
},
{
name = top_U;
position = "{320, 1466}";
}
);
layerId = UUID1;
paths = (
{
closed = 1;
nodes = (
"152 0 LINE",
"206 -10 OFFCURVE",
"280 -12 OFFCURVE",
"320 -12 CURVE SMOOTH",
"364 -12 OFFCURVE",
"432 -10 OFFCURVE",
"488 0 CURVE",
"488 1366 LINE",
"432 1376 OFFCURVE",
"364 1378 OFFCURVE",
"320 1378 CURVE SMOOTH",
"280 1378 OFFCURVE",
"206 1376 OFFCURVE",
"152 1366 CURVE"
);
}
);
width = 640;
}
);
unicode = 0049;
},
{
glyphname = J;
lastChange = "2018-11-23 02:18:52 +0000";
layers = (
{
anchors = (
{
name = bottom_U;
position = "{382, -40}";
},
{
name = top_U;
position = "{626, 1464}";
}
);
layerId = UUID0;
paths = (
{
closed = 1;
nodes = (
"50 142 OFFCURVE",
"30 106 OFFCURVE",
"20 62 CURVE",
"102 12 OFFCURVE",
"220 -20 OFFCURVE",
"322 -20 CURVE SMOOTH",
"650 -20 OFFCURVE",
"696 202 OFFCURVE",
"696 480 CURVE SMOOTH",
"696 1366 LINE",
"678 1370 OFFCURVE",
"652 1372 OFFCURVE",
"626 1372 CURVE SMOOTH",
"598 1372 OFFCURVE",
"572 1370 OFFCURVE",
"552 1366 CURVE",
"552 450 LINE",
"552 200 OFFCURVE",
"492 104 OFFCURVE",
"316 104 CURVE SMOOTH",
"236 104 OFFCURVE",
"142 134 OFFCURVE",
"80 172 CURVE"
);
}
);
width = 868;
},
{
anchors = (
{
name = bottom_U;
position = "{434, -40}";
},
{
name = top_U;
position = "{652, 1464}";
}
);
layerId = UUID1;
paths = (
{
closed = 1;
nodes = (
"74 248 OFFCURVE",
"32 152 OFFCURVE",
"20 68 CURVE",
"116 8 OFFCURVE",
"242 -20 OFFCURVE",
"348 -20 CURVE SMOOTH",
"728 -20 OFFCURVE",
"820 210 OFFCURVE",
"820 528 CURVE SMOOTH",
"820 1366 LINE",
"764 1376 OFFCURVE",
"696 1378 OFFCURVE",
"652 1378 CURVE SMOOTH",
"612 1378 OFFCURVE",
"538 1376 OFFCURVE",
"484 1366 CURVE",
"484 498 LINE",
"484 348 OFFCURVE",
"452 256 OFFCURVE",
"310 256 CURVE SMOOTH",
"248 256 OFFCURVE",
"190 282 OFFCURVE",
"134 316 CURVE"
);
}
);
width = 948;
}
);
leftKerningGroup = J;
rightKerningGroup = U;
unicode = 004A;
},
{
glyphname = K;
lastChange = "2018-11-23 02:18:52 +0000";
layers = (
{
anchors = (
{
name = bottom_U;
position = "{606, -40}";
},
{
name = top_U;
position = "{600, 1464}";
}
);
layerId = UUID0;
paths = (
{
closed = 1;
nodes = (
"200 0 LINE",
"218 -4 OFFCURVE",
"244 -6 OFFCURVE",
"270 -6 CURVE SMOOTH",
"298 -6 OFFCURVE",
"324 -4 OFFCURVE",
"344 0 CURVE",
"344 1366 LINE",
"324 1370 OFFCURVE",
"298 1372 OFFCURVE",
"270 1372 CURVE SMOOTH",
"244 1372 OFFCURVE",
"218 1370 OFFCURVE",
"200 1366 CURVE"
);
},
{
closed = 1;
nodes = (
"1088 62 OFFCURVE",
"1062 94 OFFCURVE",
"1036 158 CURVE SMOOTH",
"910 474 LINE SMOOTH",
"836 658 OFFCURVE",
"768 738 OFFCURVE",
"576 738 CURVE SMOOTH",
"268 738 LINE",
"268 634 LINE",
"402 640 OFFCURVE",
"480 640 OFFCURVE",
"510 640 CURVE SMOOTH",
"644 640 OFFCURVE",
"714 584 OFFCURVE",
"780 416 CURVE SMOOTH",
"910 86 LINE SMOOTH",
"934 24 OFFCURVE",
"952 -10 OFFCURVE",
"1016 -10 CURVE SMOOTH",
"1048 -10 OFFCURVE",
"1096 8 OFFCURVE",
"1116 40 CURVE"
);
},
{
closed = 1;
nodes = (
"562 816 LINE",
"542 784 OFFCURVE",
"528 768 OFFCURVE",
"494 768 CURVE SMOOTH",
"268 762 LINE",
"268 676 LINE",
"500 676 LINE SMOOTH",
"594 676 OFFCURVE",
"664 726 OFFCURVE",
"712 802 CURVE SMOOTH",
"1054 1350 LINE",
"1042 1366 LINE",
"1014 1368 OFFCURVE",
"992 1370 OFFCURVE",
"966 1370 CURVE SMOOTH",
"908 1370 OFFCURVE",
"890 1344 OFFCURVE",
"862 1298 CURVE SMOOTH"
);
}
);
width = 1162;
},
{
anchors = (
{
name = bottom_U;
position = "{662, -40}";
},
{
name = top_U;
position = "{654, 1464}";
}
);
layerId = UUID1;
paths = (
{
closed = 1;
nodes = (
"148 0 LINE",
"202 -10 OFFCURVE",
"276 -12 OFFCURVE",
"316 -12 CURVE SMOOTH",
"360 -12 OFFCURVE",
"428 -10 OFFCURVE",
"484 0 CURVE",
"484 1366 LINE",
"428 1376 OFFCURVE",
"360 1378 OFFCURVE",
"316 1378 CURVE SMOOTH",
"276 1378 OFFCURVE",
"202 1376 OFFCURVE",
"148 1366 CURVE"
);
},
{
closed = 1;
nodes = (
"1168 146 OFFCURVE",
"1156 204 OFFCURVE",
"1132 276 CURVE SMOOTH",
"1054 518 LINE SMOOTH",
"1012 646 OFFCURVE",
"948 754 OFFCURVE",
"720 754 CURVE SMOOTH",
"314 754 LINE",
"314 550 LINE",
"412 560 OFFCURVE",
"502 568 OFFCURVE",
"564 568 CURVE SMOOTH",
"656 568 OFFCURVE",
"706 520 OFFCURVE",
"744 398 CURVE SMOOTH",
"814 172 LINE SMOOTH",
"854 44 OFFCURVE",
"896 -18 OFFCURVE",
"1016 -18 CURVE SMOOTH",
"1106 -18 OFFCURVE",
"1194 18 OFFCURVE",
"1238 82 CURVE"
);
},
{
closed = 1;
nodes = (
"618 916 LINE",
"590 860 OFFCURVE",
"578 846 OFFCURVE",
"526 846 CURVE SMOOTH",
"314 842 LINE",
"314 654 LINE",
"558 654 LINE SMOOTH",
"764 654 OFFCURVE",
"876 744 OFFCURVE",
"954 894 CURVE SMOOTH",
"1188 1346 LINE",
"1170 1368 LINE",
"1104 1374 OFFCURVE",
"1022 1378 OFFCURVE",
"968 1378 CURVE SMOOTH",
"872 1378 OFFCURVE",
"838 1342 OFFCURVE",
"798 1264 CURVE SMOOTH"
);
}
);
width = 1248;
}
);
rightKerningGroup = K;
unicode = 004B;
},
{
glyphname = L;
lastChange = "2018-11-23 02:18:52 +0000";
layers = (
{
anchors = (
{
name = bottom_U;
position = "{578, -40}";
},
{
name = top_U;
position = "{270, 1464}";
}
);
layerId = UUID0;
paths = (
{
closed = 1;
nodes = (
"344 1278 LINE",
"344 1340 OFFCURVE",
"334 1372 OFFCURVE",
"270 1372 CURVE SMOOTH",
"212 1372 LINE",
"200 1360 LINE",
"200 98 LINE SMOOTH",
"200 32 OFFCURVE",
"238 0 OFFCURVE",
"284 0 CURVE SMOOTH",
"344 0 LINE"
);
},
{
closed = 1;
nodes = (
"516 128 LINE",
"426 128 OFFCURVE",
"304 122 OFFCURVE",
"214 108 CURVE",
"284 0 LINE",
"850 0 LINE SMOOTH",
"900 0 OFFCURVE",
"934 20 OFFCURVE",
"942 66 CURVE SMOOTH",
"946 86 OFFCURVE",
"946 116 OFFCURVE",
"946 128 CURVE"
);
}
);
width = 1010;
},
{
anchors = (
{
name = bottom_U;
position = "{570, -40}";
},
{
name = top_U;
position = "{312, 1454}";
}
);
layerId = UUID1;
paths = (
{
closed = 1;
nodes = (
"482 1168 LINE",
"482 1318 OFFCURVE",
"410 1380 OFFCURVE",
"282 1380 CURVE SMOOTH",
"160 1380 LINE",
"146 1366 LINE",
"146 188 LINE SMOOTH",
"146 68 OFFCURVE",
"220 -6 OFFCURVE",
"340 -6 CURVE SMOOTH",
"482 -6 LINE"
);
},
{
closed = 1;
nodes = (
"670 282 LINE",
"524 282 OFFCURVE",
"342 268 OFFCURVE",
"160 236 CURVE",
"340 -6 LINE",
"782 -6 LINE SMOOTH",
"904 -6 OFFCURVE",
"984 52 OFFCURVE",
"1002 158 CURVE SMOOTH",
"1008 198 OFFCURVE",
"1010 242 OFFCURVE",
"1010 282 CURVE"
);
}
);
width = 1048;
}
);
rightKerningGroup = L;
unicode = 004C;
},
{
glyphname = M;
lastChange = "2018-11-23 02:18:52 +0000";
layers = (
{
anchors = (
{
name = bottom_U;
position = "{790, -40}";
},
{
name = top_U;
position = "{790, 1464}";
}
);
layerId = UUID0;
paths = (
{
closed = 1;
nodes = (
"172 2 LINE",
"190 -4 OFFCURVE",
"218 -8 OFFCURVE",
"242 -8 CURVE SMOOTH",
"266 -8 OFFCURVE",
"290 -6 OFFCURVE",
"312 -2 CURVE",
"370 842 LINE SMOOTH",
"376 930 OFFCURVE",
"380 1102 OFFCURVE",
"386 1214 CURVE",
"396 1214 LINE",
"720 214 LINE",
"740 210 OFFCURVE",
"764 208 OFFCURVE",
"790 208 CURVE SMOOTH",
"814 208 OFFCURVE",
"840 210 OFFCURVE",
"862 214 CURVE",
"1186 1214 LINE",
"1196 1214 LINE",
"1200 1102 OFFCURVE",
"1206 930 OFFCURVE",
"1212 842 CURVE SMOOTH",
"1270 -2 LINE",
"1292 -6 OFFCURVE",
"1312 -8 OFFCURVE",
"1336 -8 CURVE SMOOTH",
"1360 -8 OFFCURVE",
"1390 -4 OFFCURVE",
"1410 2 CURVE",
"1304 1366 LINE",
"1264 1372 OFFCURVE",
"1224 1372 OFFCURVE",
"1206 1372 CURVE SMOOTH",
"1186 1372 OFFCURVE",
"1154 1372 OFFCURVE",
"1114 1366 CURVE",
"878 652 LINE SMOOTH",
"854 582 OFFCURVE",
"800 390 OFFCURVE",
"796 364 CURVE",
"786 364 LINE",
"782 390 OFFCURVE",
"728 582 OFFCURVE",
"704 652 CURVE SMOOTH",
"468 1366 LINE",
"434 1372 OFFCURVE",
"396 1372 OFFCURVE",
"376 1372 CURVE SMOOTH",
"358 1372 OFFCURVE",
"314 1372 OFFCURVE",
"278 1366 CURVE"
);
}
);
width = 1582;
},
{
anchors = (
{
name = bottom_U;
position = "{838, -40}";
},
{
name = top_U;
position = "{838, 1464}";
}
);
layerId = UUID1;
paths = (
{
closed = 1;
nodes = (
"104 4 LINE",
"152 -8 OFFCURVE",
"220 -12 OFFCURVE",
"274 -12 CURVE SMOOTH",
"324 -12 OFFCURVE",
"372 -10 OFFCURVE",
"420 -2 CURVE",
"448 530 LINE SMOOTH",
"456 676 OFFCURVE",
"464 866 OFFCURVE",
"464 998 CURVE",
"478 998 LINE",
"664 200 LINE",
"714 192 OFFCURVE",
"794 188 OFFCURVE",
"836 188 CURVE SMOOTH",
"882 188 OFFCURVE",
"960 192 OFFCURVE",
"1010 200 CURVE",
"1196 998 LINE",
"1210 998 LINE",
"1210 866 OFFCURVE",
"1218 676 OFFCURVE",
"1226 530 CURVE SMOOTH",
"1254 -2 LINE",
"1302 -10 OFFCURVE",
"1350 -12 OFFCURVE",
"1400 -12 CURVE SMOOTH",
"1454 -12 OFFCURVE",
"1522 -8 OFFCURVE",
"1570 4 CURVE",
"1464 1364 LINE",
"1394 1376 OFFCURVE",
"1300 1380 OFFCURVE",
"1238 1380 CURVE SMOOTH",
"1176 1380 OFFCURVE",
"1096 1376 OFFCURVE",
"1026 1364 CURVE",
"918 894 LINE SMOOTH",
"908 848 OFFCURVE",
"862 632 OFFCURVE",
"844 524 CURVE",
"830 524 LINE",
"812 632 OFFCURVE",
"766 848 OFFCURVE",
"756 894 CURVE SMOOTH",
"648 1364 LINE",
"578 1376 OFFCURVE",
"498 1380 OFFCURVE",
"436 1380 CURVE SMOOTH",
"374 1380 OFFCURVE",
"280 1376 OFFCURVE",
"210 1364 CURVE"
);
}
);
width = 1674;
}
);
unicode = 004D;
},
{
glyphname = N;
lastChange = "2018-11-23 02:18:52 +0000";
layers = (
{
anchors = (
{
name = bottom_U;
position = "{664, -40}";
},
{
name = top_U;
position = "{674, 1464}";
}
);
layerId = UUID0;
paths = (
{
closed = 1;
nodes = (
"200 0 LINE",
"224 -4 OFFCURVE",
"246 -6 OFFCURVE",
"266 -6 CURVE SMOOTH",
"286 -6 OFFCURVE",
"308 -4 OFFCURVE",
"334 0 CURVE",
"334 770 LINE SMOOTH",
"334 908 OFFCURVE",
"326 1072 OFFCURVE",
"322 1192 CURVE",
"336 1192 LINE",
"376 1366 LINE",
"352 1370 OFFCURVE",
"306 1372 OFFCURVE",
"286 1372 CURVE SMOOTH",
"270 1372 OFFCURVE",
"224 1370 OFFCURVE",
"200 1366 CURVE"
);
},
{
closed = 1;
nodes = (
"962 0 LINE",
"1140 40 LINE",
"1012 168 LINE",
"968 256 OFFCURVE",
"924 352 OFFCURVE",
"872 448 CURVE SMOOTH",
"376 1366 LINE",
"200 1346 LINE",
"328 1192 LINE",
"372 1102 OFFCURVE",
"414 1014 OFFCURVE",
"466 918 CURVE SMOOTH"
);
},
{
closed = 1;
nodes = (
"1128 1372 LINE",
"1080 1372 LINE SMOOTH",
"1016 1372 OFFCURVE",
"1006 1340 OFFCURVE",
"1006 1278 CURVE SMOOTH",
"1006 616 LINE SMOOTH",
"1006 478 OFFCURVE",
"1012 312 OFFCURVE",
"1018 168 CURVE",
"1004 168 LINE",
"962 0 LINE",
"986 -4 OFFCURVE",
"1034 -6 OFFCURVE",
"1052 -6 CURVE SMOOTH",
"1070 -6 OFFCURVE",
"1116 -4 OFFCURVE",
"1140 0 CURVE",
"1140 1362 LINE"
);
}
);
width = 1340;
},
{
anchors = (
{
name = bottom_U;
position = "{686, -40}";
},
{
name = top_U;
position = "{706, 1464}";
}
);
layerId = UUID1;
paths = (
{
closed = 1;
nodes = (
"148 0 LINE",
"200 -10 OFFCURVE",
"268 -12 OFFCURVE",
"308 -12 CURVE SMOOTH",
"350 -12 OFFCURVE",
"406 -10 OFFCURVE",
"460 0 CURVE",
"460 366 LINE SMOOTH",
"460 534 OFFCURVE",
"450 804 OFFCURVE",
"434 978 CURVE",
"456 986 LINE",
"540 1366 LINE",
"466 1376 OFFCURVE",
"388 1378 OFFCURVE",
"346 1378 CURVE SMOOTH",
"304 1378 OFFCURVE",
"200 1372 OFFCURVE",
"148 1360 CURVE"
);
},
{
closed = 1;
nodes = (
"852 0 LINE",
"1248 46 LINE",
"956 364 LINE",
"928 436 OFFCURVE",
"882 550 OFFCURVE",
"832 670 CURVE SMOOTH",
"540 1366 LINE",
"148 1320 LINE",
"442 982 LINE",
"468 906 OFFCURVE",
"508 802 OFFCURVE",
"552 698 CURVE SMOOTH"
);
},
{
closed = 1;
nodes = (
"1234 1380 LINE",
"1126 1380 LINE SMOOTH",
"998 1380 OFFCURVE",
"938 1328 OFFCURVE",
"938 1178 CURVE SMOOTH",
"938 970 LINE SMOOTH",
"938 832 OFFCURVE",
"946 558 OFFCURVE",
"964 368 CURVE",
"940 360 LINE",
"852 0 LINE",
"926 -10 OFFCURVE",
"1004 -12 OFFCURVE",
"1046 -12 CURVE SMOOTH",
"1088 -12 OFFCURVE",
"1194 -6 OFFCURVE",
"1248 6 CURVE",
"1248 1366 LINE"
);
}
);
width = 1396;
}
);
unicode = 004E;
},
{
glyphname = O;
lastChange = "2018-11-23 02:18:52 +0000";
layers = (
{
anchors = (
{
name = bottom_U;
position = "{652, -40}";
},
{
name = top_U;
position = "{652, 1464}";
}
);
layerId = UUID0;
paths = (
{
closed = 1;
nodes = (
"268 946 OFFCURVE",
"342 1268 OFFCURVE",
"652 1268 CURVE SMOOTH",
"962 1268 OFFCURVE",
"1034 946 OFFCURVE",
"1034 684 CURVE SMOOTH",
"1034 422 OFFCURVE",
"962 98 OFFCURVE",
"652 98 CURVE SMOOTH",
"342 98 OFFCURVE",
"268 422 OFFCURVE",
"268 684 CURVE SMOOTH"
);
},
{
closed = 1;
nodes = (
"116 460 OFFCURVE",
"176 228 OFFCURVE",
"328 92 CURVE SMOOTH",
"406 22 OFFCURVE",
"504 -24 OFFCURVE",
"652 -24 CURVE SMOOTH",
"800 -24 OFFCURVE",
"898 22 OFFCURVE",
"976 92 CURVE SMOOTH",
"1128 228 OFFCURVE",
"1188 460 OFFCURVE",
"1188 684 CURVE SMOOTH",
"1188 904 OFFCURVE",
"1128 1138 OFFCURVE",
"976 1274 CURVE SMOOTH",
"898 1344 OFFCURVE",
"800 1390 OFFCURVE",
"652 1390 CURVE SMOOTH",
"504 1390 OFFCURVE",
"406 1344 OFFCURVE",
"328 1274 CURVE SMOOTH",
"176 1138 OFFCURVE",
"116 904 OFFCURVE",
"116 684 CURVE SMOOTH"
);
}
);
width = 1304;
},
{
anchors = (
{
name = bottom_U;
position = "{668, -40}";
},
{
name = top_U;
position = "{668, 1464}";
}
);
layerId = UUID1;
paths = (
{
closed = 1;
nodes = (
"418 890 OFFCURVE",
"444 1140 OFFCURVE",
"668 1140 CURVE SMOOTH",
"892 1140 OFFCURVE",
"918 890 OFFCURVE",
"918 684 CURVE SMOOTH",
"918 478 OFFCURVE",
"892 226 OFFCURVE",
"668 226 CURVE SMOOTH",
"444 226 OFFCURVE",
"418 478 OFFCURVE",
"418 684 CURVE SMOOTH"
);
},
{
closed = 1;
nodes = (
"68 476 OFFCURVE",
"114 236 OFFCURVE",
"282 96 CURVE SMOOTH",
"374 22 OFFCURVE",
"486 -30 OFFCURVE",
"668 -30 CURVE SMOOTH",
"852 -30 OFFCURVE",
"962 22 OFFCURVE",
"1054 96 CURVE SMOOTH",
"1222 236 OFFCURVE",
"1268 476 OFFCURVE",
"1268 684 CURVE SMOOTH",
"1268 894 OFFCURVE",
"1222 1130 OFFCURVE",
"1054 1270 CURVE SMOOTH",
"962 1344 OFFCURVE",
"852 1396 OFFCURVE",
"668 1396 CURVE SMOOTH",
"486 1396 OFFCURVE",
"374 1344 OFFCURVE",
"282 1270 CURVE SMOOTH",
"114 1130 OFFCURVE",
"68 894 OFFCURVE",
"68 684 CURVE SMOOTH"
);
}
);
width = 1336;
}
);
leftKerningGroup = C;
rightKerningGroup = O;
unicode = 004F;
},
{
glyphname = P;
lastChange = "2018-11-23 02:18:52 +0000";
layers = (
{
anchors = (
{
name = bottom_U;
position = "{270, -40}";
},
{
name = top_U;
position = "{576, 1464}";
}
);
layerId = UUID0;
paths = (
{
closed = 1;
nodes = (
"1028 1228 OFFCURVE",
"844 1372 OFFCURVE",
"590 1372 CURVE SMOOTH",
"464 1372 OFFCURVE",
"350 1368 OFFCURVE",
"212 1366 CURVE",
"200 1354 LINE",
"200 0 LINE",
"218 -4 OFFCURVE",
"244 -6 OFFCURVE",
"270 -6 CURVE SMOOTH",
"298 -6 OFFCURVE",
"324 -4 OFFCURVE",
"344 0 CURVE",
"344 1252 LINE",
"418 1250 OFFCURVE",
"528 1250 OFFCURVE",
"596 1250 CURVE SMOOTH",
"820 1250 OFFCURVE",
"874 1086 OFFCURVE",
"874 946 CURVE SMOOTH",
"874 810 OFFCURVE",
"820 640 OFFCURVE",
"596 640 CURVE SMOOTH",
"528 640 OFFCURVE",
"358 640 OFFCURVE",
"284 638 CURVE",
"284 518 LINE",
"590 518 LINE",
"848 518 OFFCURVE",
"1028 666 OFFCURVE",
"1028 946 CURVE SMOOTH"
);
}
);
width = 1108;
},
{
anchors = (
{
name = bottom_U;
position = "{316, -40}";
},
{
name = top_U;
position = "{602, 1464}";
}
);
layerId = UUID1;
paths = (
{
closed = 1;
nodes = (
"1128 1226 OFFCURVE",
"920 1378 OFFCURVE",
"634 1378 CURVE SMOOTH",
"480 1378 OFFCURVE",
"336 1374 OFFCURVE",
"162 1370 CURVE",
"148 1356 LINE",
"148 0 LINE",
"202 -10 OFFCURVE",
"276 -12 OFFCURVE",
"316 -12 CURVE SMOOTH",
"360 -12 OFFCURVE",
"428 -10 OFFCURVE",
"484 0 CURVE",
"484 1124 LINE",
"536 1122 OFFCURVE",
"566 1122 OFFCURVE",
"604 1122 CURVE SMOOTH",
"758 1122 OFFCURVE",
"786 988 OFFCURVE",
"786 898 CURVE SMOOTH",
"786 806 OFFCURVE",
"758 674 OFFCURVE",
"604 674 CURVE SMOOTH",
"566 674 OFFCURVE",
"394 668 OFFCURVE",
"342 664 CURVE",
"342 420 LINE",
"634 420 LINE",
"920 420 OFFCURVE",
"1128 582 OFFCURVE",
"1128 898 CURVE SMOOTH"
);
}
);
width = 1184;
}
);
unicode = 0050;
},
{
glyphname = Q;
lastChange = "2018-11-23 02:18:52 +0000";
layers = (
{
anchors = (
{
name = bottom_U;
position = "{640, -40}";
},
{
name = top_U;
position = "{640, 1464}";
}
);
layerId = UUID0;
paths = (
{
closed = 1;
nodes = (
"268 950 OFFCURVE",
"330 1268 OFFCURVE",
"640 1268 CURVE SMOOTH",
"950 1268 OFFCURVE",
"1010 950 OFFCURVE",
"1010 684 CURVE SMOOTH",
"1010 418 OFFCURVE",
"950 104 OFFCURVE",
"640 104 CURVE SMOOTH",
"330 104 OFFCURVE",
"268 418 OFFCURVE",
"268 684 CURVE SMOOTH"
);
},
{
closed = 1;
nodes = (
"116 466 OFFCURVE",
"166 224 OFFCURVE",
"318 88 CURVE SMOOTH",
"396 18 OFFCURVE",
"504 -24 OFFCURVE",
"652 -24 CURVE SMOOTH",
"716 -24 OFFCURVE",
"732 -8 OFFCURVE",
"766 8 CURVE SMOOTH",
"836 10 OFFCURVE",
"902 40 OFFCURVE",
"966 98 CURVE SMOOTH",
"1118 234 OFFCURVE",
"1164 466 OFFCURVE",
"1164 684 CURVE SMOOTH",
"1164 898 OFFCURVE",
"1114 1142 OFFCURVE",
"962 1278 CURVE SMOOTH",
"884 1348 OFFCURVE",
"788 1390 OFFCURVE",
"640 1390 CURVE SMOOTH",
"492 1390 OFFCURVE",
"396 1348 OFFCURVE",
"318 1278 CURVE SMOOTH",
"166 1142 OFFCURVE",
"116 898 OFFCURVE",
"116 684 CURVE SMOOTH"
);
},
{
closed = 1;
nodes = (
"928 -196 LINE",
"964 -220 OFFCURVE",
"998 -234 OFFCURVE",
"1044 -234 CURVE SMOOTH",
"1090 -234 OFFCURVE",
"1144 -206 OFFCURVE",
"1150 -126 CURVE",
"1088 -124 OFFCURVE",
"1036 -104 OFFCURVE",
"896 -4 CURVE SMOOTH",
"782 78 LINE",
"612 26 LINE"
);
}
);
width = 1280;
},
{
anchors = (
{
name = bottom_U;
position = "{564, -36}";
},
{
name = top_U;
position = "{672, 1464}";
}
);
layerId = UUID1;
paths = (
{
closed = 1;
nodes = (
"412 892 OFFCURVE",
"446 1140 OFFCURVE",
"672 1140 CURVE SMOOTH",
"898 1140 OFFCURVE",
"930 892 OFFCURVE",
"930 684 CURVE SMOOTH",
"930 478 OFFCURVE",
"898 226 OFFCURVE",
"672 226 CURVE SMOOTH",
"446 226 OFFCURVE",
"412 478 OFFCURVE",
"412 684 CURVE SMOOTH"
);
},
{
closed = 1;
nodes = (
"68 476 OFFCURVE",
"118 238 OFFCURVE",
"286 96 CURVE SMOOTH",
"378 22 OFFCURVE",
"488 -30 OFFCURVE",
"670 -30 CURVE SMOOTH",
"738 -30 OFFCURVE",
"798 4 OFFCURVE",
"848 44 CURVE SMOOTH",
"952 44 OFFCURVE",
"1046 76 OFFCURVE",
"1124 168 CURVE SMOOTH",
"1246 306 OFFCURVE",
"1276 500 OFFCURVE",
"1276 682 CURVE SMOOTH",
"1276 894 OFFCURVE",
"1224 1130 OFFCURVE",
"1058 1270 CURVE SMOOTH",
"968 1346 OFFCURVE",
"856 1396 OFFCURVE",
"672 1396 CURVE SMOOTH",
"490 1396 OFFCURVE",
"376 1346 OFFCURVE",
"286 1270 CURVE SMOOTH",
"118 1130 OFFCURVE",
"68 894 OFFCURVE",
"68 684 CURVE SMOOTH"
);
},
{
closed = 1;
nodes = (
"866 -210 LINE",
"922 -260 OFFCURVE",
"990 -294 OFFCURVE",
"1088 -294 CURVE SMOOTH",
"1200 -294 OFFCURVE",
"1296 -202 OFFCURVE",
"1298 -56 CURVE",
"1214 -56 OFFCURVE",
"1148 -36 OFFCURVE",
"1046 36 CURVE SMOOTH",
"852 174 LINE",
"552 72 LINE"
);
}
);
width = 1344;
}
);
leftKerningGroup = C;
rightKerningGroup = O;
unicode = 0051;
},
{
glyphname = R;
lastChange = "2018-11-23 02:18:52 +0000";
layers = (
{
anchors = (
{
name = bottom_U;
position = "{606, -40}";
},
{
name = top_U;
position = "{590, 1464}";
}
);
layerId = UUID0;
paths = (
{
closed = 1;
nodes = (
"1044 1220 OFFCURVE",
"890 1372 OFFCURVE",
"612 1372 CURVE SMOOTH",
"486 1372 OFFCURVE",
"350 1368 OFFCURVE",
"212 1366 CURVE",
"200 1354 LINE",
"200 0 LINE",
"218 -4 OFFCURVE",
"244 -6 OFFCURVE",
"270 -6 CURVE SMOOTH",
"298 -6 OFFCURVE",
"324 -4 OFFCURVE",
"344 0 CURVE",
"344 1252 LINE",
"418 1250 OFFCURVE",
"544 1250 OFFCURVE",
"612 1250 CURVE SMOOTH",
"836 1250 OFFCURVE",
"892 1110 OFFCURVE",
"892 978 CURVE SMOOTH",
"892 850 OFFCURVE",
"836 706 OFFCURVE",
"612 706 CURVE SMOOTH",
"512 706 OFFCURVE",
"378 704 OFFCURVE",
"284 700 CURVE",
"284 580 LINE",
"558 580 LINE SMOOTH",
"694 580 OFFCURVE",
"742 500 OFFCURVE",
"782 394 CURVE SMOOTH",
"900 84 LINE SMOOTH",
"924 22 OFFCURVE",
"946 -12 OFFCURVE",
"1004 -12 CURVE SMOOTH",
"1036 -12 OFFCURVE",
"1084 2 OFFCURVE",
"1104 36 CURVE",
"1058 72 OFFCURVE",
"1040 128 OFFCURVE",
"1020 178 CURVE SMOOTH",
"914 454 LINE SMOOTH",
"886 526 OFFCURVE",
"840 594 OFFCURVE",
"780 614 CURVE",
"944 662 OFFCURVE",
"1044 798 OFFCURVE",
"1044 978 CURVE SMOOTH"
);
}
);
width = 1182;
},
{
anchors = (
{
name = bottom_U;
position = "{654, -40}";
},
{
name = top_U;
position = "{610, 1464}";
}
);
layerId = UUID1;
paths = (
{
closed = 1;
nodes = (
"1140 1248 OFFCURVE",
"926 1378 OFFCURVE",
"648 1378 CURVE SMOOTH",
"494 1378 OFFCURVE",
"336 1374 OFFCURVE",
"162 1370 CURVE",
"148 1356 LINE",
"148 0 LINE",
"202 -10 OFFCURVE",
"274 -12 OFFCURVE",
"314 -12 CURVE SMOOTH",
"358 -12 OFFCURVE",
"424 -10 OFFCURVE",
"480 0 CURVE",
"480 1128 LINE",
"536 1126 OFFCURVE",
"580 1126 OFFCURVE",
"618 1126 CURVE SMOOTH",
"764 1126 OFFCURVE",
"798 1042 OFFCURVE",
"798 940 CURVE SMOOTH",
"798 842 OFFCURVE",
"764 754 OFFCURVE",
"618 754 CURVE SMOOTH",
"580 754 OFFCURVE",
"420 748 OFFCURVE",
"344 744 CURVE",
"344 494 LINE",
"552 494 LINE SMOOTH",
"656 494 OFFCURVE",
"694 440 OFFCURVE",
"716 374 CURVE SMOOTH",
"784 174 LINE SMOOTH",
"828 46 OFFCURVE",
"868 -18 OFFCURVE",
"988 -18 CURVE SMOOTH",
"1078 -18 OFFCURVE",
"1168 24 OFFCURVE",
"1210 80 CURVE",
"1166 114 OFFCURVE",
"1130 168 OFFCURVE",
"1110 228 CURVE SMOOTH",
"1054 388 LINE SMOOTH",
"1024 476 OFFCURVE",
"974 546 OFFCURVE",
"898 574 CURVE",
"1008 618 OFFCURVE",
"1140 746 OFFCURVE",
"1140 940 CURVE SMOOTH"
);
}
);
width = 1234;
}
);
rightKerningGroup = R;
unicode = 0052;
},
{
glyphname = S;
lastChange = "2018-11-23 02:18:52 +0000";
layers = (
{
anchors = (
{
name = bottom_U;
position = "{546, -40}";
},
{
name = top_U;
position = "{576, 1464}";
}
);
layerId = UUID0;
paths = (
{
closed = 1;
nodes = (
"204 36 OFFCURVE",
"374 -24 OFFCURVE",
"542 -24 CURVE SMOOTH",
"860 -24 OFFCURVE",
"1010 138 OFFCURVE",
"1010 360 CURVE SMOOTH",
"1010 544 OFFCURVE",
"868 652 OFFCURVE",
"712 720 CURVE SMOOTH",
"486 818 LINE SMOOTH",
"380 864 OFFCURVE",
"288 922 OFFCURVE",
"288 1034 CURVE SMOOTH",
"288 1172 OFFCURVE",
"408 1266 OFFCURVE",
"578 1266 CURVE SMOOTH",
"678 1266 OFFCURVE",
"802 1228 OFFCURVE",
"908 1174 CURVE",
"942 1202 OFFCURVE",
"966 1252 OFFCURVE",
"966 1294 CURVE",
"862 1344 OFFCURVE",
"724 1390 OFFCURVE",
"572 1390 CURVE SMOOTH",
"306 1390 OFFCURVE",
"142 1220 OFFCURVE",
"142 1022 CURVE SMOOTH",
"142 864 OFFCURVE",
"240 762 OFFCURVE",
"410 688 CURVE SMOOTH",
"644 586 LINE SMOOTH",
"764 534 OFFCURVE",
"864 454 OFFCURVE",
"862 328 CURVE SMOOTH",
"860 188 OFFCURVE",
"738 104 OFFCURVE",
"548 104 CURVE SMOOTH",
"414 104 OFFCURVE",
"266 160 OFFCURVE",
"148 242 CURVE",
"116 218 OFFCURVE",
"84 170 OFFCURVE",
"80 126 CURVE"
);
}
);
width = 1110;
},
{
anchors = (
{
name = bottom_U;
position = "{540, -40}";
},
{
name = top_U;
position = "{570, 1464}";
}
);
layerId = UUID1;
paths = (
{
closed = 1;
nodes = (
"176 22 OFFCURVE",
"374 -30 OFFCURVE",
"536 -30 CURVE SMOOTH",
"888 -30 OFFCURVE",
"1066 158 OFFCURVE",
"1066 402 CURVE SMOOTH",
"1066 574 OFFCURVE",
"960 716 OFFCURVE",
"764 800 CURVE SMOOTH",
"522 902 LINE SMOOTH",
"436 938 OFFCURVE",
"412 974 OFFCURVE",
"412 1020 CURVE SMOOTH",
"412 1066 OFFCURVE",
"450 1128 OFFCURVE",
"560 1128 CURVE SMOOTH",
"668 1128 OFFCURVE",
"822 1078 OFFCURVE",
"924 1030 CURVE",
"988 1090 OFFCURVE",
"1030 1184 OFFCURVE",
"1036 1280 CURVE",
"932 1334 OFFCURVE",
"752 1396 OFFCURVE",
"560 1396 CURVE SMOOTH",
"288 1396 OFFCURVE",
"68 1228 OFFCURVE",
"68 974 CURVE SMOOTH",
"68 780 OFFCURVE",
"192 674 OFFCURVE",
"356 602 CURVE SMOOTH",
"592 502 LINE SMOOTH",
"702 454 OFFCURVE",
"710 398 OFFCURVE",
"710 362 CURVE SMOOTH",
"710 304 OFFCURVE",
"670 238 OFFCURVE",
"560 238 CURVE SMOOTH",
"416 238 OFFCURVE",
"266 302 OFFCURVE",
"154 368 CURVE",
"90 312 OFFCURVE",
"34 212 OFFCURVE",
"26 118 CURVE"
);
}
);
width = 1114;
}
);
leftKerningGroup = S;
rightKerningGroup = S;
unicode = 0053;
},
{
glyphname = T;
lastChange = "2018-11-23 02:18:52 +0000";
layers = (
{
anchors = (
{
name = bottom_U;
position = "{482, -40}";
},
{
name = top_U;
position = "{480, 1464}";
}
);
layerId = UUID0;
paths = (
{
closed = 1;
nodes = (
"302 1242 LINE SMOOTH",
"328 1242 OFFCURVE",
"384 1244 OFFCURVE",
"410 1244 CURVE SMOOTH",
"554 1244 LINE SMOOTH",
"580 1244 OFFCURVE",
"638 1242 OFFCURVE",
"662 1242 CURVE SMOOTH",
"840 1242 LINE SMOOTH",
"900 1242 OFFCURVE",
"928 1260 OFFCURVE",
"928 1306 CURVE SMOOTH",
"928 1326 OFFCURVE",
"924 1348 OFFCURVE",
"918 1366 CURVE",
"44 1366 LINE",
"40 1344 OFFCURVE",
"38 1324 OFFCURVE",
"38 1304 CURVE SMOOTH",
"38 1284 OFFCURVE",
"40 1262 OFFCURVE",
"44 1242 CURVE"
);
},
{
closed = 1;
nodes = (
"410 0 LINE",
"430 -4 OFFCURVE",
"458 -6 OFFCURVE",
"482 -6 CURVE SMOOTH",
"506 -6 OFFCURVE",
"534 -4 OFFCURVE",
"554 0 CURVE",
"554 1096 LINE SMOOTH",
"554 1150 OFFCURVE",
"554 1188 OFFCURVE",
"554 1244 CURVE SMOOTH",
"554 1304 LINE",
"410 1304 LINE",
"410 1244 LINE SMOOTH",
"410 1188 OFFCURVE",
"410 1150 OFFCURVE",
"410 1096 CURVE SMOOTH"
);
}
);
width = 962;
},
{
anchors = (
{
name = bottom_U;
position = "{514, -40}";
},
{
name = top_U;
position = "{514, 1464}";
}
);
layerId = UUID1;
paths = (
{
closed = 1;
nodes = (
"218 1088 LINE SMOOTH",
"248 1088 OFFCURVE",
"316 1090 OFFCURVE",
"346 1090 CURVE SMOOTH",
"682 1090 LINE SMOOTH",
"712 1090 OFFCURVE",
"780 1088 OFFCURVE",
"810 1088 CURVE SMOOTH",
"858 1088 LINE SMOOTH",
"978 1088 OFFCURVE",
"1032 1128 OFFCURVE",
"1032 1238 CURVE SMOOTH",
"1032 1280 OFFCURVE",
"1026 1332 OFFCURVE",
"1016 1366 CURVE",
"16 1366 LINE",
"6 1316 OFFCURVE",
"4 1264 OFFCURVE",
"4 1226 CURVE SMOOTH",
"4 1188 OFFCURVE",
"6 1138 OFFCURVE",
"16 1088 CURVE"
);
},
{
closed = 1;
nodes = (
"346 0 LINE",
"404 -10 OFFCURVE",
"468 -12 OFFCURVE",
"514 -12 CURVE SMOOTH",
"560 -12 OFFCURVE",
"624 -10 OFFCURVE",
"682 0 CURVE",
"682 942 LINE SMOOTH",
"682 996 OFFCURVE",
"680 1034 OFFCURVE",
"680 1090 CURVE SMOOTH",
"680 1228 LINE",
"348 1228 LINE",
"348 1090 LINE SMOOTH",
"348 1034 OFFCURVE",
"346 996 OFFCURVE",
"346 942 CURVE SMOOTH"
);
}
);
width = 1024;
}
);
leftKerningGroup = T;
rightKerningGroup = T;
unicode = 0054;
},
{
glyphname = U;
lastChange = "2018-11-23 02:18:52 +0000";
layers = (
{
anchors = (
{
name = bottom_U;
position = "{666, -40}";
},
{
name = top_U;
position = "{666, 1464}";
}
);
layerId = UUID0;
paths = (
{
closed = 1;
nodes = (
"1148 1366 LINE",
"1128 1370 OFFCURVE",
"1102 1372 OFFCURVE",
"1074 1372 CURVE SMOOTH",
"1048 1372 OFFCURVE",
"1022 1370 OFFCURVE",
"1004 1366 CURVE",
"1004 466 LINE",
"1004 224 OFFCURVE",
"878 96 OFFCURVE",
"666 96 CURVE",
"454 96 OFFCURVE",
"328 224 OFFCURVE",
"328 466 CURVE SMOOTH",
"328 1278 LINE SMOOTH",
"328 1340 OFFCURVE",
"318 1372 OFFCURVE",
"254 1372 CURVE SMOOTH",
"196 1372 LINE",
"184 1360 LINE",
"184 464 LINE SMOOTH",
"184 138 OFFCURVE",
"386 -24 OFFCURVE",
"664 -24 CURVE",
"946 -24 OFFCURVE",
"1148 138 OFFCURVE",
"1148 464 CURVE"
);
}
);
width = 1332;
},
{
anchors = (
{
name = bottom_U;
position = "{674, -40}";
},
{
name = top_U;
position = "{668, 1464}";
}
);
layerId = UUID1;
paths = (
{
closed = 1;
nodes = (
"1220 1366 LINE",
"1166 1376 OFFCURVE",
"1088 1378 OFFCURVE",
"1048 1378 CURVE SMOOTH",
"1004 1378 OFFCURVE",
"940 1376 OFFCURVE",
"884 1366 CURVE",
"884 504 LINE",
"884 326 OFFCURVE",
"830 236 OFFCURVE",
"674 236 CURVE",
"518 236 OFFCURVE",
"464 326 OFFCURVE",
"464 504 CURVE SMOOTH",
"464 1168 LINE SMOOTH",
"464 1318 OFFCURVE",
"392 1380 OFFCURVE",
"264 1380 CURVE SMOOTH",
"142 1380 LINE",
"128 1366 LINE",
"128 508 LINE SMOOTH",
"128 168 OFFCURVE",
"322 -30 OFFCURVE",
"674 -30 CURVE",
"1026 -30 OFFCURVE",
"1220 168 OFFCURVE",
"1220 508 CURVE"
);
}
);
width = 1348;
}
);
leftKerningGroup = U;
rightKerningGroup = U;
unicode = 0055;
},
{
glyphname = V;
lastChange = "2018-11-23 02:18:52 +0000";
layers = (
{
anchors = (
{
name = bottom_U;
position = "{558, -40}";
},
{
name = top_U;
position = "{568, 1464}";
}
);
layerId = UUID0;
paths = (
{
closed = 1;
nodes = (
"578 142 LINE",
"570 142 OFFCURVE",
"566 144 OFFCURVE",
"562 158 CURVE SMOOTH",
"534 256 OFFCURVE",
"494 404 OFFCURVE",
"468 490 CURVE SMOOTH",
"226 1308 LINE SMOOTH",
"210 1364 OFFCURVE",
"182 1378 OFFCURVE",
"146 1378 CURVE SMOOTH",
"116 1378 OFFCURVE",
"84 1368 OFFCURVE",
"56 1354 CURVE",
"446 68 LINE SMOOTH",
"466 0 OFFCURVE",
"502 -8 OFFCURVE",
"548 -8 CURVE SMOOTH",
"586 -8 OFFCURVE",
"616 -6 OFFCURVE",
"654 -2 CURVE",
"1064 1352 LINE",
"1058 1364 LINE",
"1042 1368 OFFCURVE",
"1018 1372 OFFCURVE",
"992 1372 CURVE SMOOTH",
"966 1372 OFFCURVE",
"946 1370 OFFCURVE",
"930 1366 CURVE"
);
}
);
width = 1108;
},
{
anchors = (
{
name = bottom_U;
position = "{608, -40}";
},
{
name = top_U;
position = "{614, 1464}";
}
);
layerId = UUID1;
paths = (
{
closed = 1;
nodes = (
"638 278 LINE",
"626 278 OFFCURVE",
"620 282 OFFCURVE",
"616 304 CURVE SMOOTH",
"598 422 OFFCURVE",
"574 550 OFFCURVE",
"542 670 CURVE SMOOTH",
"396 1218 LINE SMOOTH",
"366 1332 OFFCURVE",
"316 1384 OFFCURVE",
"216 1384 CURVE SMOOTH",
"142 1384 OFFCURVE",
"74 1362 OFFCURVE",
"14 1336 CURVE",
"342 138 LINE SMOOTH",
"378 10 OFFCURVE",
"456 -12 OFFCURVE",
"568 -12 CURVE SMOOTH",
"654 -12 OFFCURVE",
"758 -8 OFFCURVE",
"836 0 CURVE",
"1208 1338 LINE",
"1194 1356 LINE",
"1148 1372 OFFCURVE",
"1080 1378 OFFCURVE",
"1040 1378 CURVE SMOOTH",
"996 1378 OFFCURVE",
"944 1378 OFFCURVE",
"894 1366 CURVE"
);
}
);
width = 1222;
}
);
unicode = 0056;
},
{
glyphname = W;
lastChange = "2018-11-23 02:18:52 +0000";
layers = (
{
anchors = (
{
name = bottom_U;
position = "{824, -40}";
},
{
name = top_U;
position = "{824, 1464}";
}
);
layerId = UUID0;
paths = (
{
closed = 1;
nodes = (
"340 72 LINE",
"354 4 OFFCURVE",
"398 -8 OFFCURVE",
"442 -8 CURVE SMOOTH",
"476 -8 OFFCURVE",
"534 -6 OFFCURVE",
"570 0 CURVE",
"714 672 LINE SMOOTH",
"740 790 OFFCURVE",
"778 984 OFFCURVE",
"816 1184 CURVE",
"828 1184 LINE",
"864 984 OFFCURVE",
"902 786 OFFCURVE",
"924 672 CURVE SMOOTH",
"1038 70 LINE SMOOTH",
"1050 4 OFFCURVE",
"1084 -8 OFFCURVE",
"1128 -8 CURVE SMOOTH",
"1164 -8 OFFCURVE",
"1228 -6 OFFCURVE",
"1266 2 CURVE",
"1566 1354 LINE",
"1558 1364 LINE",
"1536 1370 OFFCURVE",
"1510 1372 OFFCURVE",
"1488 1372 CURVE SMOOTH",
"1466 1372 OFFCURVE",
"1440 1370 OFFCURVE",
"1422 1366 CURVE",
"1242 520 LINE SMOOTH",
"1224 434 OFFCURVE",
"1186 248 OFFCURVE",
"1164 118 CURVE",
"1154 118 OFFCURVE",
"1152 120 OFFCURVE",
"1148 138 CURVE SMOOTH",
"918 1336 LINE",
"898 1340 OFFCURVE",
"850 1342 OFFCURVE",
"824 1342 CURVE SMOOTH",
"800 1342 OFFCURVE",
"756 1340 OFFCURVE",
"728 1336 CURVE",
"476 118 LINE",
"466 118 OFFCURVE",
"464 118 OFFCURVE",
"460 138 CURVE SMOOTH",
"442 234 OFFCURVE",
"406 434 OFFCURVE",
"390 520 CURVE SMOOTH",
"238 1302 LINE SMOOTH",
"228 1356 OFFCURVE",
"208 1378 OFFCURVE",
"164 1378 CURVE SMOOTH",
"138 1378 OFFCURVE",
"114 1376 OFFCURVE",
"80 1360 CURVE"
);
}
);
width = 1632;
},
{
anchors = (
{
name = bottom_U;
position = "{912, -40}";
},
{
name = top_U;
position = "{912, 1464}";
}
);
layerId = UUID1;
paths = (
{
closed = 1;
nodes = (
"260 138 LINE",
"286 4 OFFCURVE",
"364 -12 OFFCURVE",
"472 -12 CURVE SMOOTH",
"564 -12 OFFCURVE",
"672 -6 OFFCURVE",
"752 2 CURVE",
"838 556 LINE SMOOTH",
"864 718 OFFCURVE",
"888 896 OFFCURVE",
"900 1016 CURVE",
"916 1016 LINE",
"924 896 OFFCURVE",
"946 716 OFFCURVE",
"970 556 CURVE SMOOTH",
"1034 138 LINE SMOOTH",
"1054 4 OFFCURVE",
"1138 -12 OFFCURVE",
"1238 -12 CURVE SMOOTH",
"1326 -12 OFFCURVE",
"1446 -6 OFFCURVE",
"1522 2 CURVE",
"1784 1336 LINE",
"1768 1356 LINE",
"1724 1370 OFFCURVE",
"1662 1378 OFFCURVE",
"1610 1378 CURVE SMOOTH",
"1564 1378 OFFCURVE",
"1510 1376 OFFCURVE",
"1460 1366 CURVE",
"1352 710 LINE SMOOTH",
"1328 570 OFFCURVE",
"1304 388 OFFCURVE",
"1294 280 CURVE",
"1282 280 OFFCURVE",
"1276 280 OFFCURVE",
"1272 308 CURVE SMOOTH",
"1126 1340 LINE",
"1062 1352 OFFCURVE",
"980 1356 OFFCURVE",
"912 1356 CURVE SMOOTH",
"846 1356 OFFCURVE",
"764 1352 OFFCURVE",
"698 1340 CURVE",
"540 280 LINE",
"526 280 OFFCURVE",
"522 282 OFFCURVE",
"520 308 CURVE SMOOTH",
"512 404 OFFCURVE",
"488 572 OFFCURVE",
"466 706 CURVE SMOOTH",
"388 1200 LINE SMOOTH",
"366 1344 OFFCURVE",
"320 1384 OFFCURVE",
"202 1384 CURVE SMOOTH",
"142 1384 OFFCURVE",
"74 1366 OFFCURVE",
"26 1346 CURVE"
);
}
);
width = 1822;
}
);
leftKerningGroup = W;
rightKerningGroup = W;
unicode = 0057;
},
{
glyphname = X;
lastChange = "2018-11-23 02:18:52 +0000";
layers = (
{
anchors = (
{
name = bottom_U;
position = "{568, -40}";
},
{
name = top_U;
position = "{580, 1464}";
}
);
layerId = UUID0;
paths = (
{
closed = 1;
nodes = (
"902 48 LINE",
"930 4 OFFCURVE",
"962 -12 OFFCURVE",
"992 -12 CURVE SMOOTH",
"1022 -12 OFFCURVE",
"1058 -2 OFFCURVE",
"1090 22 CURVE",
"294 1318 LINE SMOOTH",
"266 1362 OFFCURVE",
"234 1378 OFFCURVE",
"204 1378 CURVE SMOOTH",
"174 1378 OFFCURVE",
"138 1368 OFFCURVE",
"106 1344 CURVE"
);
},
{
closed = 1;
nodes = (
"566 812 LINE",
"506 750 LINE",
"48 18 LINE",
"54 6 LINE",
"68 -2 OFFCURVE",
"98 -8 OFFCURVE",
"128 -8 CURVE SMOOTH",
"148 -8 OFFCURVE",
"182 -4 OFFCURVE",
"192 0 CURVE",
"580 636 LINE",
"640 696 LINE",
"1046 1348 LINE",
"1040 1360 LINE",
"1026 1368 OFFCURVE",
"996 1374 OFFCURVE",
"966 1374 CURVE SMOOTH",
"946 1374 OFFCURVE",
"916 1370 OFFCURVE",
"906 1366 CURVE"
);
}
);
width = 1138;
},
{
anchors = (
{
name = bottom_U;
position = "{610, -40}";
},
{
name = top_U;
position = "{628, 1464}";
}
);
layerId = UUID1;
paths = (
{
closed = 1;
nodes = (
"792 112 LINE",
"856 12 OFFCURVE",
"912 -20 OFFCURVE",
"1008 -20 CURVE SMOOTH",
"1078 -20 OFFCURVE",
"1160 8 OFFCURVE",
"1226 52 CURVE",
"474 1256 LINE SMOOTH",
"412 1354 OFFCURVE",
"358 1386 OFFCURVE",
"262 1386 CURVE SMOOTH",
"192 1386 OFFCURVE",
"110 1358 OFFCURVE",
"44 1314 CURVE"
);
},
{
closed = 1;
nodes = (
"618 950 LINE",
"482 798 LINE",
"14 34 LINE",
"22 16 LINE",
"70 0 OFFCURVE",
"138 -12 OFFCURVE",
"202 -12 CURVE SMOOTH",
"260 -12 OFFCURVE",
"306 -8 OFFCURVE",
"342 0 CURVE",
"622 474 LINE",
"758 628 LINE",
"1186 1334 LINE",
"1178 1350 LINE",
"1134 1366 OFFCURVE",
"1066 1378 OFFCURVE",
"1002 1378 CURVE SMOOTH",
"944 1378 OFFCURVE",
"898 1374 OFFCURVE",
"862 1366 CURVE"
);
}
);
width = 1240;
}
);
unicode = 0058;
},
{
glyphname = Y;
lastChange = "2018-11-23 02:18:52 +0000";
layers = (
{
anchors = (
{
name = bottom_U;
position = "{478, -40}";
},
{
name = top_U;
position = "{486, 1464}";
}
);
layerId = UUID0;
paths = (
{
closed = 1;
nodes = (
"408 0 LINE",
"426 -4 OFFCURVE",
"452 -6 OFFCURVE",
"478 -6 CURVE SMOOTH",
"506 -6 OFFCURVE",
"532 -4 OFFCURVE",
"552 0 CURVE",
"552 538 LINE",
"408 538 LINE"
);
},
{
closed = 1;
nodes = (
"576 832 LINE SMOOTH",
"562 796 OFFCURVE",
"514 672 OFFCURVE",
"494 606 CURVE",
"484 606 LINE",
"464 670 OFFCURVE",
"430 770 OFFCURVE",
"404 832 CURVE SMOOTH",
"206 1310 LINE SMOOTH",
"188 1356 OFFCURVE",
"166 1380 OFFCURVE",
"126 1380 CURVE SMOOTH",
"102 1380 OFFCURVE",
"74 1374 OFFCURVE",
"32 1350 CURVE",
"428 404 LINE",
"534 404 LINE",
"928 1352 LINE",
"922 1364 LINE",
"900 1370 OFFCURVE",
"878 1374 OFFCURVE",
"852 1374 CURVE SMOOTH",
"832 1374 OFFCURVE",
"808 1372 OFFCURVE",
"788 1366 CURVE"
);
}
);
width = 956;
},
{
anchors = (
{
name = bottom_U;
position = "{550, -40}";
},
{
name = top_U;
position = "{554, 1464}";
}
);
layerId = UUID1;
paths = (
{
closed = 1;
nodes = (
"380 0 LINE",
"434 -10 OFFCURVE",
"510 -12 OFFCURVE",
"550 -12 CURVE SMOOTH",
"594 -12 OFFCURVE",
"660 -10 OFFCURVE",
"716 0 CURVE",
"716 618 LINE",
"380 618 LINE"
);
},
{
closed = 1;
nodes = (
"662 1044 LINE SMOOTH",
"624 948 OFFCURVE",
"588 844 OFFCURVE",
"562 740 CURVE",
"550 740 LINE",
"522 852 OFFCURVE",
"492 946 OFFCURVE",
"458 1032 CURVE SMOOTH",
"372 1250 LINE SMOOTH",
"334 1344 OFFCURVE",
"290 1382 OFFCURVE",
"196 1382 CURVE SMOOTH",
"124 1382 OFFCURVE",
"48 1358 OFFCURVE",
"-8 1326 CURVE",
"400 380 LINE",
"700 380 LINE",
"1104 1336 LINE",
"1090 1354 LINE",
"1046 1370 OFFCURVE",
"982 1378 OFFCURVE",
"926 1378 CURVE SMOOTH",
"882 1378 OFFCURVE",
"836 1376 OFFCURVE",
"790 1366 CURVE"
);
}
);
width = 1096;
}
);
leftKerningGroup = Y;
rightKerningGroup = Y;
unicode = 0059;
},
{
glyphname = Z;
lastChange = "2018-11-23 02:18:52 +0000";
layers = (
{
anchors = (
{
name = bottom_U;
position = "{556, -40}";
},
{
name = top_U;
position = "{562, 1464}";
}
);
layerId = UUID0;
paths = (
{
closed = 1;
nodes = (
"130 172 LINE",
"114 146 OFFCURVE",
"108 120 OFFCURVE",
"108 98 CURVE SMOOTH",
"108 80 OFFCURVE",
"110 62 OFFCURVE",
"130 0 CURVE",
"886 0 LINE SMOOTH",
"968 0 OFFCURVE",
"994 34 OFFCURVE",
"994 86 CURVE SMOOTH",
"994 112 OFFCURVE",
"988 138 OFFCURVE",
"980 162 CURVE",
"928 138 OFFCURVE",
"848 130 OFFCURVE",
"738 130 CURVE SMOOTH",
"468 130 LINE SMOOTH",
"420 130 OFFCURVE",
"348 128 OFFCURVE",
"264 120 CURVE",
"258 126 LINE",
"310 202 OFFCURVE",
"370 286 OFFCURVE",
"416 358 CURVE SMOOTH",
"954 1198 LINE SMOOTH",
"970 1224 OFFCURVE",
"978 1246 OFFCURVE",
"978 1266 CURVE SMOOTH",
"978 1284 OFFCURVE",
"974 1306 OFFCURVE",
"956 1366 CURVE",
"170 1366 LINE",
"162 1340 OFFCURVE",
"158 1314 OFFCURVE",
"158 1288 CURVE SMOOTH",
"158 1272 OFFCURVE",
"160 1254 OFFCURVE",
"164 1238 CURVE",
"508 1238 LINE",
"556 1238 OFFCURVE",
"776 1242 OFFCURVE",
"822 1252 CURVE",
"828 1246 LINE",
"768 1160 OFFCURVE",
"718 1092 OFFCURVE",
"674 1024 CURVE SMOOTH"
);
}
);
width = 1102;
},
{
anchors = (
{
name = bottom_U;
position = "{572, -40}";
},
{
name = top_U;
position = "{578, 1464}";
}
);
layerId = UUID1;
paths = (
{
closed = 1;
nodes = (
"112 322 LINE",
"86 286 OFFCURVE",
"72 240 OFFCURVE",
"72 200 CURVE SMOOTH",
"72 172 OFFCURVE",
"76 148 OFFCURVE",
"108 0 CURVE",
"874 0 LINE SMOOTH",
"1000 0 OFFCURVE",
"1092 56 OFFCURVE",
"1092 176 CURVE SMOOTH",
"1092 228 OFFCURVE",
"1082 286 OFFCURVE",
"1070 326 CURVE",
"1016 300 OFFCURVE",
"942 278 OFFCURVE",
"846 278 CURVE SMOOTH",
"748 278 LINE SMOOTH",
"660 278 OFFCURVE",
"526 270 OFFCURVE",
"440 264 CURVE",
"434 270 LINE",
"486 322 OFFCURVE",
"552 402 OFFCURVE",
"590 454 CURVE SMOOTH",
"1028 1046 LINE SMOOTH",
"1056 1086 OFFCURVE",
"1064 1124 OFFCURVE",
"1064 1162 CURVE SMOOTH",
"1064 1186 OFFCURVE",
"1062 1208 OFFCURVE",
"1018 1366 CURVE",
"124 1366 LINE",
"110 1310 OFFCURVE",
"102 1264 OFFCURVE",
"102 1206 CURVE SMOOTH",
"102 1170 OFFCURVE",
"104 1134 OFFCURVE",
"114 1094 CURVE",
"396 1094 LINE",
"480 1094 OFFCURVE",
"606 1100 OFFCURVE",
"704 1112 CURVE",
"710 1106 LINE",
"660 1054 OFFCURVE",
"586 964 OFFCURVE",
"548 912 CURVE SMOOTH"
);
}
);
width = 1164;
}
);
leftKerningGroup = Z;
rightKerningGroup = Z;
unicode = 005A;
},
{
glyphname = a;
lastChange = "2018-11-23 02:18:52 +0000";
layers = (
{
anchors = (
{
name = bottom;
position = "{492, -40}";
},
{
name = top;
position = "{482, 1084}";
}
);
layerId = UUID0;
paths = (
{
closed = 1;
nodes = (
"104 124 OFFCURVE",
"198 -24 OFFCURVE",
"392 -24 CURVE SMOOTH",
"564 -24 OFFCURVE",
"696 110 OFFCURVE",
"764 190 CURVE",
"740 322 LINE",
"654 170 OFFCURVE",
"516 96 OFFCURVE",
"408 96 CURVE SMOOTH",
"302 96 OFFCURVE",
"246 176 OFFCURVE",
"246 276 CURVE SMOOTH",
"246 406 OFFCURVE",
"336 480 OFFCURVE",
"478 480 CURVE SMOOTH",
"570 480 OFFCURVE",
"670 474 OFFCURVE",
"750 456 CURVE",
"750 556 LINE",
"664 578 OFFCURVE",
"562 586 OFFCURVE",
"478 586 CURVE SMOOTH",
"254 586 OFFCURVE",
"104 486 OFFCURVE",
"104 266 CURVE SMOOTH"
);
},
{
closed = 1;
nodes = (
"842 106 OFFCURVE",
"836 170 OFFCURVE",
"836 256 CURVE SMOOTH",
"836 668 LINE SMOOTH",
"836 882 OFFCURVE",
"738 1000 OFFCURVE",
"528 1000 CURVE SMOOTH",
"388 1000 OFFCURVE",
"238 950 OFFCURVE",
"140 906 CURVE",
"140 868 OFFCURVE",
"164 818 OFFCURVE",
"190 796 CURVE",
"296 844 OFFCURVE",
"408 880 OFFCURVE",
"518 880 CURVE SMOOTH",
"630 880 OFFCURVE",
"702 824 OFFCURVE",
"702 672 CURVE SMOOTH",
"702 206 LINE",
"702 102 OFFCURVE",
"732 24 OFFCURVE",
"826 -14 CURVE",
"856 0 OFFCURVE",
"882 32 OFFCURVE",
"892 58 CURVE"
);
}
);
width = 1006;
},
{
anchors = (
{
name = bottom;
position = "{512, -40}";
},
{
name = top;
position = "{502, 1084}";
}
);
layerId = UUID1;
paths = (
{
closed = 1;
nodes = (
"56 130 OFFCURVE",
"154 -30 OFFCURVE",
"362 -30 CURVE SMOOTH",
"542 -30 OFFCURVE",
"644 68 OFFCURVE",
"724 162 CURVE",
"678 366 LINE",
"624 270 OFFCURVE",
"538 210 OFFCURVE",
"460 210 CURVE SMOOTH",
"408 210 OFFCURVE",
"374 246 OFFCURVE",
"374 296 CURVE SMOOTH",
"374 366 OFFCURVE",
"406 416 OFFCURVE",
"490 416 CURVE SMOOTH",
"540 416 OFFCURVE",
"632 416 OFFCURVE",
"688 404 CURVE",
"688 610 LINE",
"616 624 OFFCURVE",
"512 624 OFFCURVE",
"454 624 CURVE SMOOTH",
"250 624 OFFCURVE",
"56 516 OFFCURVE",
"56 274 CURVE SMOOTH"
);
},
{
closed = 1;
nodes = (
"936 178 OFFCURVE",
"918 220 OFFCURVE",
"918 276 CURVE SMOOTH",
"918 682 LINE SMOOTH",
"918 938 OFFCURVE",
"730 1024 OFFCURVE",
"558 1024 CURVE SMOOTH",
"430 1024 OFFCURVE",
"232 992 OFFCURVE",
"94 936 CURVE",
"102 856 OFFCURVE",
"126 764 OFFCURVE",
"172 710 CURVE",
"276 740 OFFCURVE",
"380 772 OFFCURVE",
"464 772 CURVE SMOOTH",
"552 772 OFFCURVE",
"590 730 OFFCURVE",
"590 652 CURVE SMOOTH",
"590 228 LINE",
"610 122 OFFCURVE",
"692 -16 OFFCURVE",
"876 -16 CURVE",
"916 16 OFFCURVE",
"962 94 OFFCURVE",
"974 152 CURVE"
);
}
);
width = 1028;
}
);
leftKerningGroup = a;
rightKerningGroup = a;
unicode = 0061;
},
{
glyphname = b;
lastChange = "2018-11-23 02:18:52 +0000";
layers = (
{
anchors = (
{
name = bottom;
position = "{522, -40}";
},
{
name = top;
position = "{522, 1084}";
}
);
layerId = UUID0;
paths = (
{
closed = 1;
nodes = (
"316 1374 LINE",
"316 1436 OFFCURVE",
"306 1470 OFFCURVE",
"242 1470 CURVE SMOOTH",
"192 1470 LINE",
"180 1458 LINE",
"180 50 LINE",
"316 50 LINE"
);
},
{
closed = 1;
nodes = (
"942 792 OFFCURVE",
"826 996 OFFCURVE",
"602 996 CURVE SMOOTH",
"432 996 OFFCURVE",
"306 876 OFFCURVE",
"258 800 CURVE",
"280 674 LINE",
"338 782 OFFCURVE",
"460 874 OFFCURVE",
"584 874 CURVE SMOOTH",
"698 874 OFFCURVE",
"802 766 OFFCURVE",
"802 502 CURVE SMOOTH",
"802 222 OFFCURVE",
"672 94 OFFCURVE",
"524 94 CURVE SMOOTH",
"416 94 OFFCURVE",
"340 114 OFFCURVE",
"252 164 CURVE",
"180 50 LINE",
"294 8 OFFCURVE",
"408 -14 OFFCURVE",
"526 -14 CURVE SMOOTH",
"732 -14 OFFCURVE",
"942 136 OFFCURVE",
"942 502 CURVE SMOOTH"
);
}
);
width = 1046;
},
{
anchors = (
{
name = bottom;
position = "{522, -40}";
},
{
name = top;
position = "{522, 1084}";
}
);
layerId = UUID1;
paths = (
{
closed = 1;
nodes = (
"434 1276 LINE",
"434 1422 OFFCURVE",
"380 1472 OFFCURVE",
"252 1472 CURVE SMOOTH",
"128 1472 LINE",
"114 1458 LINE",
"114 50 LINE",
"434 50 LINE"
);
},
{
closed = 1;
nodes = (
"1016 806 OFFCURVE",
"898 1020 OFFCURVE",
"660 1020 CURVE SMOOTH",
"522 1020 OFFCURVE",
"426 964 OFFCURVE",
"342 884 CURVE",
"388 638 LINE",
"436 728 OFFCURVE",
"508 760 OFFCURVE",
"560 758 CURVE SMOOTH",
"644 756 OFFCURVE",
"680 682 OFFCURVE",
"680 508 CURVE SMOOTH",
"680 330 OFFCURVE",
"636 216 OFFCURVE",
"516 216 CURVE SMOOTH",
"426 216 OFFCURVE",
"342 242 OFFCURVE",
"268 290 CURVE",
"114 50 LINE",
"220 8 OFFCURVE",
"362 -18 OFFCURVE",
"510 -18 CURVE SMOOTH",
"824 -18 OFFCURVE",
"1018 192 OFFCURVE",
"1016 514 CURVE SMOOTH"
);
}
);
width = 1072;
}
);
unicode = 0062;
},
{
glyphname = c;
lastChange = "2018-11-23 02:18:52 +0000";
layers = (
{
anchors = (
{
name = bottom;
position = "{494, -40}";
},
{
name = top;
position = "{502, 1084}";
}
);
layerId = UUID0;
paths = (
{
closed = 1;
nodes = (
"738 634 OFFCURVE",
"756 632 OFFCURVE",
"776 632 CURVE SMOOTH",
"840 632 OFFCURVE",
"850 674 OFFCURVE",
"850 722 CURVE SMOOTH",
"850 822 OFFCURVE",
"762 1004 OFFCURVE",
"506 1004 CURVE SMOOTH",
"300 1004 OFFCURVE",
"106 842 OFFCURVE",
"106 482 CURVE SMOOTH",
"106 234 OFFCURVE",
"208 -24 OFFCURVE",
"494 -24 CURVE SMOOTH",
"634 -24 OFFCURVE",
"746 34 OFFCURVE",
"838 120 CURVE",
"830 154 OFFCURVE",
"798 192 OFFCURVE",
"770 210 CURVE",
"696 154 OFFCURVE",
"612 98 OFFCURVE",
"512 98 CURVE SMOOTH",
"350 98 OFFCURVE",
"252 224 OFFCURVE",
"252 482 CURVE SMOOTH",
"252 750 OFFCURVE",
"354 892 OFFCURVE",
"502 892 CURVE SMOOTH",
"674 892 OFFCURVE",
"724 752 OFFCURVE",
"716 638 CURVE"
);
}
);
width = 938;
},
{
anchors = (
{
name = bottom;
position = "{502, -40}";
},
{
name = top;
position = "{504, 1084}";
}
);
layerId = UUID1;
paths = (
{
closed = 1;
nodes = (
"650 540 OFFCURVE",
"686 536 OFFCURVE",
"742 536 CURVE SMOOTH",
"832 536 OFFCURVE",
"902 584 OFFCURVE",
"902 694 CURVE SMOOTH",
"902 900 OFFCURVE",
"730 1030 OFFCURVE",
"508 1030 CURVE SMOOTH",
"288 1030 OFFCURVE",
"56 888 OFFCURVE",
"56 498 CURVE SMOOTH",
"56 172 OFFCURVE",
"214 -30 OFFCURVE",
"502 -30 CURVE SMOOTH",
"650 -30 OFFCURVE",
"806 30 OFFCURVE",
"894 124 CURVE",
"880 188 OFFCURVE",
"824 276 OFFCURVE",
"772 306 CURVE",
"710 262 OFFCURVE",
"632 224 OFFCURVE",
"556 224 CURVE SMOOTH",
"446 224 OFFCURVE",
"390 290 OFFCURVE",
"390 498 CURVE SMOOTH",
"390 702 OFFCURVE",
"414 788 OFFCURVE",
"502 788 CURVE SMOOTH",
"600 788 OFFCURVE",
"610 706 OFFCURVE",
"610 548 CURVE"
);
}
);
width = 950;
}
);
leftKerningGroup = c;
rightKerningGroup = c;
unicode = 0063;
},
{
glyphname = d;
lastChange = "2018-11-23 02:18:52 +0000";
layers = (
{
anchors = (
{
name = bottom;
position = "{524, -40}";
},
{
name = top;
position = "{524, 1084}";
}
);
layerId = UUID0;
paths = (
{
closed = 1;
nodes = (
"866 1374 LINE",
"866 1436 OFFCURVE",
"856 1470 OFFCURVE",
"792 1470 CURVE SMOOTH",
"742 1470 LINE",
"730 1458 LINE",
"730 226 LINE SMOOTH",
"730 122 OFFCURVE",
"754 26 OFFCURVE",
"856 -14 CURVE",
"886 0 OFFCURVE",
"912 32 OFFCURVE",
"922 58 CURVE",
"872 106 OFFCURVE",
"866 190 OFFCURVE",
"866 276 CURVE SMOOTH"
);
},
{
closed = 1;
nodes = (
"104 180 OFFCURVE",
"220 -24 OFFCURVE",
"438 -24 CURVE SMOOTH",
"620 -24 OFFCURVE",
"754 104 OFFCURVE",
"804 222 CURVE",
"780 360 LINE",
"730 200 OFFCURVE",
"588 98 OFFCURVE",
"464 98 CURVE SMOOTH",
"350 98 OFFCURVE",
"244 206 OFFCURVE",
"244 478 CURVE SMOOTH",
"244 760 OFFCURVE",
"366 874 OFFCURVE",
"488 874 CURVE SMOOTH",
"610 874 OFFCURVE",
"716 796 OFFCURVE",
"792 738 CURVE",
"798 864 LINE",
"702 940 OFFCURVE",
"596 996 OFFCURVE",
"476 996 CURVE SMOOTH",
"304 996 OFFCURVE",
"104 844 OFFCURVE",
"104 478 CURVE SMOOTH"
);
}
);
width = 1048;
},
{
anchors = (
{
name = bottom;
position = "{528, -40}";
},
{
name = top;
position = "{524, 1084}";
}
);
layerId = UUID1;
paths = (
{
closed = 1;
nodes = (
"962 1276 LINE",
"962 1422 OFFCURVE",
"912 1472 OFFCURVE",
"784 1472 CURVE SMOOTH",
"656 1472 LINE",
"642 1458 LINE",
"642 290 LINE SMOOTH",
"642 118 OFFCURVE",
"738 -16 OFFCURVE",
"920 -16 CURVE",
"960 16 OFFCURVE",
"1006 94 OFFCURVE",
"1018 152 CURVE",
"986 174 OFFCURVE",
"962 228 OFFCURVE",
"962 290 CURVE SMOOTH"
);
},
{
closed = 1;
nodes = (
"60 184 OFFCURVE",
"176 -30 OFFCURVE",
"422 -30 CURVE SMOOTH",
"620 -30 OFFCURVE",
"782 138 OFFCURVE",
"798 304 CURVE",
"724 484 LINE",
"670 268 OFFCURVE",
"566 232 OFFCURVE",
"508 232 CURVE SMOOTH",
"442 232 OFFCURVE",
"396 308 OFFCURVE",
"396 486 CURVE SMOOTH",
"396 662 OFFCURVE",
"428 778 OFFCURVE",
"522 778 CURVE SMOOTH",
"582 778 OFFCURVE",
"664 728 OFFCURVE",
"742 664 CURVE",
"796 894 LINE",
"708 946 OFFCURVE",
"604 1020 OFFCURVE",
"464 1020 CURVE SMOOTH",
"240 1020 OFFCURVE",
"60 830 OFFCURVE",
"60 488 CURVE SMOOTH"
);
}
);
width = 1080;
}
);
leftKerningGroup = d;
unicode = 0064;
},
{
glyphname = e;
lastChange = "2018-11-23 02:18:52 +0000";
layers = (
{
anchors = (
{
name = bottom;
position = "{506, -40}";
},
{
name = top;
position = "{510, 1084}";
}
);
layerId = UUID0;
paths = (
{
closed = 1;
nodes = (
"880 448 LINE",
"886 496 OFFCURVE",
"888 528 OFFCURVE",
"888 576 CURVE SMOOTH",
"888 812 OFFCURVE",
"760 1004 OFFCURVE",
"504 1004 CURVE SMOOTH",
"252 1004 OFFCURVE",
"106 788 OFFCURVE",
"106 492 CURVE SMOOTH",
"106 218 OFFCURVE",
"202 -24 OFFCURVE",
"498 -24 CURVE SMOOTH",
"634 -24 OFFCURVE",
"768 24 OFFCURVE",
"860 88 CURVE",
"856 118 OFFCURVE",
"834 162 OFFCURVE",
"808 186 CURVE",
"720 136 OFFCURVE",
"624 100 OFFCURVE",
"516 100 CURVE SMOOTH",
"318 100 OFFCURVE",
"254 258 OFFCURVE",
"254 480 CURVE SMOOTH",
"254 524 LINE SMOOTH",
"254 746 OFFCURVE",
"342 896 OFFCURVE",
"504 896 CURVE SMOOTH",
"678 896 OFFCURVE",
"746 754 OFFCURVE",
"746 584 CURVE SMOOTH",
"746 556 LINE",
"190 556 LINE",
"190 448 LINE"
);
}
);
width = 1006;
},
{
anchors = (
{
name = bottom;
position = "{508, -40}";
},
{
name = top;
position = "{510, 1084}";
}
);
layerId = UUID1;
paths = (
{
closed = 1;
nodes = (
"900 394 LINE",
"920 462 OFFCURVE",
"928 514 OFFCURVE",
"928 606 CURVE SMOOTH",
"928 848 OFFCURVE",
"772 1030 OFFCURVE",
"508 1030 CURVE SMOOTH",
"184 1030 OFFCURVE",
"56 794 OFFCURVE",
"56 492 CURVE SMOOTH",
"56 228 OFFCURVE",
"150 -30 OFFCURVE",
"506 -30 CURVE SMOOTH",
"648 -30 OFFCURVE",
"800 10 OFFCURVE",
"902 84 CURVE",
"892 148 OFFCURVE",
"864 228 OFFCURVE",
"816 276 CURVE",
"736 244 OFFCURVE",
"648 218 OFFCURVE",
"560 218 CURVE SMOOTH",
"402 218 OFFCURVE",
"384 336 OFFCURVE",
"384 466 CURVE SMOOTH",
"384 564 LINE SMOOTH",
"384 726 OFFCURVE",
"414 798 OFFCURVE",
"506 798 CURVE SMOOTH",
"594 798 OFFCURVE",
"628 726 OFFCURVE",
"628 640 CURVE SMOOTH",
"628 618 LINE",
"266 618 LINE",
"266 394 LINE"
);
}
);
width = 992;
}
);
leftKerningGroup = c;
rightKerningGroup = e;
unicode = 0065;
},
{
glyphname = f;
lastChange = "2018-11-23 02:18:52 +0000";
layers = (
{
anchors = (
{
name = bottom;
position = "{286, -40}";
},
{
name = top;
position = "{320, 1084}";
}
);
layerId = UUID0;
paths = (
{
closed = 1;
nodes = (
"46 982 LINE",
"42 962 OFFCURVE",
"40 948 OFFCURVE",
"40 928 CURVE SMOOTH",
"40 908 OFFCURVE",
"42 892 OFFCURVE",
"46 874 CURVE",
"284 878 LINE",
"640 874 LINE",
"644 892 OFFCURVE",
"646 908 OFFCURVE",
"646 928 CURVE SMOOTH",
"646 948 OFFCURVE",
"644 962 OFFCURVE",
"640 982 CURVE",
"282 978 LINE"
);
},
{
closed = 1;
nodes = (
"218 0 LINE",
"238 -4 OFFCURVE",
"264 -6 OFFCURVE",
"286 -6 CURVE SMOOTH",
"308 -6 OFFCURVE",
"334 -4 OFFCURVE",
"354 0 CURVE",
"354 914 LINE",
"340 1014 OFFCURVE",
"328 1102 OFFCURVE",
"328 1184 CURVE SMOOTH",
"328 1304 OFFCURVE",
"388 1372 OFFCURVE",
"486 1372 CURVE SMOOTH",
"544 1372 OFFCURVE",
"610 1358 OFFCURVE",
"670 1340 CURVE",
"692 1364 OFFCURVE",
"704 1402 OFFCURVE",
"704 1436 CURVE",
"648 1458 OFFCURVE",
"550 1478 OFFCURVE",
"482 1478 CURVE SMOOTH",
"294 1478 OFFCURVE",
"198 1352 OFFCURVE",
"198 1190 CURVE SMOOTH",
"198 1114 OFFCURVE",
"210 1018 OFFCURVE",
"218 918 CURVE"
);
}
);
width = 636;
},
{
anchors = (
{
name = bottom;
position = "{330, -40}";
},
{
name = top;
position = "{336, 1084}";
}
);
layerId = UUID1;
paths = (
{
closed = 1;
nodes = (
"0 1002 LINE",
"-8 966 OFFCURVE",
"-12 924 OFFCURVE",
"-12 888 CURVE SMOOTH",
"-12 852 OFFCURVE",
"-8 806 OFFCURVE",
"0 770 CURVE",
"328 776 LINE",
"728 770 LINE",
"736 806 OFFCURVE",
"740 852 OFFCURVE",
"740 888 CURVE SMOOTH",
"740 924 OFFCURVE",
"736 966 OFFCURVE",
"728 1002 CURVE",
"332 998 LINE"
);
},
{
closed = 1;
nodes = (
"172 0 LINE",
"222 -8 OFFCURVE",
"278 -12 OFFCURVE",
"330 -12 CURVE SMOOTH",
"384 -12 OFFCURVE",
"442 -8 OFFCURVE",
"492 0 CURVE",
"492 862 LINE",
"482 934 OFFCURVE",
"460 1028 OFFCURVE",
"460 1102 CURVE SMOOTH",
"460 1190 OFFCURVE",
"508 1234 OFFCURVE",
"592 1234 CURVE SMOOTH",
"646 1234 OFFCURVE",
"706 1218 OFFCURVE",
"744 1208 CURVE",
"786 1252 OFFCURVE",
"816 1350 OFFCURVE",
"814 1424 CURVE",
"744 1450 OFFCURVE",
"630 1480 OFFCURVE",
"500 1480 CURVE SMOOTH",
"290 1480 OFFCURVE",
"146 1328 OFFCURVE",
"146 1126 CURVE SMOOTH",
"146 1034 OFFCURVE",
"164 950 OFFCURVE",
"172 864 CURVE"
);
}
);
width = 722;
}
);
leftKerningGroup = f;
unicode = 0066;
},
{
glyphname = g;
lastChange = "2018-11-23 02:18:52 +0000";
layers = (
{
anchors = (
{
name = bottom;
position = "{510, -464}";
},
{
name = top;
position = "{514, 1084}";
}
);
layerId = UUID0;
paths = (
{
closed = 1;
nodes = (
"914 948 OFFCURVE",
"888 980 OFFCURVE",
"858 994 CURVE",
"756 954 OFFCURVE",
"736 858 OFFCURVE",
"736 754 CURVE",
"736 0 LINE SMOOTH",
"736 -172 OFFCURVE",
"702 -326 OFFCURVE",
"462 -326 CURVE SMOOTH",
"390 -326 OFFCURVE",
"270 -302 OFFCURVE",
"188 -262 CURVE",
"166 -288 OFFCURVE",
"150 -334 OFFCURVE",
"148 -372 CURVE",
"232 -408 OFFCURVE",
"354 -440 OFFCURVE",
"476 -440 CURVE SMOOTH",
"620 -440 OFFCURVE",
"724 -382 OFFCURVE",
"778 -316 CURVE SMOOTH",
"842 -238 OFFCURVE",
"868 -128 OFFCURVE",
"868 70 CURVE SMOOTH",
"868 704 LINE SMOOTH",
"868 790 OFFCURVE",
"874 874 OFFCURVE",
"924 922 CURVE"
);
},
{
closed = 1;
nodes = (
"104 184 OFFCURVE",
"220 -16 OFFCURVE",
"444 -16 CURVE SMOOTH",
"614 -16 OFFCURVE",
"740 108 OFFCURVE",
"788 184 CURVE",
"766 306 LINE",
"708 198 OFFCURVE",
"586 106 OFFCURVE",
"462 106 CURVE SMOOTH",
"344 106 OFFCURVE",
"244 216 OFFCURVE",
"244 488 CURVE SMOOTH",
"244 768 OFFCURVE",
"362 882 OFFCURVE",
"492 882 CURVE SMOOTH",
"610 882 OFFCURVE",
"730 806 OFFCURVE",
"796 720 CURVE",
"810 846 LINE",
"732 928 OFFCURVE",
"636 1004 OFFCURVE",
"474 1004 CURVE SMOOTH",
"304 1004 OFFCURVE",
"104 850 OFFCURVE",
"104 488 CURVE SMOOTH"
);
}
);
width = 1046;
},
{
anchors = (
{
name = bottom;
position = "{528, -464}";
},
{
name = top;
position = "{548, 1084}";
}
);
layerId = UUID1;
paths = (
{
closed = 1;
nodes = (
"1012 906 OFFCURVE",
"962 984 OFFCURVE",
"922 1016 CURVE",
"740 1016 OFFCURVE",
"644 882 OFFCURVE",
"644 710 CURVE",
"644 -8 LINE SMOOTH",
"644 -126 OFFCURVE",
"586 -200 OFFCURVE",
"448 -200 CURVE SMOOTH",
"358 -200 OFFCURVE",
"264 -178 OFFCURVE",
"178 -140 CURVE",
"132 -194 OFFCURVE",
"98 -300 OFFCURVE",
"98 -376 CURVE",
"204 -416 OFFCURVE",
"352 -442 OFFCURVE",
"478 -442 CURVE SMOOTH",
"640 -442 OFFCURVE",
"778 -398 OFFCURVE",
"860 -294 CURVE SMOOTH",
"922 -214 OFFCURVE",
"964 -96 OFFCURVE",
"964 192 CURVE SMOOTH",
"964 710 LINE SMOOTH",
"964 772 OFFCURVE",
"988 826 OFFCURVE",
"1020 848 CURVE"
);
},
{
closed = 1;
nodes = (
"60 194 OFFCURVE",
"176 -20 OFFCURVE",
"422 -20 CURVE SMOOTH",
"560 -20 OFFCURVE",
"690 60 OFFCURVE",
"758 176 CURVE",
"712 402 LINE",
"660 294 OFFCURVE",
"582 242 OFFCURVE",
"506 242 CURVE SMOOTH",
"442 242 OFFCURVE",
"396 318 OFFCURVE",
"396 496 CURVE SMOOTH",
"396 674 OFFCURVE",
"428 788 OFFCURVE",
"522 788 CURVE SMOOTH",
"590 788 OFFCURVE",
"684 710 OFFCURVE",
"762 560 CURVE",
"816 826 LINE",
"768 914 OFFCURVE",
"662 1030 OFFCURVE",
"464 1030 CURVE SMOOTH",
"242 1030 OFFCURVE",
"60 840 OFFCURVE",
"60 498 CURVE SMOOTH"
);
}
);
width = 1074;
}
);
leftKerningGroup = d;
unicode = 0067;
},
{
glyphname = h;
lastChange = "2018-11-23 02:18:52 +0000";
layers = (
{
anchors = (
{
name = bottom;
position = "{550, -40}";
},
{
name = top;
position = "{244, 1564}";
}
);
layerId = UUID0;
paths = (
{
closed = 1;
nodes = (
"316 1374 LINE",
"316 1436 OFFCURVE",
"306 1470 OFFCURVE",
"242 1470 CURVE SMOOTH",
"192 1470 LINE",
"180 1458 LINE",
"180 0 LINE",
"198 -4 OFFCURVE",
"220 -6 OFFCURVE",
"248 -6 CURVE SMOOTH",
"274 -6 OFFCURVE",
"298 -4 OFFCURVE",
"316 0 CURVE"
);
},
{
closed = 1;
nodes = (
"920 686 LINE",
"920 854 OFFCURVE",
"854 996 OFFCURVE",
"664 996 CURVE SMOOTH",
"518 996 OFFCURVE",
"364 918 OFFCURVE",
"278 808 CURVE",
"278 658 LINE",
"344 774 OFFCURVE",
"506 870 OFFCURVE",
"632 870 CURVE SMOOTH",
"750 870 OFFCURVE",
"782 802 OFFCURVE",
"782 640 CURVE SMOOTH",
"782 80 LINE SMOOTH",
"782 18 OFFCURVE",
"802 -12 OFFCURVE",
"854 -12 CURVE SMOOTH",
"886 -12 OFFCURVE",
"922 0 OFFCURVE",
"942 18 CURVE",
"924 62 OFFCURVE",
"920 122 OFFCURVE",
"920 186 CURVE SMOOTH"
);
}
);
width = 1088;
},
{
anchors = (
{
name = bottom;
position = "{556, -40}";
},
{
name = top;
position = "{264, 1542}";
}
);
layerId = UUID1;
paths = (
{
closed = 1;
nodes = (
"434 1276 LINE",
"434 1422 OFFCURVE",
"384 1472 OFFCURVE",
"256 1472 CURVE SMOOTH",
"128 1472 LINE",
"114 1458 LINE",
"114 0 LINE",
"164 -8 OFFCURVE",
"220 -12 OFFCURVE",
"272 -12 CURVE SMOOTH",
"330 -12 OFFCURVE",
"388 -8 OFFCURVE",
"434 0 CURVE"
);
},
{
closed = 1;
nodes = (
"976 658 LINE",
"976 870 OFFCURVE",
"876 1018 OFFCURVE",
"694 1018 CURVE SMOOTH",
"552 1018 OFFCURVE",
"450 930 OFFCURVE",
"356 840 CURVE",
"356 556 LINE",
"416 682 OFFCURVE",
"512 724 OFFCURVE",
"568 724 CURVE SMOOTH",
"630 724 OFFCURVE",
"648 684 OFFCURVE",
"648 600 CURVE SMOOTH",
"648 186 LINE SMOOTH",
"648 56 OFFCURVE",
"692 -16 OFFCURVE",
"824 -16 CURVE SMOOTH",
"906 -16 OFFCURVE",
"980 14 OFFCURVE",
"1028 54 CURVE",
"990 106 OFFCURVE",
"976 176 OFFCURVE",
"976 256 CURVE SMOOTH"
);
}
);
width = 1086;
}
);
rightKerningGroup = h;
unicode = 0068;
},
{
glyphname = k;
lastChange = "2018-11-23 02:18:52 +0000";
layers = (
{
anchors = (
{
name = bottom;
position = "{530, -40}";
},
{
name = top;
position = "{488, 1084}";
}
);
layerId = UUID0;
paths = (
{
closed = 1;
nodes = (
"316 1374 LINE",
"316 1436 OFFCURVE",
"306 1470 OFFCURVE",
"242 1470 CURVE SMOOTH",
"192 1470 LINE",
"180 1458 LINE",
"180 0 LINE",
"198 -4 OFFCURVE",
"220 -6 OFFCURVE",
"248 -6 CURVE SMOOTH",
"274 -6 OFFCURVE",
"298 -4 OFFCURVE",
"316 0 CURVE"
);
},
{
closed = 1;
nodes = (
"754 356 LINE",
"692 492 OFFCURVE",
"628 546 OFFCURVE",
"484 546 CURVE SMOOTH",
"246 546 LINE",
"246 438 LINE",
"312 444 LINE SMOOTH",
"360 448 OFFCURVE",
"400 450 OFFCURVE",
"426 450 CURVE SMOOTH",
"542 450 OFFCURVE",
"580 416 OFFCURVE",
"632 300 CURVE SMOOTH",
"726 90 LINE SMOOTH",
"754 28 OFFCURVE",
"774 -12 OFFCURVE",
"838 -12 CURVE SMOOTH",
"874 -12 OFFCURVE",
"914 8 OFFCURVE",
"930 30 CURVE",
"896 54 OFFCURVE",
"864 110 OFFCURVE",
"834 178 CURVE SMOOTH"
);
},
{
closed = 1;
nodes = (
"860 968 LINE",
"848 984 LINE",
"822 986 OFFCURVE",
"806 986 OFFCURVE",
"780 986 CURVE SMOOTH",
"720 986 OFFCURVE",
"700 960 OFFCURVE",
"670 916 CURVE SMOOTH",
"450 592 LINE SMOOTH",
"438 576 OFFCURVE",
"424 566 OFFCURVE",
"406 566 CURVE SMOOTH",
"256 558 LINE",
"256 494 LINE",
"418 494 LINE SMOOTH",
"494 494 OFFCURVE",
"550 518 OFFCURVE",
"600 592 CURVE SMOOTH"
);
}
);
width = 976;
},
{
anchors = (
{
name = bottom;
position = "{548, -40}";
},
{
name = top;
position = "{488, 1084}";
}
);
layerId = UUID1;
paths = (
{
closed = 1;
nodes = (
"434 1276 LINE",
"434 1422 OFFCURVE",
"384 1472 OFFCURVE",
"256 1472 CURVE SMOOTH",
"128 1472 LINE",
"114 1458 LINE",
"114 0 LINE",
"162 -8 OFFCURVE",
"218 -12 OFFCURVE",
"272 -12 CURVE SMOOTH",
"328 -12 OFFCURVE",
"388 -8 OFFCURVE",
"434 0 CURVE"
);
},
{
closed = 1;
nodes = (
"898 402 LINE",
"852 540 OFFCURVE",
"734 598 OFFCURVE",
"588 598 CURVE SMOOTH",
"268 598 LINE",
"268 374 LINE",
"350 384 LINE SMOOTH",
"394 390 OFFCURVE",
"432 396 OFFCURVE",
"492 396 CURVE SMOOTH",
"542 396 OFFCURVE",
"574 378 OFFCURVE",
"600 296 CURVE SMOOTH",
"656 126 LINE SMOOTH",
"690 22 OFFCURVE",
"728 -16 OFFCURVE",
"820 -16 CURVE SMOOTH",
"904 -16 OFFCURVE",
"988 28 OFFCURVE",
"1040 86 CURVE",
"982 128 OFFCURVE",
"966 188 OFFCURVE",
"944 258 CURVE SMOOTH"
);
},
{
closed = 1;
nodes = (
"988 988 LINE",
"976 1004 LINE",
"916 1006 OFFCURVE",
"862 1008 OFFCURVE",
"792 1008 CURVE SMOOTH",
"706 1008 OFFCURVE",
"650 968 OFFCURVE",
"612 890 CURVE SMOOTH",
"518 700 LINE SMOOTH",
"502 670 OFFCURVE",
"490 664 OFFCURVE",
"460 664 CURVE SMOOTH",
"308 662 LINE",
"308 512 LINE",
"482 512 LINE SMOOTH",
"664 512 OFFCURVE",
"782 574 OFFCURVE",
"844 696 CURVE SMOOTH"
);
}
);
width = 1052;
}
);
rightKerningGroup = k;
unicode = 006B;
},
{
glyphname = l;
lastChange = "2018-11-23 02:18:52 +0000";
layers = (
{
anchors = (
{
name = bottom;
position = "{328, -40}";
},
{
name = top;
position = "{238, 1564}";
}
);
layerId = UUID0;
paths = (
{
closed = 1;
nodes = (
"386 108 LINE",
"338 108 OFFCURVE",
"312 136 OFFCURVE",
"312 192 CURVE SMOOTH",
"312 1374 LINE SMOOTH",
"312 1436 OFFCURVE",
"302 1470 OFFCURVE",
"238 1470 CURVE SMOOTH",
"188 1470 LINE",
"176 1458 LINE",
"176 152 LINE SMOOTH",
"176 48 OFFCURVE",
"244 -8 OFFCURVE",
"340 -8 CURVE SMOOTH",
"380 -8 OFFCURVE",
"444 -2 OFFCURVE",
"482 4 CURVE",
"484 12 OFFCURVE",
"484 22 OFFCURVE",
"484 32 CURVE SMOOTH",
"484 60 OFFCURVE",
"480 88 OFFCURVE",
"472 108 CURVE"
);
}
);
width = 562;
},
{
anchors = (
{
name = bottom;
position = "{360, -40}";
},
{
name = top;
position = "{264, 1542}";
}
);
layerId = UUID1;
paths = (
{
closed = 1;
nodes = (
"520 238 LINE",
"456 238 OFFCURVE",
"432 272 OFFCURVE",
"432 334 CURVE SMOOTH",
"432 1276 LINE SMOOTH",
"432 1422 OFFCURVE",
"382 1472 OFFCURVE",
"254 1472 CURVE SMOOTH",
"126 1472 LINE",
"112 1458 LINE",
"112 278 LINE SMOOTH",
"112 80 OFFCURVE",
"180 -10 OFFCURVE",
"368 -10 CURVE SMOOTH",
"448 -10 OFFCURVE",
"528 0 OFFCURVE",
"590 10 CURVE",
"596 32 OFFCURVE",
"598 60 OFFCURVE",
"598 84 CURVE SMOOTH",
"598 136 OFFCURVE",
"588 192 OFFCURVE",
"572 238 CURVE"
);
}
);
width = 632;
}
);
leftKerningGroup = l;
rightKerningGroup = l;
unicode = 006C;
},
{
glyphname = m;
lastChange = "2018-11-23 02:18:52 +0000";
layers = (
{
anchors = (
{
name = bottom;
position = "{796, -40}";
},
{
name = top;
position = "{790, 1084}";
}
);
layerId = UUID0;
paths = (
{
closed = 1;
nodes = (
"192 986 LINE",
"180 972 LINE",
"180 0 LINE",
"198 -4 OFFCURVE",
"222 -6 OFFCURVE",
"250 -6 CURVE SMOOTH",
"276 -6 OFFCURVE",
"300 -4 OFFCURVE",
"318 0 CURVE",
"318 890 LINE SMOOTH",
"318 952 OFFCURVE",
"308 986 OFFCURVE",
"244 986 CURVE SMOOTH"
);
},
{
closed = 1;
nodes = (
"726 0 LINE",
"744 -4 OFFCURVE",
"768 -6 OFFCURVE",
"796 -6 CURVE SMOOTH",
"822 -6 OFFCURVE",
"846 -4 OFFCURVE",
"864 0 CURVE",
"864 690 LINE SMOOTH",
"864 858 OFFCURVE",
"788 998 OFFCURVE",
"614 998 CURVE SMOOTH",
"486 998 OFFCURVE",
"350 918 OFFCURVE",
"268 784 CURVE",
"268 626 LINE",
"334 776 OFFCURVE",
"480 872 OFFCURVE",
"588 872 CURVE SMOOTH",
"690 872 OFFCURVE",
"726 804 OFFCURVE",
"726 642 CURVE"
);
},
{
closed = 1;
nodes = (
"1274 80 LINE SMOOTH",
"1274 18 OFFCURVE",
"1294 -12 OFFCURVE",
"1346 -12 CURVE SMOOTH",
"1378 -12 OFFCURVE",
"1414 0 OFFCURVE",
"1434 18 CURVE",
"1416 62 OFFCURVE",
"1412 122 OFFCURVE",
"1412 186 CURVE SMOOTH",
"1412 690 LINE SMOOTH",
"1412 858 OFFCURVE",
"1336 998 OFFCURVE",
"1162 998 CURVE SMOOTH",
"1034 998 OFFCURVE",
"914 926 OFFCURVE",
"810 818 CURVE",
"810 626 LINE",
"888 786 OFFCURVE",
"1030 872 OFFCURVE",
"1136 872 CURVE SMOOTH",
"1238 872 OFFCURVE",
"1274 806 OFFCURVE",
"1274 644 CURVE"
);
}
);
width = 1580;
},
{
anchors = (
{
name = bottom;
position = "{812, -40}";
},
{
name = top;
position = "{794, 1084}";
}
);
layerId = UUID1;
paths = (
{
closed = 1;
nodes = (
"128 1014 LINE",
"114 1000 LINE",
"114 0 LINE",
"162 -8 OFFCURVE",
"224 -12 OFFCURVE",
"278 -12 CURVE SMOOTH",
"334 -12 OFFCURVE",
"396 -8 OFFCURVE",
"442 0 CURVE",
"442 776 LINE SMOOTH",
"442 922 OFFCURVE",
"374 1014 OFFCURVE",
"250 1014 CURVE SMOOTH"
);
},
{
closed = 1;
nodes = (
"648 0 LINE",
"696 -8 OFFCURVE",
"758 -12 OFFCURVE",
"812 -12 CURVE SMOOTH",
"868 -12 OFFCURVE",
"930 -8 OFFCURVE",
"976 0 CURVE",
"976 702 LINE SMOOTH",
"976 886 OFFCURVE",
"874 1018 OFFCURVE",
"700 1018 CURVE SMOOTH",
"554 1018 OFFCURVE",
"432 902 OFFCURVE",
"336 798 CURVE",
"336 518 LINE",
"368 606 OFFCURVE",
"478 722 OFFCURVE",
"562 724 CURVE SMOOTH",
"600 724 OFFCURVE",
"648 700 OFFCURVE",
"648 598 CURVE"
);
},
{
closed = 1;
nodes = (
"1182 186 LINE SMOOTH",
"1182 56 OFFCURVE",
"1226 -16 OFFCURVE",
"1358 -16 CURVE SMOOTH",
"1440 -16 OFFCURVE",
"1514 14 OFFCURVE",
"1562 54 CURVE",
"1524 106 OFFCURVE",
"1510 176 OFFCURVE",
"1510 256 CURVE SMOOTH",
"1510 698 LINE SMOOTH",
"1510 882 OFFCURVE",
"1418 1018 OFFCURVE",
"1242 1018 CURVE SMOOTH",
"1100 1018 OFFCURVE",
"950 912 OFFCURVE",
"862 804 CURVE",
"862 506 LINE",
"906 604 OFFCURVE",
"1016 724 OFFCURVE",
"1092 724 CURVE SMOOTH",
"1130 724 OFFCURVE",
"1182 702 OFFCURVE",
"1182 600 CURVE"
);
}
);
width = 1620;
}
);
leftKerningGroup = m;
rightKerningGroup = h;
unicode = 006D;
},
{
glyphname = n;
lastChange = "2018-11-23 02:18:52 +0000";
layers = (
{
anchors = (
{
name = bottom;
position = "{552, -40}";
},
{
name = top;
position = "{554, 1084}";
}
);
layerId = UUID0;
paths = (
{
closed = 1;
nodes = (
"192 986 LINE",
"180 974 LINE",
"180 0 LINE",
"198 -4 OFFCURVE",
"222 -6 OFFCURVE",
"250 -6 CURVE SMOOTH",
"276 -6 OFFCURVE",
"300 -4 OFFCURVE",
"318 0 CURVE",
"318 890 LINE SMOOTH",
"318 952 OFFCURVE",
"308 986 OFFCURVE",
"244 986 CURVE SMOOTH"
);
},
{
closed = 1;
nodes = (
"922 688 LINE",
"922 856 OFFCURVE",
"856 998 OFFCURVE",
"666 998 CURVE SMOOTH",
"520 998 OFFCURVE",
"366 920 OFFCURVE",
"280 810 CURVE",
"280 660 LINE",
"346 776 OFFCURVE",
"508 872 OFFCURVE",
"634 872 CURVE SMOOTH",
"752 872 OFFCURVE",
"784 804 OFFCURVE",
"784 642 CURVE SMOOTH",
"784 80 LINE SMOOTH",
"784 18 OFFCURVE",
"804 -12 OFFCURVE",
"856 -12 CURVE SMOOTH",
"888 -12 OFFCURVE",
"924 0 OFFCURVE",
"944 18 CURVE",
"926 62 OFFCURVE",
"922 122 OFFCURVE",
"922 186 CURVE SMOOTH"
);
}
);
width = 1090;
},
{
anchors = (
{
name = bottom;
position = "{564, -40}";
},
{
name = top;
position = "{562, 1084}";
}
);
layerId = UUID1;
paths = (
{
closed = 1;
nodes = (
"128 1014 LINE",
"114 1000 LINE",
"114 0 LINE",
"162 -8 OFFCURVE",
"224 -12 OFFCURVE",
"278 -12 CURVE SMOOTH",
"334 -12 OFFCURVE",
"396 -8 OFFCURVE",
"442 0 CURVE",
"442 776 LINE SMOOTH",
"442 922 OFFCURVE",
"376 1014 OFFCURVE",
"252 1014 CURVE SMOOTH"
);
},
{
closed = 1;
nodes = (
"984 658 LINE",
"984 870 OFFCURVE",
"884 1018 OFFCURVE",
"702 1018 CURVE SMOOTH",
"560 1018 OFFCURVE",
"458 930 OFFCURVE",
"364 840 CURVE",
"364 556 LINE",
"424 682 OFFCURVE",
"520 724 OFFCURVE",
"576 724 CURVE SMOOTH",
"638 724 OFFCURVE",
"656 684 OFFCURVE",
"656 600 CURVE SMOOTH",
"656 186 LINE SMOOTH",
"656 56 OFFCURVE",
"700 -16 OFFCURVE",
"832 -16 CURVE SMOOTH",
"914 -16 OFFCURVE",
"988 14 OFFCURVE",
"1036 54 CURVE",
"998 106 OFFCURVE",
"984 176 OFFCURVE",
"984 256 CURVE SMOOTH"
);
}
);
width = 1094;
}
);
leftKerningGroup = m;
rightKerningGroup = h;
unicode = 006E;
},
{
glyphname = o;
lastChange = "2018-11-23 02:18:52 +0000";
layers = (
{
anchors = (
{
name = bottom;
position = "{518, -40}";
},
{
name = top;
position = "{518, 1084}";
}
);
layerId = UUID0;
paths = (
{
closed = 1;
nodes = (
"932 648 OFFCURVE",
"896 792 OFFCURVE",
"792 898 CURVE SMOOTH",
"722 968 OFFCURVE",
"632 1004 OFFCURVE",
"518 1004 CURVE SMOOTH",
"406 1004 OFFCURVE",
"316 968 OFFCURVE",
"246 898 CURVE SMOOTH",
"142 792 OFFCURVE",
"106 648 OFFCURVE",
"106 490 CURVE SMOOTH",
"106 330 OFFCURVE",
"142 188 OFFCURVE",
"246 82 CURVE SMOOTH",
"316 12 OFFCURVE",
"406 -24 OFFCURVE",
"518 -24 CURVE SMOOTH",
"632 -24 OFFCURVE",
"722 12 OFFCURVE",
"792 82 CURVE SMOOTH",
"896 188 OFFCURVE",
"932 330 OFFCURVE",
"932 490 CURVE SMOOTH"
);
},
{
closed = 1;
nodes = (
"250 688 OFFCURVE",
"316 896 OFFCURVE",
"520 896 CURVE SMOOTH",
"722 896 OFFCURVE",
"788 688 OFFCURVE",
"788 490 CURVE SMOOTH",
"788 290 OFFCURVE",
"722 86 OFFCURVE",
"520 86 CURVE SMOOTH",
"316 86 OFFCURVE",
"250 290 OFFCURVE",
"250 490 CURVE SMOOTH"
);
}
);
width = 1038;
},
{
anchors = (
{
name = bottom;
position = "{522, -40}";
},
{
name = top;
position = "{522, 1084}";
}
);
layerId = UUID1;
paths = (
{
closed = 1;
nodes = (
"988 676 OFFCURVE",
"950 806 OFFCURVE",
"844 912 CURVE SMOOTH",
"760 994 OFFCURVE",
"648 1030 OFFCURVE",
"522 1030 CURVE SMOOTH",
"396 1030 OFFCURVE",
"284 994 OFFCURVE",
"200 912 CURVE SMOOTH",
"94 806 OFFCURVE",
"56 676 OFFCURVE",
"56 500 CURVE SMOOTH",
"56 324 OFFCURVE",
"94 194 OFFCURVE",
"200 88 CURVE SMOOTH",
"284 6 OFFCURVE",
"396 -30 OFFCURVE",
"522 -30 CURVE SMOOTH",
"648 -30 OFFCURVE",
"760 6 OFFCURVE",
"844 88 CURVE SMOOTH",
"950 194 OFFCURVE",
"988 324 OFFCURVE",
"988 500 CURVE SMOOTH"
);
},
{
closed = 1;
nodes = (
"392 662 OFFCURVE",
"406 786 OFFCURVE",
"522 786 CURVE SMOOTH",
"638 786 OFFCURVE",
"652 662 OFFCURVE",
"652 500 CURVE SMOOTH",
"652 338 OFFCURVE",
"638 214 OFFCURVE",
"522 214 CURVE SMOOTH",
"406 214 OFFCURVE",
"392 338 OFFCURVE",
"392 500 CURVE SMOOTH"
);
}
);
width = 1044;
}
);
leftKerningGroup = c;
rightKerningGroup = o;
unicode = 006F;
},
{
glyphname = p;
lastChange = "2018-11-23 02:18:52 +0000";
layers = (
{
anchors = (
{
name = bottom;
position = "{524, -40}";
},
{
name = top;
position = "{524, 1084}";
}
);
layerId = UUID0;
paths = (
{
closed = 1;
nodes = (
"192 986 LINE",
"180 974 LINE",
"180 -418 LINE",
"192 -430 LINE",
"242 -430 LINE SMOOTH",
"306 -430 OFFCURVE",
"316 -396 OFFCURVE",
"316 -334 CURVE SMOOTH",
"316 890 LINE SMOOTH",
"316 952 OFFCURVE",
"306 986 OFFCURVE",
"242 986 CURVE SMOOTH"
);
},
{
closed = 1;
nodes = (
"946 800 OFFCURVE",
"830 1004 OFFCURVE",
"612 1004 CURVE SMOOTH",
"430 1004 OFFCURVE",
"296 876 OFFCURVE",
"246 758 CURVE",
"270 620 LINE",
"320 780 OFFCURVE",
"462 882 OFFCURVE",
"586 882 CURVE SMOOTH",
"700 882 OFFCURVE",
"806 774 OFFCURVE",
"806 502 CURVE SMOOTH",
"806 220 OFFCURVE",
"684 106 OFFCURVE",
"562 106 CURVE SMOOTH",
"440 106 OFFCURVE",
"334 184 OFFCURVE",
"258 242 CURVE",
"252 116 LINE",
"348 40 OFFCURVE",
"454 -16 OFFCURVE",
"574 -16 CURVE SMOOTH",
"746 -16 OFFCURVE",
"946 136 OFFCURVE",
"946 502 CURVE SMOOTH"
);
}
);
width = 1050;
},
{
anchors = (
{
name = bottom;
position = "{524, -40}";
},
{
name = top;
position = "{524, 1084}";
}
);
layerId = UUID1;
paths = (
{
closed = 1;
nodes = (
"128 1014 LINE",
"114 1000 LINE",
"114 -418 LINE",
"128 -432 LINE",
"256 -432 LINE SMOOTH",
"384 -432 OFFCURVE",
"436 -382 OFFCURVE",
"436 -236 CURVE SMOOTH",
"436 736 LINE SMOOTH",
"436 908 OFFCURVE",
"346 1014 OFFCURVE",
"214 1014 CURVE SMOOTH"
);
},
{
closed = 1;
nodes = (
"1018 816 OFFCURVE",
"902 1030 OFFCURVE",
"656 1030 CURVE SMOOTH",
"458 1030 OFFCURVE",
"296 862 OFFCURVE",
"280 696 CURVE",
"354 516 LINE",
"408 732 OFFCURVE",
"512 768 OFFCURVE",
"570 768 CURVE SMOOTH",
"636 768 OFFCURVE",
"682 692 OFFCURVE",
"682 514 CURVE SMOOTH",
"682 338 OFFCURVE",
"650 222 OFFCURVE",
"556 222 CURVE SMOOTH",
"496 222 OFFCURVE",
"414 272 OFFCURVE",
"336 336 CURVE",
"282 106 LINE",
"370 54 OFFCURVE",
"474 -20 OFFCURVE",
"614 -20 CURVE SMOOTH",
"838 -20 OFFCURVE",
"1018 170 OFFCURVE",
"1018 512 CURVE SMOOTH"
);
}
);
width = 1078;
}
);
leftKerningGroup = m;
unicode = 0070;
},
{
glyphname = q;
lastChange = "2018-11-23 02:18:52 +0000";
layers = (
{
anchors = (
{
name = bottom;
position = "{522, -40}";
},
{
name = top;
position = "{522, 1084}";
}
);
layerId = UUID0;
paths = (
{
closed = 1;
nodes = (
"104 184 OFFCURVE",
"220 -16 OFFCURVE",
"444 -16 CURVE SMOOTH",
"614 -16 OFFCURVE",
"740 104 OFFCURVE",
"788 180 CURVE",
"766 306 LINE",
"708 198 OFFCURVE",
"586 106 OFFCURVE",
"462 106 CURVE SMOOTH",
"348 106 OFFCURVE",
"244 216 OFFCURVE",
"244 488 CURVE SMOOTH",
"244 768 OFFCURVE",
"366 882 OFFCURVE",
"492 882 CURVE SMOOTH",
"610 882 OFFCURVE",
"730 806 OFFCURVE",
"796 720 CURVE",
"810 850 LINE",
"732 932 OFFCURVE",
"636 1004 OFFCURVE",
"474 1004 CURVE SMOOTH",
"304 1004 OFFCURVE",
"104 850 OFFCURVE",
"104 488 CURVE SMOOTH"
);
},
{
closed = 1;
nodes = (
"732 -334 LINE",
"732 -396 OFFCURVE",
"742 -430 OFFCURVE",
"806 -430 CURVE SMOOTH",
"856 -430 LINE",
"868 -418 LINE",
"868 704 LINE SMOOTH",
"868 790 OFFCURVE",
"874 874 OFFCURVE",
"924 922 CURVE",
"914 948 OFFCURVE",
"888 980 OFFCURVE",
"858 994 CURVE",
"756 954 OFFCURVE",
"732 858 OFFCURVE",
"732 754 CURVE SMOOTH"
);
}
);
width = 1046;
},
{
anchors = (
{
name = bottom;
position = "{522, -40}";
},
{
name = top;
position = "{522, 1084}";
}
);
layerId = UUID1;
paths = (
{
closed = 1;
nodes = (
"60 194 OFFCURVE",
"176 -20 OFFCURVE",
"422 -20 CURVE SMOOTH",
"560 -20 OFFCURVE",
"690 60 OFFCURVE",
"758 176 CURVE",
"712 402 LINE",
"660 294 OFFCURVE",
"582 242 OFFCURVE",
"506 242 CURVE SMOOTH",
"442 242 OFFCURVE",
"396 318 OFFCURVE",
"396 496 CURVE SMOOTH",
"396 674 OFFCURVE",
"428 788 OFFCURVE",
"522 788 CURVE SMOOTH",
"590 788 OFFCURVE",
"684 710 OFFCURVE",
"762 560 CURVE",
"816 826 LINE",
"768 914 OFFCURVE",
"662 1030 OFFCURVE",
"464 1030 CURVE SMOOTH",
"242 1030 OFFCURVE",
"60 840 OFFCURVE",
"60 498 CURVE SMOOTH"
);
},
{
closed = 1;
nodes = (
"642 -236 LINE",
"642 -382 OFFCURVE",
"692 -432 OFFCURVE",
"820 -432 CURVE SMOOTH",
"948 -432 LINE",
"962 -418 LINE",
"962 710 LINE SMOOTH",
"962 772 OFFCURVE",
"986 826 OFFCURVE",
"1018 848 CURVE",
"1006 906 OFFCURVE",
"960 984 OFFCURVE",
"920 1016 CURVE",
"738 1016 OFFCURVE",
"642 882 OFFCURVE",
"642 710 CURVE SMOOTH"
);
}
);
width = 1080;
}
);
leftKerningGroup = d;
unicode = 0071;
},
{
glyphname = r;
lastChange = "2018-11-23 02:18:52 +0000";
layers = (
{
anchors = (
{
name = bottom;
position = "{268, -40}";
},
{
name = top;
position = "{394, 1084}";
}
);
layerId = UUID0;
paths = (
{
closed = 1;
nodes = (
"646 992 OFFCURVE",
"614 994 OFFCURVE",
"594 994 CURVE SMOOTH",
"370 994 OFFCURVE",
"280 778 OFFCURVE",
"280 610 CURVE",
"306 578 LINE",
"330 676 OFFCURVE",
"402 856 OFFCURVE",
"584 856 CURVE",
"606 856 OFFCURVE",
"630 856 OFFCURVE",
"652 854 CURVE",
"676 890 OFFCURVE",
"684 942 OFFCURVE",
"684 986 CURVE"
);
},
{
closed = 1;
nodes = (
"162 880 OFFCURVE",
"198 810 OFFCURVE",
"198 712 CURVE SMOOTH",
"198 0 LINE",
"216 -4 OFFCURVE",
"240 -6 OFFCURVE",
"268 -6 CURVE SMOOTH",
"294 -6 OFFCURVE",
"318 -4 OFFCURVE",
"336 0 CURVE",
"336 726 LINE",
"332 858 OFFCURVE",
"288 956 OFFCURVE",
"188 994 CURVE",
"160 978 OFFCURVE",
"134 942 OFFCURVE",
"126 916 CURVE"
);
}
);
width = 700;
},
{
anchors = (
{
name = bottom;
position = "{294, -40}";
},
{
name = top;
position = "{420, 1084}";
}
);
layerId = UUID1;
paths = (
{
closed = 1;
nodes = (
"762 1006 OFFCURVE",
"730 1014 OFFCURVE",
"666 1014 CURVE SMOOTH",
"430 1014 OFFCURVE",
"376 770 OFFCURVE",
"360 546 CURVE",
"396 498 LINE",
"456 642 OFFCURVE",
"514 712 OFFCURVE",
"614 712 CURVE",
"650 708 OFFCURVE",
"684 704 OFFCURVE",
"720 690 CURVE",
"774 782 OFFCURVE",
"802 920 OFFCURVE",
"802 996 CURVE"
);
},
{
closed = 1;
nodes = (
"86 826 OFFCURVE",
"130 760 OFFCURVE",
"130 640 CURVE SMOOTH",
"130 0 LINE",
"178 -8 OFFCURVE",
"240 -12 OFFCURVE",
"294 -12 CURVE SMOOTH",
"350 -12 OFFCURVE",
"412 -8 OFFCURVE",
"458 0 CURVE",
"458 664 LINE",
"438 870 OFFCURVE",
"344 1004 OFFCURVE",
"152 1016 CURVE",
"112 984 OFFCURVE",
"66 906 OFFCURVE",
"54 848 CURVE"
);
}
);
width = 802;
}
);
leftKerningGroup = r;
rightKerningGroup = r;
unicode = 0072;
},
{
glyphname = s;
lastChange = "2018-11-23 02:18:52 +0000";
layers = (
{
anchors = (
{
name = bottom;
position = "{416, -40}";
},
{
name = top;
position = "{436, 1084}";
}
);
layerId = UUID0;
paths = (
{
closed = 1;
nodes = (
"158 24 OFFCURVE",
"272 -24 OFFCURVE",
"412 -24 CURVE SMOOTH",
"624 -24 OFFCURVE",
"778 80 OFFCURVE",
"778 256 CURVE SMOOTH",
"778 400 OFFCURVE",
"680 486 OFFCURVE",
"532 544 CURVE SMOOTH",
"414 590 LINE SMOOTH",
"312 630 OFFCURVE",
"260 670 OFFCURVE",
"260 740 CURVE SMOOTH",
"260 832 OFFCURVE",
"336 890 OFFCURVE",
"444 890 CURVE SMOOTH",
"546 890 OFFCURVE",
"642 858 OFFCURVE",
"704 830 CURVE",
"732 858 OFFCURVE",
"748 902 OFFCURVE",
"748 940 CURVE",
"668 976 OFFCURVE",
"546 1004 OFFCURVE",
"448 1004 CURVE SMOOTH",
"268 1004 OFFCURVE",
"116 902 OFFCURVE",
"116 732 CURVE SMOOTH",
"116 586 OFFCURVE",
"236 508 OFFCURVE",
"372 456 CURVE SMOOTH",
"486 412 LINE SMOOTH",
"580 376 OFFCURVE",
"634 314 OFFCURVE",
"634 246 CURVE",
"632 152 OFFCURVE",
"546 86 OFFCURVE",
"416 86 CURVE SMOOTH",
"314 86 OFFCURVE",
"214 132 OFFCURVE",
"132 178 CURVE",
"104 156 OFFCURVE",
"78 110 OFFCURVE",
"76 76 CURVE"
);
}
);
width = 868;
},
{
anchors = (
{
name = bottom;
position = "{442, -40}";
},
{
name = top;
position = "{446, 1084}";
}
);
layerId = UUID1;
paths = (
{
closed = 1;
nodes = (
"130 16 OFFCURVE",
"282 -30 OFFCURVE",
"440 -30 CURVE SMOOTH",
"686 -30 OFFCURVE",
"848 98 OFFCURVE",
"848 300 CURVE SMOOTH",
"848 472 OFFCURVE",
"732 570 OFFCURVE",
"580 624 CURVE SMOOTH",
"456 668 LINE SMOOTH",
"406 686 OFFCURVE",
"386 706 OFFCURVE",
"386 738 CURVE SMOOTH",
"386 768 OFFCURVE",
"410 794 OFFCURVE",
"460 794 CURVE SMOOTH",
"554 794 OFFCURVE",
"656 756 OFFCURVE",
"740 718 CURVE",
"792 756 OFFCURVE",
"834 868 OFFCURVE",
"830 944 CURVE",
"742 988 OFFCURVE",
"578 1030 OFFCURVE",
"456 1030 CURVE SMOOTH",
"216 1030 OFFCURVE",
"64 900 OFFCURVE",
"64 694 CURVE SMOOTH",
"64 532 OFFCURVE",
"172 444 OFFCURVE",
"314 392 CURVE SMOOTH",
"424 352 LINE SMOOTH",
"486 330 OFFCURVE",
"510 304 OFFCURVE",
"510 268 CURVE",
"510 232 OFFCURVE",
"474 206 OFFCURVE",
"402 206 CURVE SMOOTH",
"324 206 OFFCURVE",
"214 242 OFFCURVE",
"126 288 CURVE",
"78 238 OFFCURVE",
"38 138 OFFCURVE",
"36 68 CURVE"
);
}
);
width = 888;
}
);
leftKerningGroup = s;
rightKerningGroup = s;
unicode = 0073;
},
{
glyphname = t;
lastChange = "2018-11-23 02:18:52 +0000";
layers = (
{
anchors = (
{
name = bottom;
position = "{384, -40}";
},
{
name = top;
position = "{352, 1084}";
}
);
layerId = UUID0;
paths = (
{
closed = 1;
nodes = (
"214 152 LINE",
"214 48 OFFCURVE",
"284 -8 OFFCURVE",
"392 -8 CURVE SMOOTH",
"470 -8 OFFCURVE",
"530 -4 OFFCURVE",
"592 4 CURVE",
"594 12 OFFCURVE",
"594 22 OFFCURVE",
"594 32 CURVE SMOOTH",
"594 60 OFFCURVE",
"590 88 OFFCURVE",
"582 108 CURVE",
"428 108 LINE SMOOTH",
"370 108 OFFCURVE",
"350 142 OFFCURVE",
"350 190 CURVE SMOOTH",
"350 1278 LINE",
"338 1290 LINE",
"288 1290 LINE SMOOTH",
"224 1290 OFFCURVE",
"214 1256 OFFCURVE",
"214 1194 CURVE SMOOTH"
);
},
{
closed = 1;
nodes = (
"304 978 LINE",
"74 982 LINE",
"70 962 OFFCURVE",
"68 948 OFFCURVE",
"68 928 CURVE SMOOTH",
"68 908 OFFCURVE",
"70 892 OFFCURVE",
"74 874 CURVE",
"306 878 LINE",
"604 874 LINE",
"608 892 OFFCURVE",
"610 908 OFFCURVE",
"610 928 CURVE SMOOTH",
"610 948 OFFCURVE",
"608 962 OFFCURVE",
"604 982 CURVE"
);
}
);
width = 670;
},
{
anchors = (
{
name = bottom;
position = "{418, -40}";
},
{
name = top;
position = "{340, 1084}";
}
);
layerId = UUID1;
paths = (
{
closed = 1;
nodes = (
"156 278 LINE",
"156 80 OFFCURVE",
"240 -10 OFFCURVE",
"428 -10 CURVE SMOOTH",
"508 -10 OFFCURVE",
"618 0 OFFCURVE",
"692 10 CURVE",
"698 32 OFFCURVE",
"700 60 OFFCURVE",
"700 84 CURVE SMOOTH",
"700 134 OFFCURVE",
"690 192 OFFCURVE",
"674 238 CURVE",
"566 238 LINE SMOOTH",
"502 238 OFFCURVE",
"476 272 OFFCURVE",
"476 334 CURVE SMOOTH",
"476 1286 LINE",
"462 1300 LINE",
"334 1300 LINE SMOOTH",
"206 1300 OFFCURVE",
"156 1250 OFFCURVE",
"156 1104 CURVE SMOOTH"
);
},
{
closed = 1;
nodes = (
"342 996 LINE",
"-2 1002 LINE",
"-12 962 OFFCURVE",
"-16 924 OFFCURVE",
"-16 888 CURVE SMOOTH",
"-16 848 OFFCURVE",
"-12 808 OFFCURVE",
"-2 770 CURVE",
"332 776 LINE",
"712 770 LINE",
"722 808 OFFCURVE",
"726 848 OFFCURVE",
"726 888 CURVE SMOOTH",
"726 924 OFFCURVE",
"722 962 OFFCURVE",
"712 1002 CURVE"
);
}
);
width = 756;
}
);
leftKerningGroup = t;
rightKerningGroup = t;
unicode = 0074;
},
{
glyphname = u;
lastChange = "2018-11-23 02:18:52 +0000";
layers = (
{
anchors = (
{
name = bottom;
position = "{536, -40}";
},
{
name = top;
position = "{538, 1084}";
}
);
layerId = UUID0;
paths = (
{
closed = 1;
nodes = (
"910 980 LINE",
"892 984 OFFCURVE",
"868 986 OFFCURVE",
"840 986 CURVE SMOOTH",
"814 986 OFFCURVE",
"790 984 OFFCURVE",
"772 980 CURVE",
"772 226 LINE SMOOTH",
"772 122 OFFCURVE",
"798 26 OFFCURVE",
"900 -14 CURVE",
"930 0 OFFCURVE",
"956 32 OFFCURVE",
"966 58 CURVE",
"916 106 OFFCURVE",
"910 190 OFFCURVE",
"910 276 CURVE SMOOTH"
);
},
{
closed = 1;
nodes = (
"168 292 LINE",
"168 124 OFFCURVE",
"234 -18 OFFCURVE",
"424 -18 CURVE SMOOTH",
"570 -18 OFFCURVE",
"724 60 OFFCURVE",
"810 170 CURVE",
"810 320 LINE",
"744 204 OFFCURVE",
"582 108 OFFCURVE",
"456 108 CURVE SMOOTH",
"338 108 OFFCURVE",
"306 176 OFFCURVE",
"306 338 CURVE SMOOTH",
"306 900 LINE SMOOTH",
"306 962 OFFCURVE",
"286 992 OFFCURVE",
"234 992 CURVE SMOOTH",
"202 992 OFFCURVE",
"166 980 OFFCURVE",
"146 962 CURVE",
"164 918 OFFCURVE",
"168 858 OFFCURVE",
"168 794 CURVE SMOOTH"
);
}
);
width = 1092;
},
{
anchors = (
{
name = bottom;
position = "{540, -40}";
},
{
name = top;
position = "{530, 1084}";
}
);
layerId = UUID1;
paths = (
{
closed = 1;
nodes = (
"980 1000 LINE",
"932 1008 OFFCURVE",
"870 1012 OFFCURVE",
"816 1012 CURVE SMOOTH",
"760 1012 OFFCURVE",
"698 1008 OFFCURVE",
"652 1000 CURVE",
"652 294 LINE SMOOTH",
"652 122 OFFCURVE",
"754 -16 OFFCURVE",
"938 -16 CURVE",
"978 16 OFFCURVE",
"1024 90 OFFCURVE",
"1036 148 CURVE",
"1004 170 OFFCURVE",
"980 224 OFFCURVE",
"980 286 CURVE SMOOTH"
);
},
{
closed = 1;
nodes = (
"110 342 LINE",
"110 130 OFFCURVE",
"210 -18 OFFCURVE",
"392 -18 CURVE SMOOTH",
"534 -18 OFFCURVE",
"636 70 OFFCURVE",
"730 160 CURVE",
"730 444 LINE",
"670 318 OFFCURVE",
"574 276 OFFCURVE",
"518 276 CURVE SMOOTH",
"456 276 OFFCURVE",
"438 316 OFFCURVE",
"438 400 CURVE SMOOTH",
"438 814 LINE SMOOTH",
"438 944 OFFCURVE",
"394 1016 OFFCURVE",
"262 1016 CURVE SMOOTH",
"180 1016 OFFCURVE",
"106 986 OFFCURVE",
"58 946 CURVE",
"96 894 OFFCURVE",
"110 824 OFFCURVE",
"110 744 CURVE SMOOTH"
);
}
);
width = 1098;
}
);
leftKerningGroup = u;
rightKerningGroup = u;
unicode = 0075;
},
{
glyphname = v;
lastChange = "2018-11-23 02:18:52 +0000";
layers = (
{
anchors = (
{
name = bottom;
position = "{444, -40}";
},
{
name = top;
position = "{440, 1084}";
}
);
layerId = UUID0;
paths = (
{
closed = 1;
nodes = (
"456 122 LINE",
"444 122 OFFCURVE",
"442 124 OFFCURVE",
"438 138 CURVE SMOOTH",
"422 200 OFFCURVE",
"378 346 OFFCURVE",
"340 460 CURVE SMOOTH",
"178 942 LINE SMOOTH",
"166 980 OFFCURVE",
"142 994 OFFCURVE",
"110 994 CURVE SMOOTH",
"86 994 OFFCURVE",
"64 990 OFFCURVE",
"24 970 CURVE",
"326 84 LINE SMOOTH",
"354 0 OFFCURVE",
"374 -10 OFFCURVE",
"432 -10 CURVE SMOOTH",
"462 -10 OFFCURVE",
"498 -8 OFFCURVE",
"528 0 CURVE",
"604 212 OFFCURVE",
"756 654 OFFCURVE",
"858 972 CURVE",
"854 978 LINE",
"832 984 OFFCURVE",
"812 988 OFFCURVE",
"786 988 CURVE SMOOTH",
"770 988 OFFCURVE",
"752 988 OFFCURVE",
"730 982 CURVE"
);
}
);
width = 880;
},
{
anchors = (
{
name = bottom;
position = "{488, -40}";
},
{
name = top;
position = "{482, 1084}";
}
);
layerId = UUID1;
paths = (
{
closed = 1;
nodes = (
"502 248 LINE",
"490 248 OFFCURVE",
"484 248 OFFCURVE",
"482 264 CURVE SMOOTH",
"472 324 OFFCURVE",
"460 426 OFFCURVE",
"442 500 CURVE SMOOTH",
"358 864 LINE SMOOTH",
"332 978 OFFCURVE",
"272 1018 OFFCURVE",
"168 1018 CURVE SMOOTH",
"114 1018 OFFCURVE",
"44 998 OFFCURVE",
"-12 974 CURVE",
"222 142 LINE SMOOTH",
"258 16 OFFCURVE",
"324 -12 OFFCURVE",
"448 -12 CURVE SMOOTH",
"532 -12 OFFCURVE",
"622 -8 OFFCURVE",
"694 0 CURVE",
"766 232 OFFCURVE",
"888 682 OFFCURVE",
"966 970 CURVE",
"956 984 LINE",
"906 1004 OFFCURVE",
"842 1010 OFFCURVE",
"786 1010 CURVE SMOOTH",
"746 1010 OFFCURVE",
"706 1006 OFFCURVE",
"668 998 CURVE"
);
}
);
width = 966;
}
);
leftKerningGroup = v;
unicode = 0076;
},
{
glyphname = w;
lastChange = "2018-11-23 02:18:52 +0000";
layers = (
{
anchors = (
{
name = bottom;
position = "{708, -40}";
},
{
name = top;
position = "{708, 1084}";
}
);
layerId = UUID0;
paths = (
{
closed = 1;
nodes = (
"284 84 LINE",
"304 2 OFFCURVE",
"344 -8 OFFCURVE",
"384 -8 CURVE SMOOTH",
"420 -8 OFFCURVE",
"472 -6 OFFCURVE",
"504 0 CURVE",
"602 402 LINE SMOOTH",
"628 512 OFFCURVE",
"670 696 OFFCURVE",
"702 842 CURVE",
"710 842 LINE",
"744 696 OFFCURVE",
"780 512 OFFCURVE",
"804 402 CURVE SMOOTH",
"876 84 LINE SMOOTH",
"894 2 OFFCURVE",
"934 -8 OFFCURVE",
"986 -8 CURVE SMOOTH",
"1020 -8 OFFCURVE",
"1068 -6 OFFCURVE",
"1094 -2 CURVE",
"1344 972 LINE",
"1340 978 LINE",
"1324 984 OFFCURVE",
"1302 988 OFFCURVE",
"1276 988 CURVE SMOOTH",
"1250 988 OFFCURVE",
"1224 986 OFFCURVE",
"1208 982 CURVE",
"1086 466 LINE SMOOTH",
"1058 350 OFFCURVE",
"1032 236 OFFCURVE",
"1002 104 CURVE",
"992 104 OFFCURVE",
"990 106 OFFCURVE",
"986 122 CURVE SMOOTH",
"792 980 LINE",
"774 984 OFFCURVE",
"732 986 OFFCURVE",
"708 986 CURVE SMOOTH",
"686 986 OFFCURVE",
"642 984 OFFCURVE",
"622 980 CURVE",
"416 104 LINE",
"408 104 OFFCURVE",
"404 106 OFFCURVE",
"400 122 CURVE SMOOTH",
"382 202 OFFCURVE",
"354 344 OFFCURVE",
"326 466 CURVE SMOOTH",
"218 940 LINE SMOOTH",
"208 986 OFFCURVE",
"180 994 OFFCURVE",
"154 994 CURVE SMOOTH",
"132 994 OFFCURVE",
"106 990 OFFCURVE",
"68 972 CURVE"
);
}
);
width = 1402;
},
{
anchors = (
{
name = bottom;
position = "{758, -40}";
},
{
name = top;
position = "{758, 1084}";
}
);
layerId = UUID1;
paths = (
{
closed = 1;
nodes = (
"196 138 LINE",
"224 16 OFFCURVE",
"282 -12 OFFCURVE",
"406 -12 CURVE SMOOTH",
"484 -12 OFFCURVE",
"584 -8 OFFCURVE",
"652 0 CURVE",
"704 344 LINE SMOOTH",
"718 442 OFFCURVE",
"738 576 OFFCURVE",
"752 712 CURVE",
"764 712 LINE",
"778 574 OFFCURVE",
"798 438 OFFCURVE",
"812 340 CURVE SMOOTH",
"842 134 LINE SMOOTH",
"860 8 OFFCURVE",
"920 -12 OFFCURVE",
"1046 -12 CURVE SMOOTH",
"1122 -12 OFFCURVE",
"1220 -10 OFFCURVE",
"1286 0 CURVE",
"1518 964 LINE",
"1508 984 LINE",
"1462 1008 OFFCURVE",
"1378 1012 OFFCURVE",
"1334 1012 CURVE SMOOTH",
"1296 1012 OFFCURVE",
"1246 1008 OFFCURVE",
"1210 998 CURVE",
"1124 568 LINE SMOOTH",
"1100 444 OFFCURVE",
"1084 330 OFFCURVE",
"1072 242 CURVE",
"1060 242 OFFCURVE",
"1058 246 OFFCURVE",
"1056 258 CURVE SMOOTH",
"950 988 LINE",
"900 1000 OFFCURVE",
"798 1004 OFFCURVE",
"756 1004 CURVE SMOOTH",
"716 1004 OFFCURVE",
"620 1000 OFFCURVE",
"568 988 CURVE",
"466 242 LINE",
"454 242 OFFCURVE",
"452 246 OFFCURVE",
"450 258 CURVE SMOOTH",
"444 326 OFFCURVE",
"426 438 OFFCURVE",
"400 568 CURVE SMOOTH",
"342 878 LINE SMOOTH",
"324 966 OFFCURVE",
"292 1018 OFFCURVE",
"186 1018 CURVE SMOOTH",
"128 1018 OFFCURVE",
"66 1004 OFFCURVE",
"4 980 CURVE"
);
}
);
width = 1522;
}
);
leftKerningGroup = w;
rightKerningGroup = w;
unicode = 0077;
},
{
glyphname = x;
lastChange = "2018-11-23 02:18:52 +0000";
layers = (
{
anchors = (
{
name = bottom;
position = "{442, -40}";
},
{
name = top;
position = "{446, 1084}";
}
);
layerId = UUID0;
paths = (
{
closed = 1;
nodes = (
"680 28 LINE",
"698 2 OFFCURVE",
"716 -14 OFFCURVE",
"750 -14 CURVE SMOOTH",
"782 -14 OFFCURVE",
"822 4 OFFCURVE",
"848 20 CURVE",
"240 954 LINE SMOOTH",
"222 980 OFFCURVE",
"204 996 OFFCURVE",
"170 996 CURVE SMOOTH",
"138 996 OFFCURVE",
"98 978 OFFCURVE",
"74 962 CURVE"
);
},
{
closed = 1;
nodes = (
"434 598 LINE",
"384 542 LINE",
"46 16 LINE",
"52 4 LINE",
"66 -4 OFFCURVE",
"92 -10 OFFCURVE",
"118 -10 CURVE SMOOTH",
"138 -10 OFFCURVE",
"172 -6 OFFCURVE",
"182 -2 CURVE",
"462 446 LINE",
"506 494 LINE",
"804 964 LINE",
"798 976 LINE",
"786 982 OFFCURVE",
"760 988 OFFCURVE",
"730 988 CURVE SMOOTH",
"710 988 OFFCURVE",
"680 984 OFFCURVE",
"670 980 CURVE"
);
}
);
width = 894;
},
{
anchors = (
{
name = bottom;
position = "{484, -40}";
},
{
name = top;
position = "{490, 1084}";
}
);
layerId = UUID1;
paths = (
{
closed = 1;
nodes = (
"582 80 LINE",
"624 14 OFFCURVE",
"672 -18 OFFCURVE",
"754 -18 CURVE SMOOTH",
"828 -18 OFFCURVE",
"912 10 OFFCURVE",
"976 54 CURVE",
"410 918 LINE SMOOTH",
"366 986 OFFCURVE",
"326 1020 OFFCURVE",
"244 1020 CURVE SMOOTH",
"176 1020 OFFCURVE",
"94 1000 OFFCURVE",
"22 948 CURVE"
);
},
{
closed = 1;
nodes = (
"444 666 LINE",
"362 594 LINE",
"0 32 LINE",
"10 12 LINE",
"60 -6 OFFCURVE",
"120 -12 OFFCURVE",
"184 -12 CURVE SMOOTH",
"232 -12 OFFCURVE",
"276 -10 OFFCURVE",
"310 0 CURVE",
"528 372 LINE",
"604 446 LINE",
"944 968 LINE",
"936 990 LINE",
"886 1004 OFFCURVE",
"834 1012 OFFCURVE",
"774 1012 CURVE SMOOTH",
"728 1012 OFFCURVE",
"682 1008 OFFCURVE",
"646 1000 CURVE"
);
}
);
width = 968;
}
);
unicode = 0078;
},
{
glyphname = y;
lastChange = "2018-11-23 02:18:52 +0000";
layers = (
{
anchors = (
{
name = bottom;
position = "{438, -464}";
},
{
name = top;
position = "{448, 1084}";
}
);
layerId = UUID0;
paths = (
{
closed = 1;
nodes = (
"866 972 LINE",
"862 978 LINE",
"844 984 OFFCURVE",
"820 988 OFFCURVE",
"794 988 CURVE SMOOTH",
"772 988 OFFCURVE",
"748 986 OFFCURVE",
"728 982 CURVE",
"480 92 LINE",
"470 92 OFFCURVE",
"464 94 OFFCURVE",
"460 106 CURVE SMOOTH",
"436 188 OFFCURVE",
"400 312 OFFCURVE",
"366 420 CURVE SMOOTH",
"204 928 LINE SMOOTH",
"188 980 OFFCURVE",
"162 994 OFFCURVE",
"130 994 CURVE SMOOTH",
"108 994 OFFCURVE",
"84 986 OFFCURVE",
"48 970 CURVE",
"330 88 LINE SMOOTH",
"354 16 OFFCURVE",
"384 -4 OFFCURVE",
"450 -8 CURVE",
"444 -28 LINE SMOOTH",
"388 -212 OFFCURVE",
"332 -330 OFFCURVE",
"176 -330 CURVE SMOOTH",
"132 -330 OFFCURVE",
"74 -320 OFFCURVE",
"48 -310 CURVE",
"30 -332 OFFCURVE",
"14 -376 OFFCURVE",
"16 -410 CURVE SMOOTH",
"50 -422 OFFCURVE",
"122 -436 OFFCURVE",
"174 -436 CURVE SMOOTH",
"410 -436 OFFCURVE",
"494 -290 OFFCURVE",
"590 34 CURVE SMOOTH"
);
}
);
width = 898;
},
{
anchors = (
{
name = bottom;
position = "{448, -464}";
},
{
name = top;
position = "{498, 1084}";
}
);
layerId = UUID1;
paths = (
{
closed = 1;
nodes = (
"994 966 LINE",
"982 988 LINE",
"922 1008 OFFCURVE",
"862 1012 OFFCURVE",
"806 1012 CURVE SMOOTH",
"766 1012 OFFCURVE",
"714 1008 OFFCURVE",
"678 998 CURVE",
"510 232 LINE",
"500 232 OFFCURVE",
"496 234 OFFCURVE",
"494 246 CURVE SMOOTH",
"486 310 OFFCURVE",
"470 440 OFFCURVE",
"454 504 CURVE SMOOTH",
"366 878 LINE SMOOTH",
"340 986 OFFCURVE",
"288 1018 OFFCURVE",
"208 1018 CURVE SMOOTH",
"154 1018 OFFCURVE",
"72 1004 OFFCURVE",
"6 974 CURVE",
"234 114 LINE SMOOTH",
"260 18 OFFCURVE",
"338 -14 OFFCURVE",
"450 -14 CURVE",
"442 -44 LINE SMOOTH",
"414 -138 OFFCURVE",
"348 -194 OFFCURVE",
"252 -194 CURVE SMOOTH",
"184 -194 OFFCURVE",
"112 -176 OFFCURVE",
"68 -162 CURVE",
"24 -212 OFFCURVE",
"-6 -322 OFFCURVE",
"2 -396 CURVE SMOOTH",
"58 -416 OFFCURVE",
"170 -438 OFFCURVE",
"252 -438 CURVE SMOOTH",
"570 -438 OFFCURVE",
"680 -242 OFFCURVE",
"750 26 CURVE SMOOTH"
);
}
);
width = 1002;
}
);
leftKerningGroup = y;
rightKerningGroup = y;
unicode = 0079;
},
{
glyphname = z;
lastChange = "2018-11-23 02:18:52 +0000";
layers = (
{
anchors = (
{
name = bottom;
position = "{448, -40}";
},
{
name = top;
position = "{448, 1084}";
}
);
layerId = UUID0;
paths = (
{
closed = 1;
nodes = (
"108 148 LINE",
"90 122 OFFCURVE",
"84 104 OFFCURVE",
"84 88 CURVE SMOOTH",
"84 66 OFFCURVE",
"90 50 OFFCURVE",
"108 0 CURVE",
"700 0 LINE SMOOTH",
"782 0 OFFCURVE",
"806 26 OFFCURVE",
"806 72 CURVE SMOOTH",
"806 94 OFFCURVE",
"802 120 OFFCURVE",
"794 140 CURVE",
"748 122 OFFCURVE",
"670 116 OFFCURVE",
"560 116 CURVE SMOOTH",
"448 116 LINE SMOOTH",
"400 116 OFFCURVE",
"316 114 OFFCURVE",
"246 110 CURVE",
"240 116 LINE",
"286 176 OFFCURVE",
"352 256 OFFCURVE",
"398 320 CURVE SMOOTH",
"774 834 LINE SMOOTH",
"790 856 OFFCURVE",
"798 874 OFFCURVE",
"798 890 CURVE SMOOTH",
"798 910 OFFCURVE",
"792 932 OFFCURVE",
"774 980 CURVE",
"124 980 LINE",
"118 956 OFFCURVE",
"116 926 OFFCURVE",
"116 914 CURVE SMOOTH",
"116 904 OFFCURVE",
"116 882 OFFCURVE",
"120 866 CURVE",
"366 866 LINE",
"454 866 OFFCURVE",
"596 870 OFFCURVE",
"642 876 CURVE",
"648 870 LINE",
"596 804 OFFCURVE",
"536 734 OFFCURVE",
"492 674 CURVE SMOOTH"
);
}
);
width = 888;
},
{
anchors = (
{
name = bottom;
position = "{450, -40}";
},
{
name = top;
position = "{450, 1084}";
}
);
layerId = UUID1;
paths = (
{
closed = 1;
nodes = (
"92 278 LINE",
"58 234 OFFCURVE",
"46 194 OFFCURVE",
"46 158 CURVE SMOOTH",
"46 120 OFFCURVE",
"56 76 OFFCURVE",
"82 0 CURVE",
"686 0 LINE SMOOTH",
"814 0 OFFCURVE",
"858 58 OFFCURVE",
"858 144 CURVE SMOOTH",
"858 188 OFFCURVE",
"848 218 OFFCURVE",
"824 274 CURVE",
"768 246 OFFCURVE",
"698 240 OFFCURVE",
"642 240 CURVE SMOOTH",
"576 240 LINE SMOOTH",
"526 240 OFFCURVE",
"478 236 OFFCURVE",
"422 228 CURVE",
"416 238 LINE",
"468 290 OFFCURVE",
"522 358 OFFCURVE",
"566 416 CURVE SMOOTH",
"800 726 LINE SMOOTH",
"820 754 OFFCURVE",
"830 792 OFFCURVE",
"830 822 CURVE SMOOTH",
"830 868 OFFCURVE",
"814 922 OFFCURVE",
"788 1000 CURVE",
"86 1000 LINE",
"76 956 OFFCURVE",
"68 908 OFFCURVE",
"68 858 CURVE SMOOTH",
"68 826 OFFCURVE",
"72 790 OFFCURVE",
"80 758 CURVE",
"226 758 LINE",
"298 758 OFFCURVE",
"396 766 OFFCURVE",
"472 774 CURVE",
"478 764 LINE",
"434 716 OFFCURVE",
"364 640 OFFCURVE",
"316 576 CURVE SMOOTH"
);
}
);
width = 900;
}
);
leftKerningGroup = z;
rightKerningGroup = z;
unicode = 007A;
},
{
glyphname = a.smcp;
lastChange = "2018-11-23 02:18:52 +0000";
layers = (
{
anchors = (
{
name = bottom;
position = "{524, -40}";
},
{
name = top;
position = "{524, 1188}";
}
);
layerId = UUID0;
paths = (
{
closed = 1;
nodes = (
"38 8 LINE",
"42 2 LINE",
"58 -4 OFFCURVE",
"82 -8 OFFCURVE",
"108 -8 CURVE SMOOTH",
"128 -8 OFFCURVE",
"152 -6 OFFCURVE",
"170 -2 CURVE",
"438 726 LINE SMOOTH",
"456 774 OFFCURVE",
"490 876 OFFCURVE",
"512 954 CURVE",
"520 954 LINE",
"546 872 OFFCURVE",
"592 740 OFFCURVE",
"620 664 CURVE SMOOTH",
"842 62 LINE SMOOTH",
"864 4 OFFCURVE",
"880 -12 OFFCURVE",
"926 -12 CURVE SMOOTH",
"960 -12 OFFCURVE",
"988 -6 OFFCURVE",
"1010 6 CURVE",
"604 1084 LINE",
"592 1088 OFFCURVE",
"548 1092 OFFCURVE",
"526 1092 CURVE SMOOTH",
"502 1092 OFFCURVE",
"456 1088 OFFCURVE",
"442 1084 CURVE"
);
},
{
closed = 1;
nodes = (
"640 274 LINE SMOOTH",
"652 274 OFFCURVE",
"758 276 OFFCURVE",
"770 276 CURVE",
"828 276 LINE",
"782 394 LINE",
"730 394 LINE",
"716 394 OFFCURVE",
"634 396 OFFCURVE",
"622 396 CURVE SMOOTH",
"426 396 LINE SMOOTH",
"414 396 OFFCURVE",
"320 394 OFFCURVE",
"306 394 CURVE",
"256 394 LINE",
"208 276 LINE",
"264 276 LINE",
"278 276 OFFCURVE",
"394 274 OFFCURVE",
"406 274 CURVE SMOOTH"
);
}
);
width = 1048;
},
{
anchors = (
{
name = bottom;
position = "{580, -40}";
},
{
name = top;
position = "{592, 1188}";
}
);
layerId = UUID1;
paths = (
{
closed = 1;
nodes = (
"6 28 LINE",
"18 10 LINE",
"54 -6 OFFCURVE",
"116 -14 OFFCURVE",
"172 -14 CURVE SMOOTH",
"224 -14 OFFCURVE",
"272 -10 OFFCURVE",
"312 0 CURVE",
"466 490 LINE SMOOTH",
"500 600 OFFCURVE",
"536 748 OFFCURVE",
"564 852 CURVE",
"576 852 LINE",
"602 744 OFFCURVE",
"632 602 OFFCURVE",
"664 494 CURVE SMOOTH",
"778 118 LINE SMOOTH",
"814 -6 OFFCURVE",
"894 -18 OFFCURVE",
"970 -18 CURVE SMOOTH",
"1014 -18 OFFCURVE",
"1104 -6 OFFCURVE",
"1154 16 CURVE",
"778 1104 LINE",
"700 1114 OFFCURVE",
"644 1116 OFFCURVE",
"592 1116 CURVE SMOOTH",
"536 1116 OFFCURVE",
"468 1114 OFFCURVE",
"394 1104 CURVE"
);
},
{
closed = 1;
nodes = (
"700 186 LINE SMOOTH",
"730 186 OFFCURVE",
"746 188 OFFCURVE",
"776 188 CURVE",
"930 188 LINE",
"840 444 LINE",
"702 444 LINE",
"672 444 OFFCURVE",
"658 446 OFFCURVE",
"628 446 CURVE SMOOTH",
"510 446 LINE SMOOTH",
"480 446 OFFCURVE",
"460 444 OFFCURVE",
"432 444 CURVE",
"304 444 LINE",
"202 188 LINE",
"350 188 LINE",
"380 188 OFFCURVE",
"396 186 OFFCURVE",
"426 186 CURVE SMOOTH"
);
}
);
width = 1160;
}
);
leftKerningGroup = a.smcp;
rightKerningGroup = a.smcp;
},
{
glyphname = b.smcp;
lastChange = "2018-11-23 02:18:52 +0000";
layers = (
{
anchors = (
{
name = bottom;
position = "{524, -40}";
},
{
name = top;
position = "{506, 1188}";
}
);
layerId = UUID0;
paths = (
{
closed = 1;
nodes = (
"184 1074 LINE",
"184 10 LINE",
"194 0 LINE",
"322 -2 OFFCURVE",
"406 -6 OFFCURVE",
"556 -6 CURVE SMOOTH",
"866 -6 OFFCURVE",
"974 140 OFFCURVE",
"974 302 CURVE SMOOTH",
"974 468 OFFCURVE",
"820 590 OFFCURVE",
"670 590 CURVE",
"670 568 LINE",
"818 580 OFFCURVE",
"914 684 OFFCURVE",
"914 806 CURVE SMOOTH",
"914 978 OFFCURVE",
"808 1090 OFFCURVE",
"534 1090 CURVE SMOOTH",
"420 1090 OFFCURVE",
"320 1086 OFFCURVE",
"194 1084 CURVE"
);
},
{
closed = 1;
nodes = (
"326 976 LINE",
"390 974 OFFCURVE",
"478 974 OFFCURVE",
"536 974 CURVE SMOOTH",
"728 974 OFFCURVE",
"768 888 OFFCURVE",
"768 804 CURVE SMOOTH",
"768 724 OFFCURVE",
"726 632 OFFCURVE",
"532 632 CURVE SMOOTH",
"268 632 LINE",
"268 514 LINE",
"548 514 LINE SMOOTH",
"766 514 OFFCURVE",
"826 394 OFFCURVE",
"826 310 CURVE SMOOTH",
"826 226 OFFCURVE",
"784 110 OFFCURVE",
"566 110 CURVE SMOOTH",
"482 110 OFFCURVE",
"410 108 OFFCURVE",
"326 108 CURVE"
);
}
);
width = 1076;
},
{
anchors = (
{
name = bottom;
position = "{550, -40}";
},
{
name = top;
position = "{538, 1188}";
}
);
layerId = UUID1;
paths = (
{
closed = 1;
nodes = (
"140 1094 LINE",
"140 8 LINE",
"152 -2 LINE",
"316 -6 OFFCURVE",
"468 -8 OFFCURVE",
"604 -8 CURVE SMOOTH",
"868 -8 OFFCURVE",
"1070 60 OFFCURVE",
"1070 324 CURVE SMOOTH",
"1070 468 OFFCURVE",
"946 610 OFFCURVE",
"796 610 CURVE",
"796 584 LINE",
"926 584 OFFCURVE",
"1012 704 OFFCURVE",
"1012 820 CURVE SMOOTH",
"1012 1040 OFFCURVE",
"822 1114 OFFCURVE",
"578 1114 CURVE SMOOTH",
"446 1114 OFFCURVE",
"254 1110 OFFCURVE",
"152 1106 CURVE"
);
},
{
closed = 1;
nodes = (
"460 892 LINE",
"496 890 OFFCURVE",
"540 890 OFFCURVE",
"562 890 CURVE SMOOTH",
"660 890 OFFCURVE",
"690 840 OFFCURVE",
"690 790 CURVE SMOOTH",
"690 738 OFFCURVE",
"660 688 OFFCURVE",
"560 688 CURVE SMOOTH",
"326 688 LINE",
"326 464 LINE",
"582 464 LINE SMOOTH",
"700 464 OFFCURVE",
"738 400 OFFCURVE",
"738 338 CURVE SMOOTH",
"738 282 OFFCURVE",
"710 218 OFFCURVE",
"598 218 CURVE SMOOTH",
"560 218 OFFCURVE",
"510 218 OFFCURVE",
"460 216 CURVE"
);
}
);
width = 1134;
}
);
leftKerningGroup = b.smcp;
},
{
glyphname = c.smcp;
lastChange = "2018-11-23 02:18:52 +0000";
layers = (
{
anchors = (
{
name = bottom;
position = "{552, -40}";
},
{
name = top;
position = "{568, 1188}";
}
);
layerId = UUID0;
paths = (
{
closed = 1;
nodes = (
"866 696 OFFCURVE",
"882 692 OFFCURVE",
"906 692 CURVE SMOOTH",
"972 692 OFFCURVE",
"982 736 OFFCURVE",
"982 778 CURVE SMOOTH",
"982 926 OFFCURVE",
"854 1108 OFFCURVE",
"568 1108 CURVE SMOOTH",
"314 1108 OFFCURVE",
"92 938 OFFCURVE",
"92 540 CURVE SMOOTH",
"92 252 OFFCURVE",
"218 -24 OFFCURVE",
"546 -24 CURVE SMOOTH",
"724 -24 OFFCURVE",
"874 46 OFFCURVE",
"970 134 CURVE",
"960 166 OFFCURVE",
"928 206 OFFCURVE",
"894 228 CURVE",
"780 142 OFFCURVE",
"672 100 OFFCURVE",
"566 100 CURVE SMOOTH",
"366 100 OFFCURVE",
"242 262 OFFCURVE",
"242 540 CURVE SMOOTH",
"242 838 OFFCURVE",
"360 990 OFFCURVE",
"566 990 CURVE SMOOTH",
"780 990 OFFCURVE",
"842 840 OFFCURVE",
"844 702 CURVE"
);
}
);
width = 1060;
},
{
anchors = (
{
name = bottom;
position = "{576, -40}";
},
{
name = top;
position = "{596, 1188}";
}
);
layerId = UUID1;
paths = (
{
closed = 1;
nodes = (
"784 590 OFFCURVE",
"822 586 OFFCURVE",
"854 586 CURVE SMOOTH",
"986 586 OFFCURVE",
"1056 640 OFFCURVE",
"1056 764 CURVE SMOOTH",
"1056 944 OFFCURVE",
"910 1134 OFFCURVE",
"596 1134 CURVE SMOOTH",
"316 1134 OFFCURVE",
"60 958 OFFCURVE",
"60 546 CURVE SMOOTH",
"60 274 OFFCURVE",
"174 -30 OFFCURVE",
"564 -30 CURVE SMOOTH",
"768 -30 OFFCURVE",
"928 46 OFFCURVE",
"1040 142 CURVE",
"1026 210 OFFCURVE",
"958 316 OFFCURVE",
"892 350 CURVE",
"816 294 OFFCURVE",
"712 242 OFFCURVE",
"614 242 CURVE SMOOTH",
"508 242 OFFCURVE",
"398 296 OFFCURVE",
"398 544 CURVE SMOOTH",
"398 758 OFFCURVE",
"448 876 OFFCURVE",
"584 876 CURVE SMOOTH",
"716 876 OFFCURVE",
"746 766 OFFCURVE",
"746 594 CURVE"
);
}
);
width = 1096;
}
);
leftKerningGroup = c.smcp;
},
{
glyphname = d.smcp;
lastChange = "2018-11-23 02:18:52 +0000";
layers = (
{
anchors = (
{
name = bottom;
position = "{554, -40}";
},
{
name = top;
position = "{538, 1188}";
}
);
layerId = UUID0;
paths = (
{
closed = 1;
nodes = (
"1040 726 OFFCURVE",
"1012 890 OFFCURVE",
"856 1008 CURVE SMOOTH",
"780 1066 OFFCURVE",
"638 1090 OFFCURVE",
"544 1090 CURVE",
"402 1090 OFFCURVE",
"346 1088 OFFCURVE",
"194 1084 CURVE",
"184 1074 LINE",
"184 10 LINE",
"194 0 LINE",
"344 -4 OFFCURVE",
"402 -6 OFFCURVE",
"544 -6 CURVE",
"638 -6 OFFCURVE",
"780 16 OFFCURVE",
"856 74 CURVE SMOOTH",
"1014 192 OFFCURVE",
"1040 354 OFFCURVE",
"1040 540 CURVE SMOOTH"
);
},
{
closed = 1;
nodes = (
"890 340 OFFCURVE",
"842 110 OFFCURVE",
"542 110 CURVE SMOOTH",
"460 110 OFFCURVE",
"398 108 OFFCURVE",
"326 108 CURVE",
"326 974 LINE",
"398 974 OFFCURVE",
"460 972 OFFCURVE",
"542 972 CURVE SMOOTH",
"842 972 OFFCURVE",
"890 742 OFFCURVE",
"890 540 CURVE"
);
}
);
width = 1138;
},
{
anchors = (
{
name = bottom;
position = "{594, -40}";
},
{
name = top;
position = "{588, 1188}";
}
);
layerId = UUID1;
paths = (
{
closed = 1;
nodes = (
"1158 736 OFFCURVE",
"1126 912 OFFCURVE",
"950 1030 CURVE SMOOTH",
"866 1088 OFFCURVE",
"714 1114 OFFCURVE",
"610 1114 CURVE",
"450 1114 OFFCURVE",
"310 1110 OFFCURVE",
"152 1106 CURVE",
"140 1094 LINE",
"140 10 LINE",
"152 -2 LINE",
"310 -6 OFFCURVE",
"450 -8 OFFCURVE",
"610 -8 CURVE",
"714 -8 OFFCURVE",
"866 14 OFFCURVE",
"950 70 CURVE SMOOTH",
"1128 190 OFFCURVE",
"1158 364 OFFCURVE",
"1158 550 CURVE SMOOTH"
);
},
{
closed = 1;
nodes = (
"822 412 OFFCURVE",
"794 244 OFFCURVE",
"610 244 CURVE SMOOTH",
"554 244 OFFCURVE",
"524 242 OFFCURVE",
"468 242 CURVE",
"468 862 LINE",
"522 860 OFFCURVE",
"554 860 OFFCURVE",
"610 860 CURVE SMOOTH",
"794 860 OFFCURVE",
"822 690 OFFCURVE",
"822 550 CURVE"
);
}
);
width = 1220;
}
);
leftKerningGroup = b.smcp;
rightKerningGroup = d.smcp;
},
{
glyphname = e.smcp;
lastChange = "2018-11-23 02:18:52 +0000";
layers = (
{
anchors = (
{
name = bottom;
position = "{542, -40}";
},
{
name = top;
position = "{540, 1188}";
}
);
layerId = UUID0;
paths = (
{
closed = 1;
nodes = (
"184 90 LINE",
"184 34 OFFCURVE",
"216 0 OFFCURVE",
"266 0 CURVE SMOOTH",
"322 0 LINE",
"322 118 LINE SMOOTH",
"322 130 OFFCURVE",
"324 164 OFFCURVE",
"324 188 CURVE SMOOTH",
"324 864 LINE SMOOTH",
"324 906 OFFCURVE",
"322 944 OFFCURVE",
"322 968 CURVE SMOOTH",
"322 1084 LINE",
"194 1084 LINE",
"184 1074 LINE"
);
},
{
closed = 1;
nodes = (
"430 612 LINE SMOOTH",
"390 612 OFFCURVE",
"326 610 OFFCURVE",
"274 610 CURVE",
"274 494 LINE",
"326 492 OFFCURVE",
"390 492 OFFCURVE",
"430 492 CURVE SMOOTH",
"782 492 LINE",
"788 512 OFFCURVE",
"788 536 OFFCURVE",
"788 552 CURVE SMOOTH",
"788 566 OFFCURVE",
"788 592 OFFCURVE",
"782 612 CURVE"
);
},
{
closed = 1;
nodes = (
"274 1084 LINE",
"274 966 LINE",
"326 964 OFFCURVE",
"390 964 OFFCURVE",
"430 964 CURVE SMOOTH",
"870 964 LINE",
"878 986 OFFCURVE",
"880 1012 OFFCURVE",
"880 1028 CURVE SMOOTH",
"880 1044 OFFCURVE",
"880 1064 OFFCURVE",
"876 1084 CURVE"
);
},
{
closed = 1;
nodes = (
"432 122 LINE SMOOTH",
"358 122 OFFCURVE",
"316 120 OFFCURVE",
"276 116 CURVE",
"276 0 LINE",
"812 0 LINE SMOOTH",
"862 0 OFFCURVE",
"894 22 OFFCURVE",
"902 66 CURVE SMOOTH",
"906 84 OFFCURVE",
"906 110 OFFCURVE",
"906 122 CURVE"
);
}
);
width = 1000;
},
{
anchors = (
{
name = bottom;
position = "{556, -40}";
},
{
name = top;
position = "{556, 1188}";
}
);
layerId = UUID1;
paths = (
{
closed = 1;
nodes = (
"140 182 LINE",
"140 68 OFFCURVE",
"214 -4 OFFCURVE",
"332 -4 CURVE SMOOTH",
"466 -4 LINE",
"466 258 LINE SMOOTH",
"466 310 OFFCURVE",
"468 332 OFFCURVE",
"468 384 CURVE SMOOTH",
"468 732 LINE SMOOTH",
"468 774 OFFCURVE",
"466 796 OFFCURVE",
"466 840 CURVE SMOOTH",
"466 1104 LINE",
"152 1104 LINE",
"140 1092 LINE"
);
},
{
closed = 1;
nodes = (
"594 684 LINE SMOOTH",
"548 684 OFFCURVE",
"410 682 OFFCURVE",
"352 680 CURVE",
"352 430 LINE",
"410 428 OFFCURVE",
"548 428 OFFCURVE",
"594 428 CURVE SMOOTH",
"842 428 LINE",
"856 466 OFFCURVE",
"860 520 OFFCURVE",
"860 558 CURVE SMOOTH",
"860 592 OFFCURVE",
"856 646 OFFCURVE",
"842 684 CURVE"
);
},
{
closed = 1;
nodes = (
"352 1104 LINE",
"352 842 LINE",
"410 840 OFFCURVE",
"548 838 OFFCURVE",
"594 838 CURVE SMOOTH",
"936 838 LINE",
"954 886 OFFCURVE",
"962 936 OFFCURVE",
"962 974 CURVE SMOOTH",
"962 1012 OFFCURVE",
"962 1056 OFFCURVE",
"952 1104 CURVE"
);
},
{
closed = 1;
nodes = (
"606 262 LINE SMOOTH",
"512 262 OFFCURVE",
"480 254 OFFCURVE",
"356 250 CURVE",
"356 -4 LINE",
"786 -4 LINE SMOOTH",
"906 -4 OFFCURVE",
"966 50 OFFCURVE",
"984 154 CURVE SMOOTH",
"990 192 OFFCURVE",
"990 234 OFFCURVE",
"990 262 CURVE"
);
}
);
width = 1062;
}
);
leftKerningGroup = b.smcp;
rightKerningGroup = e.smcp;
},
{
glyphname = f.smcp;
lastChange = "2018-11-23 02:18:52 +0000";
layers = (
{
anchors = (
{
name = bottom;
position = "{256, -40}";
},
{
name = top;
position = "{530, 1188}";
}
);
layerId = UUID0;
paths = (
{
closed = 1;
nodes = (
"326 758 LINE SMOOTH",
"326 836 OFFCURVE",
"324 918 OFFCURVE",
"324 998 CURVE SMOOTH",
"324 1084 LINE",
"194 1084 LINE",
"184 1076 LINE",
"184 0 LINE",
"202 -4 OFFCURVE",
"228 -6 OFFCURVE",
"254 -6 CURVE SMOOTH",
"280 -6 OFFCURVE",
"306 -4 OFFCURVE",
"326 0 CURVE"
);
},
{
closed = 1;
nodes = (
"272 1084 LINE",
"272 968 LINE",
"334 964 OFFCURVE",
"416 962 OFFCURVE",
"518 962 CURVE SMOOTH",
"790 962 LINE SMOOTH",
"856 962 OFFCURVE",
"872 986 OFFCURVE",
"872 1028 CURVE SMOOTH",
"872 1044 OFFCURVE",
"868 1068 OFFCURVE",
"862 1084 CURVE"
);
},
{
closed = 1;
nodes = (
"424 606 LINE SMOOTH",
"384 606 OFFCURVE",
"324 604 OFFCURVE",
"272 604 CURVE",
"272 490 LINE",
"324 490 OFFCURVE",
"384 488 OFFCURVE",
"424 488 CURVE SMOOTH",
"774 488 LINE",
"778 508 OFFCURVE",
"780 530 OFFCURVE",
"780 546 CURVE SMOOTH",
"780 562 OFFCURVE",
"778 586 OFFCURVE",
"774 606 CURVE"
);
}
);
width = 912;
},
{
anchors = (
{
name = bottom;
position = "{304, -40}";
},
{
name = top;
position = "{540, 1188}";
}
);
layerId = UUID1;
paths = (
{
closed = 1;
nodes = (
"472 758 LINE SMOOTH",
"472 846 OFFCURVE",
"470 942 OFFCURVE",
"470 1036 CURVE SMOOTH",
"470 1104 LINE",
"152 1104 LINE",
"140 1094 LINE",
"140 0 LINE",
"198 -10 OFFCURVE",
"262 -12 OFFCURVE",
"306 -12 CURVE SMOOTH",
"350 -12 OFFCURVE",
"414 -10 OFFCURVE",
"472 0 CURVE"
);
},
{
closed = 1;
nodes = (
"330 1104 LINE",
"330 834 LINE",
"416 834 OFFCURVE",
"494 832 OFFCURVE",
"580 832 CURVE SMOOTH",
"788 832 LINE SMOOTH",
"904 832 OFFCURVE",
"950 888 OFFCURVE",
"950 982 CURVE SMOOTH",
"950 1012 OFFCURVE",
"946 1066 OFFCURVE",
"936 1104 CURVE"
);
},
{
closed = 1;
nodes = (
"488 658 LINE SMOOTH",
"434 658 OFFCURVE",
"374 656 OFFCURVE",
"344 654 CURVE",
"344 404 LINE",
"374 402 OFFCURVE",
"434 400 OFFCURVE",
"488 400 CURVE SMOOTH",
"820 400 LINE",
"832 438 OFFCURVE",
"836 496 OFFCURVE",
"836 534 CURVE SMOOTH",
"836 568 OFFCURVE",
"832 622 OFFCURVE",
"820 658 CURVE"
);
}
);
width = 980;
}
);
leftKerningGroup = b.smcp;
},
{
glyphname = g.smcp;
lastChange = "2018-11-23 02:18:52 +0000";
layers = (
{
anchors = (
{
name = bottom;
position = "{582, -40}";
},
{
name = top;
position = "{592, 1188}";
}
);
layerId = UUID0;
paths = (
{
closed = 1;
nodes = (
"876 1064 OFFCURVE",
"726 1108 OFFCURVE",
"588 1108 CURVE SMOOTH",
"344 1108 OFFCURVE",
"96 960 OFFCURVE",
"96 538 CURVE SMOOTH",
"96 262 OFFCURVE",
"206 -24 OFFCURVE",
"564 -24 CURVE SMOOTH",
"716 -24 OFFCURVE",
"868 10 OFFCURVE",
"976 48 CURVE",
"904 156 LINE",
"848 134 OFFCURVE",
"742 96 OFFCURVE",
"592 96 CURVE SMOOTH",
"362 96 OFFCURVE",
"246 246 OFFCURVE",
"246 536 CURVE SMOOTH",
"246 872 OFFCURVE",
"404 984 OFFCURVE",
"580 984 CURVE SMOOTH",
"704 984 OFFCURVE",
"814 946 OFFCURVE",
"898 884 CURVE",
"928 904 OFFCURVE",
"962 946 OFFCURVE",
"974 990 CURVE"
);
},
{
closed = 1;
nodes = (
"836 44 LINE",
"906 46 OFFCURVE",
"924 44 OFFCURVE",
"976 48 CURVE",
"976 462 LINE",
"864 528 LINE",
"842 478 OFFCURVE",
"836 388 OFFCURVE",
"836 334 CURVE SMOOTH"
);
},
{
closed = 1;
nodes = (
"584 538 OFFCURVE",
"580 512 OFFCURVE",
"580 498 CURVE SMOOTH",
"580 452 OFFCURVE",
"604 432 OFFCURVE",
"648 432 CURVE SMOOTH",
"742 432 OFFCURVE",
"872 432 OFFCURVE",
"976 438 CURVE",
"976 466 LINE SMOOTH",
"976 528 OFFCURVE",
"948 558 OFFCURVE",
"844 558 CURVE SMOOTH",
"756 558 OFFCURVE",
"674 556 OFFCURVE",
"590 554 CURVE"
);
}
);
width = 1098;
},
{
anchors = (
{
name = bottom;
position = "{638, -40}";
},
{
name = top;
position = "{638, 1188}";
}
);
layerId = UUID1;
paths = (
{
closed = 1;
nodes = (
"958 1092 OFFCURVE",
"800 1134 OFFCURVE",
"638 1134 CURVE SMOOTH",
"328 1134 OFFCURVE",
"60 950 OFFCURVE",
"60 546 CURVE SMOOTH",
"60 202 OFFCURVE",
"220 -30 OFFCURVE",
"614 -30 CURVE SMOOTH",
"790 -30 OFFCURVE",
"1002 4 OFFCURVE",
"1092 34 CURVE",
"922 248 LINE",
"858 234 OFFCURVE",
"766 214 OFFCURVE",
"672 214 CURVE SMOOTH",
"482 214 OFFCURVE",
"398 322 OFFCURVE",
"398 544 CURVE SMOOTH",
"398 752 OFFCURVE",
"488 870 OFFCURVE",
"658 870 CURVE SMOOTH",
"756 870 OFFCURVE",
"850 844 OFFCURVE",
"948 796 CURVE",
"1010 838 OFFCURVE",
"1066 952 OFFCURVE",
"1072 1038 CURVE"
);
},
{
closed = 1;
nodes = (
"788 30 LINE",
"856 32 OFFCURVE",
"1038 30 OFFCURVE",
"1092 34 CURVE",
"1092 476 LINE",
"812 560 LINE",
"788 472 OFFCURVE",
"788 192 OFFCURVE",
"788 288 CURVE SMOOTH"
);
},
{
closed = 1;
nodes = (
"586 618 OFFCURVE",
"580 566 OFFCURVE",
"580 518 CURVE SMOOTH",
"580 428 OFFCURVE",
"632 388 OFFCURVE",
"728 388 CURVE SMOOTH",
"840 388 OFFCURVE",
"978 388 OFFCURVE",
"1092 390 CURVE",
"1092 478 LINE SMOOTH",
"1092 590 OFFCURVE",
"1044 654 OFFCURVE",
"886 654 CURVE SMOOTH",
"788 654 OFFCURVE",
"694 654 OFFCURVE",
"596 650 CURVE"
);
}
);
width = 1184;
}
);
leftKerningGroup = c.smcp;
},
{
glyphname = h.smcp;
lastChange = "2018-11-23 02:18:52 +0000";
layers = (
{
anchors = (
{
name = bottom;
position = "{604, -40}";
},
{
name = top;
position = "{604, 1188}";
}
);
layerId = UUID0;
paths = (
{
closed = 1;
nodes = (
"776 504 LINE SMOOTH",
"788 504 OFFCURVE",
"870 506 OFFCURVE",
"884 506 CURVE SMOOTH",
"912 506 OFFCURVE",
"940 504 OFFCURVE",
"968 504 CURVE",
"968 626 LINE",
"940 626 OFFCURVE",
"912 624 OFFCURVE",
"884 624 CURVE SMOOTH",
"870 624 OFFCURVE",
"788 626 OFFCURVE",
"776 626 CURVE SMOOTH",
"432 626 LINE SMOOTH",
"420 626 OFFCURVE",
"338 624 OFFCURVE",
"324 624 CURVE SMOOTH",
"296 624 OFFCURVE",
"268 626 OFFCURVE",
"242 626 CURVE",
"242 504 LINE",
"268 504 OFFCURVE",
"296 506 OFFCURVE",
"324 506 CURVE SMOOTH",
"338 506 OFFCURVE",
"420 504 OFFCURVE",
"432 504 CURVE SMOOTH"
);
},
{
closed = 1;
nodes = (
"326 386 LINE SMOOTH",
"326 432 OFFCURVE",
"324 462 OFFCURVE",
"324 506 CURVE SMOOTH",
"324 624 LINE SMOOTH",
"324 666 OFFCURVE",
"326 696 OFFCURVE",
"326 742 CURVE SMOOTH",
"326 1084 LINE",
"306 1088 OFFCURVE",
"280 1090 OFFCURVE",
"254 1090 CURVE SMOOTH",
"230 1090 OFFCURVE",
"202 1088 OFFCURVE",
"184 1084 CURVE",
"184 0 LINE",
"202 -4 OFFCURVE",
"230 -6 OFFCURVE",
"254 -6 CURVE SMOOTH",
"280 -6 OFFCURVE",
"306 -4 OFFCURVE",
"326 0 CURVE"
);
},
{
closed = 1;
nodes = (
"882 0 LINE",
"900 -4 OFFCURVE",
"926 -6 OFFCURVE",
"952 -6 CURVE",
"978 -6 OFFCURVE",
"1004 -4 OFFCURVE",
"1024 0 CURVE",
"1024 1084 LINE",
"1004 1088 OFFCURVE",
"978 1090 OFFCURVE",
"952 1090 CURVE SMOOTH",
"926 1090 OFFCURVE",
"900 1088 OFFCURVE",
"882 1084 CURVE",
"882 742 LINE SMOOTH",
"882 696 OFFCURVE",
"884 666 OFFCURVE",
"884 624 CURVE SMOOTH",
"884 506 LINE SMOOTH",
"884 462 OFFCURVE",
"882 432 OFFCURVE",
"882 386 CURVE SMOOTH"
);
}
);
width = 1208;
},
{
anchors = (
{
name = bottom;
position = "{634, -40}";
},
{
name = top;
position = "{634, 1188}";
}
);
layerId = UUID1;
paths = (
{
closed = 1;
nodes = (
"716 438 LINE SMOOTH",
"746 438 OFFCURVE",
"770 440 OFFCURVE",
"800 440 CURVE SMOOTH",
"866 440 OFFCURVE",
"928 438 OFFCURVE",
"994 438 CURVE",
"994 706 LINE",
"928 706 OFFCURVE",
"866 704 OFFCURVE",
"800 704 CURVE SMOOTH",
"770 704 OFFCURVE",
"746 706 OFFCURVE",
"716 706 CURVE SMOOTH",
"556 706 LINE SMOOTH",
"526 706 OFFCURVE",
"500 704 OFFCURVE",
"470 704 CURVE SMOOTH",
"406 704 OFFCURVE",
"338 706 OFFCURVE",
"272 706 CURVE",
"272 438 LINE",
"338 438 OFFCURVE",
"406 440 OFFCURVE",
"470 440 CURVE SMOOTH",
"500 440 OFFCURVE",
"526 438 OFFCURVE",
"556 438 CURVE SMOOTH"
);
},
{
closed = 1;
nodes = (
"472 322 LINE SMOOTH",
"472 368 OFFCURVE",
"470 398 OFFCURVE",
"470 440 CURVE SMOOTH",
"470 704 LINE SMOOTH",
"470 746 OFFCURVE",
"472 778 OFFCURVE",
"472 822 CURVE SMOOTH",
"472 1104 LINE",
"416 1116 OFFCURVE",
"352 1118 OFFCURVE",
"310 1118 CURVE SMOOTH",
"272 1118 OFFCURVE",
"194 1116 OFFCURVE",
"140 1104 CURVE",
"140 0 LINE",
"194 -10 OFFCURVE",
"272 -12 OFFCURVE",
"310 -12 CURVE SMOOTH",
"352 -12 OFFCURVE",
"416 -10 OFFCURVE",
"472 0 CURVE"
);
},
{
closed = 1;
nodes = (
"798 0 LINE",
"856 -10 OFFCURVE",
"920 -12 OFFCURVE",
"964 -12 CURVE",
"1008 -12 OFFCURVE",
"1072 -10 OFFCURVE",
"1130 0 CURVE",
"1130 1104 LINE",
"1076 1116 OFFCURVE",
"998 1118 OFFCURVE",
"960 1118 CURVE SMOOTH",
"918 1118 OFFCURVE",
"854 1116 OFFCURVE",
"798 1104 CURVE",
"798 822 LINE SMOOTH",
"798 778 OFFCURVE",
"800 746 OFFCURVE",
"800 704 CURVE SMOOTH",
"800 440 LINE SMOOTH",
"800 398 OFFCURVE",
"798 368 OFFCURVE",
"798 322 CURVE SMOOTH"
);
}
);
width = 1270;
}
);
leftKerningGroup = b.smcp;
rightKerningGroup = h.smcp;
},
{
glyphname = i.smcp;
lastChange = "2018-11-23 02:18:52 +0000";
layers = (
{
anchors = (
{
name = bottom;
position = "{262, -40}";
},
{
name = top;
position = "{262, 1188}";
}
);
layerId = UUID0;
paths = (
{
closed = 1;
nodes = (
"192 0 LINE",
"210 -4 OFFCURVE",
"238 -6 OFFCURVE",
"262 -6 CURVE SMOOTH",
"288 -6 OFFCURVE",
"314 -4 OFFCURVE",
"334 0 CURVE",
"334 1084 LINE",
"314 1088 OFFCURVE",
"288 1090 OFFCURVE",
"262 1090 CURVE SMOOTH",
"238 1090 OFFCURVE",
"210 1088 OFFCURVE",
"192 1084 CURVE"
);
}
);
width = 526;
},
{
anchors = (
{
name = bottom;
position = "{314, -40}";
},
{
name = top;
position = "{314, 1188}";
}
);
layerId = UUID1;
paths = (
{
closed = 1;
nodes = (
"144 0 LINE",
"198 -10 OFFCURVE",
"276 -12 OFFCURVE",
"314 -12 CURVE SMOOTH",
"356 -12 OFFCURVE",
"420 -10 OFFCURVE",
"476 0 CURVE",
"476 1104 LINE",
"420 1114 OFFCURVE",
"356 1116 OFFCURVE",
"314 1116 CURVE SMOOTH",
"276 1116 OFFCURVE",
"198 1114 OFFCURVE",
"144 1104 CURVE"
);
}
);
width = 620;
}
);
leftKerningGroup = b.smcp;
rightKerningGroup = h.smcp;
},
{
glyphname = j.smcp;
lastChange = "2018-11-23 02:18:52 +0000";
layers = (
{
anchors = (
{
name = bottom;
position = "{344, -40}";
},
{
name = top;
position = "{532, 1188}";
}
);
layerId = UUID0;
paths = (
{
closed = 1;
nodes = (
"32 130 OFFCURVE",
"12 88 OFFCURVE",
"8 50 CURVE",
"72 14 OFFCURVE",
"168 -20 OFFCURVE",
"274 -20 CURVE SMOOTH",
"500 -20 OFFCURVE",
"604 100 OFFCURVE",
"604 362 CURVE SMOOTH",
"604 1084 LINE",
"586 1088 OFFCURVE",
"560 1090 OFFCURVE",
"534 1090 CURVE SMOOTH",
"508 1090 OFFCURVE",
"482 1088 OFFCURVE",
"462 1084 CURVE",
"462 364 LINE",
"462 182 OFFCURVE",
"412 98 OFFCURVE",
"266 98 CURVE SMOOTH",
"196 98 OFFCURVE",
"108 128 OFFCURVE",
"60 156 CURVE"
);
}
);
width = 760;
},
{
anchors = (
{
name = bottom;
position = "{386, -40}";
},
{
name = top;
position = "{584, 1188}";
}
);
layerId = UUID1;
paths = (
{
closed = 1;
nodes = (
"54 228 OFFCURVE",
"16 140 OFFCURVE",
"2 60 CURVE",
"66 10 OFFCURVE",
"202 -30 OFFCURVE",
"320 -30 CURVE SMOOTH",
"638 -30 OFFCURVE",
"750 138 OFFCURVE",
"750 434 CURVE SMOOTH",
"750 1104 LINE",
"694 1116 OFFCURVE",
"626 1116 OFFCURVE",
"584 1116 CURVE SMOOTH",
"546 1116 OFFCURVE",
"472 1114 OFFCURVE",
"418 1104 CURVE",
"418 420 LINE",
"418 298 OFFCURVE",
"374 232 OFFCURVE",
"276 232 CURVE SMOOTH",
"228 232 OFFCURVE",
"168 252 OFFCURVE",
"112 288 CURVE"
);
}
);
width = 868;
}
);
leftKerningGroup = j.smcp;
rightKerningGroup = u.smcp;
},
{
glyphname = k.smcp;
lastChange = "2018-11-23 02:18:52 +0000";
layers = (
{
anchors = (
{
name = bottom;
position = "{540, -40}";
},
{
name = top;
position = "{532, 1188}";
}
);
layerId = UUID0;
paths = (
{
closed = 1;
nodes = (
"184 0 LINE",
"202 -4 OFFCURVE",
"230 -6 OFFCURVE",
"254 -6 CURVE SMOOTH",
"280 -6 OFFCURVE",
"306 -4 OFFCURVE",
"326 0 CURVE",
"326 1084 LINE",
"306 1088 OFFCURVE",
"280 1090 OFFCURVE",
"254 1090 CURVE SMOOTH",
"230 1090 OFFCURVE",
"202 1088 OFFCURVE",
"184 1084 CURVE"
);
},
{
closed = 1;
nodes = (
"984 66 OFFCURVE",
"956 114 OFFCURVE",
"934 160 CURVE SMOOTH",
"818 404 LINE SMOOTH",
"762 520 OFFCURVE",
"698 592 OFFCURVE",
"560 592 CURVE SMOOTH",
"244 592 LINE",
"244 490 LINE",
"316 494 LINE SMOOTH",
"366 496 OFFCURVE",
"436 500 OFFCURVE",
"466 500 CURVE SMOOTH",
"582 500 OFFCURVE",
"632 462 OFFCURVE",
"686 350 CURVE SMOOTH",
"816 82 LINE SMOOTH",
"846 22 OFFCURVE",
"866 -10 OFFCURVE",
"920 -10 CURVE SMOOTH",
"952 -10 OFFCURVE",
"990 12 OFFCURVE",
"1010 42 CURVE"
);
},
{
closed = 1;
nodes = (
"514 662 LINE SMOOTH",
"492 632 OFFCURVE",
"482 624 OFFCURVE",
"448 622 CURVE SMOOTH",
"256 614 LINE",
"256 536 LINE",
"456 536 LINE SMOOTH",
"544 536 OFFCURVE",
"612 578 OFFCURVE",
"660 648 CURVE SMOOTH",
"952 1070 LINE",
"940 1084 LINE",
"912 1086 OFFCURVE",
"886 1088 OFFCURVE",
"862 1088 CURVE SMOOTH",
"806 1088 OFFCURVE",
"788 1064 OFFCURVE",
"760 1024 CURVE SMOOTH"
);
}
);
width = 1056;
},
{
anchors = (
{
name = bottom;
position = "{596, -40}";
},
{
name = top;
position = "{588, 1188}";
}
);
layerId = UUID1;
paths = (
{
closed = 1;
nodes = (
"140 0 LINE",
"194 -10 OFFCURVE",
"272 -12 OFFCURVE",
"310 -12 CURVE SMOOTH",
"352 -12 OFFCURVE",
"416 -10 OFFCURVE",
"472 0 CURVE",
"472 1104 LINE",
"416 1114 OFFCURVE",
"352 1116 OFFCURVE",
"310 1116 CURVE SMOOTH",
"272 1116 OFFCURVE",
"194 1114 OFFCURVE",
"140 1104 CURVE"
);
},
{
closed = 1;
nodes = (
"1080 122 OFFCURVE",
"1056 176 OFFCURVE",
"1024 252 CURVE SMOOTH",
"958 422 LINE SMOOTH",
"906 544 OFFCURVE",
"852 618 OFFCURVE",
"634 618 CURVE SMOOTH",
"244 618 LINE",
"244 414 LINE",
"334 424 LINE SMOOTH",
"390 430 OFFCURVE",
"492 438 OFFCURVE",
"532 436 CURVE SMOOTH",
"590 432 OFFCURVE",
"616 406 OFFCURVE",
"644 334 CURVE SMOOTH",
"724 130 LINE SMOOTH",
"760 40 OFFCURVE",
"800 -14 OFFCURVE",
"912 -16 CURVE SMOOTH",
"998 -18 OFFCURVE",
"1086 24 OFFCURVE",
"1130 80 CURVE"
);
},
{
closed = 1;
nodes = (
"564 754 LINE SMOOTH",
"538 708 OFFCURVE",
"534 698 OFFCURVE",
"476 698 CURVE SMOOTH",
"264 696 LINE",
"264 538 LINE",
"584 538 LINE SMOOTH",
"724 538 OFFCURVE",
"820 606 OFFCURVE",
"900 746 CURVE SMOOTH",
"1094 1084 LINE",
"1076 1104 LINE",
"1022 1112 OFFCURVE",
"910 1118 OFFCURVE",
"876 1118 CURVE SMOOTH",
"776 1118 OFFCURVE",
"742 1082 OFFCURVE",
"706 1012 CURVE SMOOTH"
);
}
);
width = 1160;
}
);
leftKerningGroup = b.smcp;
rightKerningGroup = k.smcp;
},
{
glyphname = l.smcp;
lastChange = "2018-11-23 02:18:52 +0000";
layers = (
{
anchors = (
{
name = bottom;
position = "{518, -40}";
},
{
name = top;
position = "{256, 1188}";
}
);
layerId = UUID0;
paths = (
{
closed = 1;
nodes = (
"326 1000 LINE",
"326 1062 OFFCURVE",
"314 1090 OFFCURVE",
"252 1090 CURVE SMOOTH",
"194 1090 LINE",
"184 1080 LINE",
"184 92 LINE SMOOTH",
"184 32 OFFCURVE",
"220 0 OFFCURVE",
"266 0 CURVE SMOOTH",
"326 0 LINE"
);
},
{
closed = 1;
nodes = (
"482 124 LINE",
"398 124 OFFCURVE",
"304 118 OFFCURVE",
"216 104 CURVE",
"266 0 LINE",
"764 0 LINE SMOOTH",
"814 0 OFFCURVE",
"846 22 OFFCURVE",
"854 66 CURVE SMOOTH",
"858 84 OFFCURVE",
"858 110 OFFCURVE",
"858 124 CURVE"
);
}
);
width = 912;
},
{
anchors = (
{
name = bottom;
position = "{522, -40}";
},
{
name = top;
position = "{292, 1188}";
}
);
layerId = UUID1;
paths = (
{
closed = 1;
nodes = (
"468 908 LINE",
"468 1056 OFFCURVE",
"400 1114 OFFCURVE",
"274 1114 CURVE SMOOTH",
"148 1114 LINE",
"136 1102 LINE",
"136 180 LINE SMOOTH",
"136 66 OFFCURVE",
"208 -6 OFFCURVE",
"328 -6 CURVE SMOOTH",
"468 -6 LINE"
);
},
{
closed = 1;
nodes = (
"656 268 LINE",
"536 268 OFFCURVE",
"346 250 OFFCURVE",
"188 214 CURVE",
"328 -6 LINE",
"706 -6 LINE SMOOTH",
"826 -6 OFFCURVE",
"902 52 OFFCURVE",
"920 156 CURVE SMOOTH",
"926 194 OFFCURVE",
"926 228 OFFCURVE",
"928 268 CURVE"
);
}
);
width = 970;
}
);
leftKerningGroup = b.smcp;
rightKerningGroup = l.smcp;
},
{
glyphname = m.smcp;
lastChange = "2018-11-23 02:18:52 +0000";
layers = (
{
anchors = (
{
name = bottom;
position = "{714, -40}";
},
{
name = top;
position = "{716, 1188}";
}
);
layerId = UUID0;
paths = (
{
closed = 1;
nodes = (
"156 2 LINE",
"174 -4 OFFCURVE",
"206 -8 OFFCURVE",
"230 -8 CURVE SMOOTH",
"254 -8 OFFCURVE",
"276 -6 OFFCURVE",
"298 -2 CURVE",
"352 650 LINE SMOOTH",
"358 720 OFFCURVE",
"366 852 OFFCURVE",
"366 928 CURVE",
"376 928 LINE",
"646 160 LINE",
"666 156 OFFCURVE",
"690 154 OFFCURVE",
"714 154 CURVE SMOOTH",
"738 154 OFFCURVE",
"764 156 OFFCURVE",
"784 160 CURVE",
"1056 928 LINE",
"1066 928 LINE",
"1066 852 OFFCURVE",
"1074 720 OFFCURVE",
"1080 650 CURVE SMOOTH",
"1134 -2 LINE",
"1156 -6 OFFCURVE",
"1176 -8 OFFCURVE",
"1198 -8 CURVE SMOOTH",
"1222 -8 OFFCURVE",
"1254 -4 OFFCURVE",
"1276 2 CURVE",
"1176 1084 LINE",
"1156 1090 OFFCURVE",
"1106 1094 OFFCURVE",
"1078 1094 CURVE SMOOTH",
"1048 1094 OFFCURVE",
"1002 1090 OFFCURVE",
"982 1084 CURVE",
"794 532 LINE SMOOTH",
"774 482 OFFCURVE",
"726 336 OFFCURVE",
"722 306 CURVE",
"714 306 LINE",
"708 336 OFFCURVE",
"658 482 OFFCURVE",
"640 532 CURVE SMOOTH",
"448 1084 LINE",
"424 1092 OFFCURVE",
"384 1094 OFFCURVE",
"354 1094 CURVE SMOOTH",
"324 1094 OFFCURVE",
"282 1092 OFFCURVE",
"256 1084 CURVE"
);
}
);
width = 1432;
},
{
anchors = (
{
name = bottom;
position = "{764, -40}";
},
{
name = top;
position = "{762, 1188}";
}
);
layerId = UUID1;
paths = (
{
closed = 1;
nodes = (
"96 4 LINE",
"140 -6 OFFCURVE",
"200 -12 OFFCURVE",
"264 -12 CURVE SMOOTH",
"312 -12 OFFCURVE",
"368 -8 OFFCURVE",
"412 0 CURVE",
"436 326 LINE SMOOTH",
"448 472 OFFCURVE",
"442 666 OFFCURVE",
"442 784 CURVE",
"456 784 LINE",
"592 170 LINE",
"636 162 OFFCURVE",
"716 158 OFFCURVE",
"762 158 CURVE SMOOTH",
"806 158 OFFCURVE",
"886 162 OFFCURVE",
"934 170 CURVE",
"1070 784 LINE",
"1082 784 LINE",
"1084 668 OFFCURVE",
"1076 470 OFFCURVE",
"1088 328 CURVE SMOOTH",
"1114 0 LINE",
"1158 -8 OFFCURVE",
"1218 -12 OFFCURVE",
"1266 -12 CURVE SMOOTH",
"1330 -12 OFFCURVE",
"1388 -6 OFFCURVE",
"1430 4 CURVE",
"1316 1104 LINE",
"1252 1116 OFFCURVE",
"1160 1120 OFFCURVE",
"1106 1120 CURVE SMOOTH",
"1056 1120 OFFCURVE",
"968 1116 OFFCURVE",
"902 1104 CURVE",
"812 680 LINE SMOOTH",
"800 626 OFFCURVE",
"786 538 OFFCURVE",
"770 430 CURVE",
"756 430 LINE",
"740 538 OFFCURVE",
"726 628 OFFCURVE",
"714 680 CURVE SMOOTH",
"624 1104 LINE",
"568 1116 OFFCURVE",
"472 1120 OFFCURVE",
"420 1120 CURVE SMOOTH",
"366 1120 OFFCURVE",
"278 1116 OFFCURVE",
"210 1104 CURVE"
);
}
);
width = 1526;
}
);
},
{
glyphname = n.smcp;
lastChange = "2018-11-23 02:18:52 +0000";
layers = (
{
anchors = (
{
name = bottom;
position = "{600, -40}";
},
{
name = top;
position = "{612, 1188}";
}
);
layerId = UUID0;
paths = (
{
closed = 1;
nodes = (
"184 0 LINE",
"208 -4 OFFCURVE",
"236 -6 OFFCURVE",
"252 -6 CURVE SMOOTH",
"272 -6 OFFCURVE",
"296 -4 OFFCURVE",
"322 0 CURVE",
"322 560 LINE SMOOTH",
"322 638 OFFCURVE",
"318 804 OFFCURVE",
"312 902 CURVE",
"328 904 LINE",
"350 1084 LINE",
"328 1088 OFFCURVE",
"288 1090 OFFCURVE",
"268 1090 CURVE SMOOTH",
"252 1090 OFFCURVE",
"208 1088 OFFCURVE",
"184 1084 CURVE"
);
},
{
closed = 1;
nodes = (
"868 0 LINE",
"1034 32 LINE",
"902 172 LINE",
"864 240 OFFCURVE",
"824 314 OFFCURVE",
"780 386 CURVE",
"350 1084 LINE",
"184 1064 LINE",
"320 904 LINE",
"358 834 OFFCURVE",
"398 766 OFFCURVE",
"442 694 CURVE SMOOTH"
);
},
{
closed = 1;
nodes = (
"1024 1090 LINE",
"970 1090 LINE SMOOTH",
"908 1090 OFFCURVE",
"896 1062 OFFCURVE",
"896 1000 CURVE SMOOTH",
"896 522 LINE SMOOTH",
"896 442 OFFCURVE",
"904 266 OFFCURVE",
"912 174 CURVE",
"896 172 LINE",
"868 0 LINE",
"890 -4 OFFCURVE",
"932 -6 OFFCURVE",
"950 -6 CURVE SMOOTH",
"968 -6 OFFCURVE",
"1010 -4 OFFCURVE",
"1034 0 CURVE",
"1034 1080 LINE"
);
}
);
width = 1218;
},
{
anchors = (
{
name = bottom;
position = "{636, -40}";
},
{
name = top;
position = "{648, 1188}";
}
);
layerId = UUID1;
paths = (
{
closed = 1;
nodes = (
"140 0 LINE",
"192 -10 OFFCURVE",
"256 -12 OFFCURVE",
"296 -12 CURVE SMOOTH",
"338 -12 OFFCURVE",
"390 -10 OFFCURVE",
"444 0 CURVE",
"444 282 LINE SMOOTH",
"444 348 OFFCURVE",
"434 574 OFFCURVE",
"426 738 CURVE",
"440 744 LINE",
"516 1104 LINE",
"464 1116 OFFCURVE",
"368 1116 OFFCURVE",
"326 1116 CURVE SMOOTH",
"284 1116 OFFCURVE",
"192 1108 OFFCURVE",
"140 1096 CURVE"
);
},
{
closed = 1;
nodes = (
"764 0 LINE",
"1146 38 LINE",
"854 342 LINE",
"834 390 OFFCURVE",
"752 584 OFFCURVE",
"734 620 CURVE",
"516 1104 LINE",
"140 1058 LINE",
"432 744 LINE",
"452 700 OFFCURVE",
"522 526 OFFCURVE",
"540 486 CURVE SMOOTH"
);
},
{
closed = 1;
nodes = (
"1134 1118 LINE",
"1026 1118 LINE SMOOTH",
"900 1118 OFFCURVE",
"834 1086 OFFCURVE",
"834 938 CURVE SMOOTH",
"834 810 LINE SMOOTH",
"834 710 OFFCURVE",
"854 482 OFFCURVE",
"862 346 CURVE",
"848 342 LINE",
"764 0 LINE",
"814 -12 OFFCURVE",
"918 -12 OFFCURVE",
"960 -12 CURVE SMOOTH",
"1000 -12 OFFCURVE",
"1092 -6 OFFCURVE",
"1146 6 CURVE",
"1146 1104 LINE"
);
}
);
width = 1286;
}
);
leftKerningGroup = b.smcp;
rightKerningGroup = h.smcp;
},
{
glyphname = o.smcp;
lastChange = "2018-11-23 02:18:52 +0000";
layers = (
{
anchors = (
{
name = bottom;
position = "{578, -40}";
},
{
name = top;
position = "{578, 1188}";
}
);
layerId = UUID0;
paths = (
{
closed = 1;
nodes = (
"242 742 OFFCURVE",
"308 992 OFFCURVE",
"578 992 CURVE SMOOTH",
"850 992 OFFCURVE",
"914 742 OFFCURVE",
"914 542 CURVE SMOOTH",
"914 342 OFFCURVE",
"850 92 OFFCURVE",
"578 92 CURVE SMOOTH",
"308 92 OFFCURVE",
"242 342 OFFCURVE",
"242 542 CURVE SMOOTH"
);
},
{
closed = 1;
nodes = (
"92 366 OFFCURVE",
"150 178 OFFCURVE",
"286 70 CURVE SMOOTH",
"358 14 OFFCURVE",
"446 -24 OFFCURVE",
"578 -24 CURVE SMOOTH",
"712 -24 OFFCURVE",
"800 14 OFFCURVE",
"872 70 CURVE SMOOTH",
"1008 178 OFFCURVE",
"1066 366 OFFCURVE",
"1066 542 CURVE SMOOTH",
"1066 716 OFFCURVE",
"1008 908 OFFCURVE",
"872 1016 CURVE SMOOTH",
"800 1072 OFFCURVE",
"712 1108 OFFCURVE",
"578 1108 CURVE SMOOTH",
"446 1108 OFFCURVE",
"358 1072 OFFCURVE",
"286 1016 CURVE SMOOTH",
"150 908 OFFCURVE",
"92 716 OFFCURVE",
"92 542 CURVE SMOOTH"
);
}
);
width = 1158;
},
{
anchors = (
{
name = bottom;
position = "{608, -40}";
},
{
name = top;
position = "{608, 1188}";
}
);
layerId = UUID1;
paths = (
{
closed = 1;
nodes = (
"398 700 OFFCURVE",
"422 892 OFFCURVE",
"610 892 CURVE SMOOTH",
"798 892 OFFCURVE",
"820 700 OFFCURVE",
"820 550 CURVE SMOOTH",
"820 402 OFFCURVE",
"798 212 OFFCURVE",
"610 212 CURVE SMOOTH",
"422 212 OFFCURVE",
"398 402 OFFCURVE",
"398 550 CURVE SMOOTH"
);
},
{
closed = 1;
nodes = (
"60 384 OFFCURVE",
"106 186 OFFCURVE",
"258 70 CURVE SMOOTH",
"340 8 OFFCURVE",
"440 -30 OFFCURVE",
"608 -30 CURVE SMOOTH",
"778 -30 OFFCURVE",
"878 8 OFFCURVE",
"960 70 CURVE SMOOTH",
"1112 186 OFFCURVE",
"1158 384 OFFCURVE",
"1158 550 CURVE SMOOTH",
"1158 720 OFFCURVE",
"1112 916 OFFCURVE",
"960 1032 CURVE SMOOTH",
"878 1094 OFFCURVE",
"778 1134 OFFCURVE",
"608 1134 CURVE SMOOTH",
"440 1134 OFFCURVE",
"340 1092 OFFCURVE",
"258 1030 CURVE SMOOTH",
"106 914 OFFCURVE",
"60 720 OFFCURVE",
"60 550 CURVE SMOOTH"
);
}
);
width = 1218;
}
);
leftKerningGroup = c.smcp;
rightKerningGroup = o.smcp;
},
{
glyphname = p.smcp;
lastChange = "2018-11-23 02:18:52 +0000";
layers = (
{
anchors = (
{
name = bottom;
position = "{254, -40}";
},
{
name = top;
position = "{516, 1188}";
}
);
layerId = UUID0;
paths = (
{
closed = 1;
nodes = (
"932 980 OFFCURVE",
"764 1090 OFFCURVE",
"534 1090 CURVE SMOOTH",
"418 1090 OFFCURVE",
"322 1086 OFFCURVE",
"194 1084 CURVE",
"184 1074 LINE",
"184 0 LINE",
"202 -4 OFFCURVE",
"230 -6 OFFCURVE",
"254 -6 CURVE SMOOTH",
"280 -6 OFFCURVE",
"306 -4 OFFCURVE",
"326 0 CURVE",
"326 976 LINE",
"392 974 OFFCURVE",
"478 974 OFFCURVE",
"536 974 CURVE SMOOTH",
"734 974 OFFCURVE",
"782 854 OFFCURVE",
"782 748 CURVE SMOOTH",
"782 646 OFFCURVE",
"734 522 OFFCURVE",
"536 522 CURVE SMOOTH",
"478 522 OFFCURVE",
"332 522 OFFCURVE",
"268 520 CURVE",
"268 406 LINE",
"264 406 OFFCURVE",
"460 406 OFFCURVE",
"534 406 CURVE SMOOTH",
"768 406 OFFCURVE",
"932 520 OFFCURVE",
"932 748 CURVE SMOOTH"
);
}
);
width = 988;
},
{
anchors = (
{
name = bottom;
position = "{310, -40}";
},
{
name = top;
position = "{534, 1188}";
}
);
layerId = UUID1;
paths = (
{
closed = 1;
nodes = (
"1028 998 OFFCURVE",
"836 1114 OFFCURVE",
"572 1114 CURVE SMOOTH",
"430 1114 OFFCURVE",
"258 1108 OFFCURVE",
"152 1106 CURVE",
"140 1094 LINE",
"140 0 LINE",
"194 -10 OFFCURVE",
"272 -12 OFFCURVE",
"310 -12 CURVE SMOOTH",
"352 -12 OFFCURVE",
"416 -10 OFFCURVE",
"472 0 CURVE",
"472 870 LINE",
"516 868 OFFCURVE",
"512 868 OFFCURVE",
"542 868 CURVE SMOOTH",
"670 868 OFFCURVE",
"690 780 OFFCURVE",
"690 724 CURVE SMOOTH",
"690 664 OFFCURVE",
"670 578 OFFCURVE",
"542 578 CURVE SMOOTH",
"512 578 OFFCURVE",
"382 576 OFFCURVE",
"338 572 CURVE",
"338 334 LINE",
"338 334 OFFCURVE",
"528 334 OFFCURVE",
"572 334 CURVE SMOOTH",
"834 334 OFFCURVE",
"1028 458 OFFCURVE",
"1028 722 CURVE SMOOTH"
);
}
);
width = 1076;
}
);
leftKerningGroup = b.smcp;
},
{
glyphname = q.smcp;
lastChange = "2018-11-23 02:18:52 +0000";
layers = (
{
anchors = (
{
name = bottom;
position = "{578, -40}";
},
{
name = top;
position = "{578, 1188}";
}
);
layerId = UUID0;
paths = (
{
closed = 1;
nodes = (
"850 -150 LINE",
"886 -176 OFFCURVE",
"920 -188 OFFCURVE",
"954 -188 CURVE SMOOTH",
"1008 -188 OFFCURVE",
"1066 -154 OFFCURVE",
"1066 -82 CURVE",
"1008 -80 OFFCURVE",
"958 -64 OFFCURVE",
"834 18 CURVE SMOOTH",
"748 74 LINE",
"594 26 LINE"
);
},
{
closed = 1;
nodes = (
"242 742 OFFCURVE",
"308 992 OFFCURVE",
"578 992 CURVE SMOOTH",
"850 992 OFFCURVE",
"914 742 OFFCURVE",
"914 542 CURVE SMOOTH",
"914 342 OFFCURVE",
"850 92 OFFCURVE",
"578 92 CURVE SMOOTH",
"308 92 OFFCURVE",
"242 342 OFFCURVE",
"242 542 CURVE SMOOTH"
);
},
{
closed = 1;
nodes = (
"92 366 OFFCURVE",
"150 178 OFFCURVE",
"286 70 CURVE SMOOTH",
"358 14 OFFCURVE",
"446 -24 OFFCURVE",
"578 -24 CURVE SMOOTH",
"630 -24 OFFCURVE",
"668 -10 OFFCURVE",
"708 6 CURVE",
"806 20 OFFCURVE",
"878 70 OFFCURVE",
"926 124 CURVE SMOOTH",
"1024 234 OFFCURVE",
"1066 390 OFFCURVE",
"1066 542 CURVE SMOOTH",
"1066 716 OFFCURVE",
"1008 908 OFFCURVE",
"872 1016 CURVE SMOOTH",
"800 1072 OFFCURVE",
"712 1108 OFFCURVE",
"578 1108 CURVE SMOOTH",
"446 1108 OFFCURVE",
"358 1072 OFFCURVE",
"286 1016 CURVE SMOOTH",
"150 908 OFFCURVE",
"92 716 OFFCURVE",
"92 542 CURVE SMOOTH"
);
}
);
width = 1160;
},
{
anchors = (
{
name = bottom;
position = "{594, -40}";
},
{
name = top;
position = "{606, 1188}";
}
);
layerId = UUID1;
paths = (
{
closed = 1;
nodes = (
"752 -150 LINE",
"838 -234 OFFCURVE",
"916 -244 OFFCURVE",
"972 -244 CURVE SMOOTH",
"1088 -244 OFFCURVE",
"1184 -166 OFFCURVE",
"1192 -12 CURVE",
"1134 -8 OFFCURVE",
"1030 -14 OFFCURVE",
"924 80 CURVE SMOOTH",
"838 154 LINE",
"538 52 LINE"
);
},
{
closed = 1;
nodes = (
"398 700 OFFCURVE",
"422 892 OFFCURVE",
"610 892 CURVE SMOOTH",
"798 892 OFFCURVE",
"820 700 OFFCURVE",
"820 550 CURVE SMOOTH",
"820 402 OFFCURVE",
"798 212 OFFCURVE",
"610 212 CURVE SMOOTH",
"422 212 OFFCURVE",
"398 402 OFFCURVE",
"398 550 CURVE SMOOTH"
);
},
{
closed = 1;
nodes = (
"60 384 OFFCURVE",
"106 186 OFFCURVE",
"258 70 CURVE SMOOTH",
"340 8 OFFCURVE",
"454 -30 OFFCURVE",
"626 -30 CURVE SMOOTH",
"682 -30 OFFCURVE",
"728 -2 OFFCURVE",
"762 20 CURVE",
"886 32 OFFCURVE",
"970 86 OFFCURVE",
"1036 162 CURVE SMOOTH",
"1134 276 OFFCURVE",
"1158 408 OFFCURVE",
"1158 550 CURVE SMOOTH",
"1158 720 OFFCURVE",
"1112 916 OFFCURVE",
"960 1032 CURVE SMOOTH",
"878 1094 OFFCURVE",
"778 1134 OFFCURVE",
"608 1134 CURVE SMOOTH",
"440 1134 OFFCURVE",
"340 1092 OFFCURVE",
"258 1030 CURVE SMOOTH",
"106 914 OFFCURVE",
"60 720 OFFCURVE",
"60 550 CURVE SMOOTH"
);
}
);
width = 1224;
}
);
leftKerningGroup = c.smcp;
rightKerningGroup = o.smcp;
},
{
glyphname = r.smcp;
lastChange = "2018-11-23 02:18:52 +0000";
layers = (
{
anchors = (
{
name = bottom;
position = "{540, -40}";
},
{
name = top;
position = "{532, 1188}";
}
);
layerId = UUID0;
paths = (
{
closed = 1;
nodes = (
"948 970 OFFCURVE",
"806 1090 OFFCURVE",
"556 1090 CURVE SMOOTH",
"434 1090 OFFCURVE",
"322 1088 OFFCURVE",
"194 1084 CURVE",
"184 1074 LINE",
"184 0 LINE",
"202 -4 OFFCURVE",
"230 -6 OFFCURVE",
"254 -6 CURVE SMOOTH",
"280 -6 OFFCURVE",
"306 -4 OFFCURVE",
"326 0 CURVE",
"326 976 LINE",
"392 974 OFFCURVE",
"494 974 OFFCURVE",
"552 974 CURVE SMOOTH",
"748 974 OFFCURVE",
"798 868 OFFCURVE",
"798 774 CURVE SMOOTH",
"798 684 OFFCURVE",
"748 570 OFFCURVE",
"552 570 CURVE SMOOTH",
"476 570 OFFCURVE",
"368 568 OFFCURVE",
"268 566 CURVE",
"268 452 LINE",
"502 452 LINE SMOOTH",
"622 452 OFFCURVE",
"664 398 OFFCURVE",
"700 314 CURVE SMOOTH",
"804 78 LINE SMOOTH",
"828 22 OFFCURVE",
"848 -10 OFFCURVE",
"904 -10 CURVE SMOOTH",
"938 -10 OFFCURVE",
"978 4 OFFCURVE",
"998 34 CURVE",
"972 60 OFFCURVE",
"948 108 OFFCURVE",
"924 160 CURVE SMOOTH",
"834 360 LINE SMOOTH",
"808 420 OFFCURVE",
"776 464 OFFCURVE",
"712 490 CURVE",
"850 524 OFFCURVE",
"948 636 OFFCURVE",
"948 774 CURVE SMOOTH"
);
}
);
width = 1064;
},
{
anchors = (
{
name = bottom;
position = "{586, -40}";
},
{
name = top;
position = "{558, 1188}";
}
);
layerId = UUID1;
paths = (
{
closed = 1;
nodes = (
"1050 1034 OFFCURVE",
"838 1114 OFFCURVE",
"598 1114 CURVE SMOOTH",
"456 1114 OFFCURVE",
"316 1110 OFFCURVE",
"152 1106 CURVE",
"140 1094 LINE",
"140 0 LINE",
"194 -10 OFFCURVE",
"268 -12 OFFCURVE",
"306 -12 CURVE SMOOTH",
"348 -12 OFFCURVE",
"412 -10 OFFCURVE",
"468 0 CURVE",
"468 878 LINE",
"514 878 OFFCURVE",
"536 876 OFFCURVE",
"582 876 CURVE SMOOTH",
"674 876 OFFCURVE",
"712 824 OFFCURVE",
"712 758 CURVE SMOOTH",
"712 690 OFFCURVE",
"680 634 OFFCURVE",
"566 634 CURVE SMOOTH",
"532 634 OFFCURVE",
"390 630 OFFCURVE",
"322 630 CURVE",
"322 384 LINE",
"496 384 LINE SMOOTH",
"556 384 OFFCURVE",
"594 384 OFFCURVE",
"622 320 CURVE SMOOTH",
"708 122 LINE SMOOTH",
"752 22 OFFCURVE",
"804 -20 OFFCURVE",
"896 -20 CURVE SMOOTH",
"992 -20 OFFCURVE",
"1080 32 OFFCURVE",
"1120 82 CURVE",
"1082 114 OFFCURVE",
"1050 162 OFFCURVE",
"1026 216 CURVE SMOOTH",
"978 328 LINE SMOOTH",
"942 408 OFFCURVE",
"896 456 OFFCURVE",
"824 480 CURVE",
"926 502 OFFCURVE",
"1050 612 OFFCURVE",
"1050 766 CURVE SMOOTH"
);
}
);
width = 1146;
}
);
leftKerningGroup = b.smcp;
rightKerningGroup = r.smcp;
},
{
glyphname = s.smcp;
lastChange = "2018-11-23 02:18:52 +0000";
layers = (
{
anchors = (
{
name = bottom;
position = "{490, -40}";
},
{
name = top;
position = "{476, 1188}";
}
);
layerId = UUID0;
paths = (
{
closed = 1;
nodes = (
"158 38 OFFCURVE",
"304 -26 OFFCURVE",
"496 -24 CURVE SMOOTH",
"752 -20 OFFCURVE",
"900 114 OFFCURVE",
"900 298 CURVE SMOOTH",
"900 444 OFFCURVE",
"776 540 OFFCURVE",
"630 590 CURVE SMOOTH",
"416 664 LINE SMOOTH",
"302 704 OFFCURVE",
"246 736 OFFCURVE",
"246 816 CURVE SMOOTH",
"246 916 OFFCURVE",
"330 984 OFFCURVE",
"466 986 CURVE SMOOTH",
"566 988 OFFCURVE",
"694 960 OFFCURVE",
"794 916 CURVE",
"826 942 OFFCURVE",
"846 986 OFFCURVE",
"846 1028 CURVE",
"752 1070 OFFCURVE",
"608 1110 OFFCURVE",
"470 1108 CURVE SMOOTH",
"228 1104 OFFCURVE",
"98 966 OFFCURVE",
"98 804 CURVE SMOOTH",
"98 674 OFFCURVE",
"182 590 OFFCURVE",
"342 538 CURVE SMOOTH",
"566 464 LINE SMOOTH",
"684 426 OFFCURVE",
"750 358 OFFCURVE",
"750 274 CURVE SMOOTH",
"750 166 OFFCURVE",
"632 96 OFFCURVE",
"500 94 CURVE SMOOTH",
"342 92 OFFCURVE",
"222 152 OFFCURVE",
"130 204 CURVE",
"98 182 OFFCURVE",
"70 136 OFFCURVE",
"68 94 CURVE"
);
}
);
width = 972;
},
{
anchors = (
{
name = bottom;
position = "{510, -40}";
},
{
name = top;
position = "{520, 1188}";
}
);
layerId = UUID1;
paths = (
{
closed = 1;
nodes = (
"120 28 OFFCURVE",
"294 -30 OFFCURVE",
"510 -30 CURVE SMOOTH",
"772 -30 OFFCURVE",
"976 92 OFFCURVE",
"976 322 CURVE SMOOTH",
"976 494 OFFCURVE",
"860 612 OFFCURVE",
"672 680 CURVE SMOOTH",
"500 742 LINE SMOOTH",
"452 760 OFFCURVE",
"412 774 OFFCURVE",
"412 810 CURVE SMOOTH",
"412 846 OFFCURVE",
"446 876 OFFCURVE",
"510 876 CURVE SMOOTH",
"606 876 OFFCURVE",
"736 842 OFFCURVE",
"838 798 CURVE",
"906 850 OFFCURVE",
"948 952 OFFCURVE",
"948 1046 CURVE",
"842 1092 OFFCURVE",
"672 1134 OFFCURVE",
"514 1134 CURVE SMOOTH",
"240 1134 OFFCURVE",
"64 990 OFFCURVE",
"64 778 CURVE SMOOTH",
"64 604 OFFCURVE",
"208 512 OFFCURVE",
"362 454 CURVE SMOOTH",
"534 390 LINE SMOOTH",
"600 366 OFFCURVE",
"620 340 OFFCURVE",
"620 308 CURVE SMOOTH",
"620 256 OFFCURVE",
"572 228 OFFCURVE",
"502 228 CURVE SMOOTH",
"386 228 OFFCURVE",
"252 270 OFFCURVE",
"150 324 CURVE",
"84 282 OFFCURVE",
"32 162 OFFCURVE",
"32 82 CURVE"
);
}
);
width = 1022;
}
);
leftKerningGroup = s.smcp;
rightKerningGroup = s.smcp;
},
{
glyphname = t.smcp;
lastChange = "2018-11-23 02:18:52 +0000";
layers = (
{
anchors = (
{
name = bottom;
position = "{428, -40}";
},
{
name = top;
position = "{428, 1188}";
}
);
layerId = UUID0;
paths = (
{
closed = 1;
nodes = (
"258 964 LINE",
"282 964 OFFCURVE",
"334 966 OFFCURVE",
"358 966 CURVE SMOOTH",
"496 966 LINE",
"518 966 OFFCURVE",
"574 964 OFFCURVE",
"596 964 CURVE",
"744 964 LINE",
"810 964 OFFCURVE",
"826 986 OFFCURVE",
"826 1028 CURVE SMOOTH",
"826 1044 OFFCURVE",
"822 1068 OFFCURVE",
"816 1084 CURVE",
"32 1084 LINE",
"28 1064 OFFCURVE",
"26 1042 OFFCURVE",
"26 1024 CURVE SMOOTH",
"26 1006 OFFCURVE",
"28 984 OFFCURVE",
"32 964 CURVE"
);
},
{
closed = 1;
nodes = (
"356 0 LINE",
"376 -4 OFFCURVE",
"404 -6 OFFCURVE",
"428 -6 CURVE SMOOTH",
"452 -6 OFFCURVE",
"478 -4 OFFCURVE",
"498 0 CURVE",
"498 848 LINE",
"498 890 OFFCURVE",
"496 922 OFFCURVE",
"496 966 CURVE",
"496 1024 LINE",
"358 1024 LINE",
"358 966 LINE",
"358 922 OFFCURVE",
"356 890 OFFCURVE",
"356 848 CURVE"
);
}
);
width = 846;
},
{
anchors = (
{
name = bottom;
position = "{474, -40}";
},
{
name = top;
position = "{474, 1188}";
}
);
layerId = UUID1;
paths = (
{
closed = 1;
nodes = (
"194 836 LINE",
"222 836 OFFCURVE",
"280 838 OFFCURVE",
"308 838 CURVE SMOOTH",
"640 838 LINE",
"666 838 OFFCURVE",
"720 836 OFFCURVE",
"748 836 CURVE",
"780 836 LINE",
"896 836 OFFCURVE",
"942 888 OFFCURVE",
"942 982 CURVE SMOOTH",
"942 1012 OFFCURVE",
"938 1066 OFFCURVE",
"928 1104 CURVE",
"12 1104 LINE",
"2 1056 OFFCURVE",
"0 1002 OFFCURVE",
"0 966 CURVE SMOOTH",
"0 930 OFFCURVE",
"2 886 OFFCURVE",
"12 836 CURVE"
);
},
{
closed = 1;
nodes = (
"308 0 LINE",
"354 -8 OFFCURVE",
"430 -12 OFFCURVE",
"474 -12 CURVE SMOOTH",
"520 -12 OFFCURVE",
"602 -8 OFFCURVE",
"640 0 CURVE",
"640 716 LINE",
"640 760 OFFCURVE",
"638 792 OFFCURVE",
"638 838 CURVE",
"638 968 LINE",
"310 968 LINE",
"310 838 LINE",
"310 792 OFFCURVE",
"308 760 OFFCURVE",
"308 716 CURVE"
);
}
);
width = 930;
}
);
leftKerningGroup = t.smcp;
rightKerningGroup = t.smcp;
},
{
glyphname = u.smcp;
lastChange = "2018-11-23 02:18:52 +0000";
layers = (
{
anchors = (
{
name = bottom;
position = "{600, -40}";
},
{
name = top;
position = "{596, 1188}";
}
);
layerId = UUID0;
paths = (
{
closed = 1;
nodes = (
"1034 1084 LINE",
"1014 1088 OFFCURVE",
"986 1090 OFFCURVE",
"960 1090 CURVE SMOOTH",
"936 1090 OFFCURVE",
"910 1088 OFFCURVE",
"892 1084 CURVE",
"892 374 LINE",
"892 190 OFFCURVE",
"788 92 OFFCURVE",
"600 92 CURVE",
"414 92 OFFCURVE",
"308 190 OFFCURVE",
"308 374 CURVE SMOOTH",
"308 998 LINE SMOOTH",
"308 1060 OFFCURVE",
"294 1090 OFFCURVE",
"232 1090 CURVE SMOOTH",
"176 1090 LINE",
"166 1080 LINE",
"166 374 LINE SMOOTH",
"166 110 OFFCURVE",
"344 -24 OFFCURVE",
"600 -24 CURVE",
"858 -24 OFFCURVE",
"1034 110 OFFCURVE",
"1034 374 CURVE"
);
}
);
width = 1200;
},
{
anchors = (
{
name = bottom;
position = "{614, -40}";
},
{
name = top;
position = "{606, 1188}";
}
);
layerId = UUID1;
paths = (
{
closed = 1;
nodes = (
"1108 1102 LINE",
"1054 1114 OFFCURVE",
"976 1116 OFFCURVE",
"938 1116 CURVE SMOOTH",
"896 1116 OFFCURVE",
"832 1114 OFFCURVE",
"776 1104 CURVE",
"776 418 LINE",
"776 302 OFFCURVE",
"740 230 OFFCURVE",
"614 230 CURVE",
"490 230 OFFCURVE",
"452 302 OFFCURVE",
"452 418 CURVE SMOOTH",
"452 906 LINE SMOOTH",
"452 1058 OFFCURVE",
"378 1116 OFFCURVE",
"252 1116 CURVE SMOOTH",
"132 1116 LINE",
"120 1104 LINE",
"120 416 LINE SMOOTH",
"120 140 OFFCURVE",
"286 -30 OFFCURVE",
"614 -30 CURVE",
"942 -30 OFFCURVE",
"1108 140 OFFCURVE",
"1108 416 CURVE"
);
}
);
width = 1228;
}
);
leftKerningGroup = u.smcp;
rightKerningGroup = u.smcp;
},
{
glyphname = v.smcp;
lastChange = "2018-11-23 02:18:52 +0000";
layers = (
{
anchors = (
{
name = bottom;
position = "{502, -40}";
},
{
name = top;
position = "{502, 1188}";
}
);
layerId = UUID0;
paths = (
{
closed = 1;
nodes = (
"510 130 LINE",
"504 130 OFFCURVE",
"500 132 OFFCURVE",
"496 144 CURVE SMOOTH",
"472 224 OFFCURVE",
"434 344 OFFCURVE",
"410 418 CURVE SMOOTH",
"206 1028 LINE SMOOTH",
"188 1084 OFFCURVE",
"162 1096 OFFCURVE",
"128 1096 CURVE SMOOTH",
"98 1096 OFFCURVE",
"68 1088 OFFCURVE",
"40 1076 CURVE",
"382 62 LINE SMOOTH",
"402 0 OFFCURVE",
"436 -8 OFFCURVE",
"482 -8 CURVE SMOOTH",
"518 -8 OFFCURVE",
"550 -6 OFFCURVE",
"586 -2 CURVE",
"954 1072 LINE",
"948 1082 LINE",
"930 1090 OFFCURVE",
"900 1092 OFFCURVE",
"882 1092 CURVE SMOOTH",
"866 1092 OFFCURVE",
"844 1090 OFFCURVE",
"824 1084 CURVE"
);
}
);
width = 982;
},
{
anchors = (
{
name = bottom;
position = "{560, -40}";
},
{
name = top;
position = "{562, 1188}";
}
);
layerId = UUID1;
paths = (
{
closed = 1;
nodes = (
"576 246 LINE",
"566 246 OFFCURVE",
"560 244 OFFCURVE",
"556 264 CURVE SMOOTH",
"532 410 OFFCURVE",
"510 514 OFFCURVE",
"478 626 CURVE SMOOTH",
"380 962 LINE SMOOTH",
"346 1076 OFFCURVE",
"296 1118 OFFCURVE",
"194 1118 CURVE SMOOTH",
"128 1118 OFFCURVE",
"64 1104 OFFCURVE",
"6 1080 CURVE",
"286 130 LINE SMOOTH",
"320 12 OFFCURVE",
"398 -12 OFFCURVE",
"508 -12 CURVE SMOOTH",
"592 -12 OFFCURVE",
"710 -10 OFFCURVE",
"772 0 CURVE",
"1096 1078 LINE",
"1082 1094 LINE",
"1018 1112 OFFCURVE",
"964 1116 OFFCURVE",
"914 1116 CURVE SMOOTH",
"872 1116 OFFCURVE",
"838 1114 OFFCURVE",
"788 1104 CURVE"
);
}
);
width = 1102;
}
);
},
{
glyphname = w.smcp;
lastChange = "2018-11-23 02:18:52 +0000";
layers = (
{
anchors = (
{
name = bottom;
position = "{740, -40}";
},
{
name = top;
position = "{740, 1188}";
}
);
layerId = UUID0;
paths = (
{
closed = 1;
nodes = (
"300 66 LINE",
"314 4 OFFCURVE",
"356 -8 OFFCURVE",
"398 -8 CURVE SMOOTH",
"432 -8 OFFCURVE",
"482 -6 OFFCURVE",
"518 0 CURVE",
"646 524 LINE SMOOTH",
"670 624 OFFCURVE",
"706 782 OFFCURVE",
"736 930 CURVE",
"746 930 LINE",
"774 782 OFFCURVE",
"808 618 OFFCURVE",
"828 524 CURVE SMOOTH",
"930 62 LINE SMOOTH",
"942 4 OFFCURVE",
"974 -8 OFFCURVE",
"1016 -8 CURVE SMOOTH",
"1050 -8 OFFCURVE",
"1108 -6 OFFCURVE",
"1144 2 CURVE",
"1412 1074 LINE",
"1404 1082 LINE",
"1382 1088 OFFCURVE",
"1362 1090 OFFCURVE",
"1336 1090 CURVE SMOOTH",
"1314 1090 OFFCURVE",
"1288 1088 OFFCURVE",
"1268 1084 CURVE",
"1118 438 LINE SMOOTH",
"1100 364 OFFCURVE",
"1068 216 OFFCURVE",
"1048 114 CURVE",
"1040 114 OFFCURVE",
"1038 116 OFFCURVE",
"1034 132 CURVE SMOOTH",
"834 1070 LINE",
"814 1074 OFFCURVE",
"768 1076 OFFCURVE",
"742 1076 CURVE SMOOTH",
"718 1076 OFFCURVE",
"676 1074 OFFCURVE",
"650 1070 CURVE",
"430 114 LINE",
"422 114 OFFCURVE",
"420 116 OFFCURVE",
"416 132 CURVE SMOOTH",
"400 208 OFFCURVE",
"370 364 OFFCURVE",
"354 438 CURVE SMOOTH",
"228 1024 LINE SMOOTH",
"216 1076 OFFCURVE",
"198 1096 OFFCURVE",
"158 1096 CURVE SMOOTH",
"132 1096 OFFCURVE",
"98 1088 OFFCURVE",
"72 1076 CURVE"
);
}
);
width = 1466;
},
{
anchors = (
{
name = bottom;
position = "{842, -40}";
},
{
name = top;
position = "{842, 1188}";
}
);
layerId = UUID1;
paths = (
{
closed = 1;
nodes = (
"230 126 LINE",
"256 2 OFFCURVE",
"330 -14 OFFCURVE",
"434 -14 CURVE SMOOTH",
"526 -14 OFFCURVE",
"644 -10 OFFCURVE",
"710 0 CURVE",
"780 424 LINE SMOOTH",
"804 566 OFFCURVE",
"822 724 OFFCURVE",
"830 798 CURVE",
"844 798 LINE",
"850 724 OFFCURVE",
"868 564 OFFCURVE",
"890 424 CURVE SMOOTH",
"938 126 LINE SMOOTH",
"958 2 OFFCURVE",
"1042 -18 OFFCURVE",
"1136 -18 CURVE SMOOTH",
"1222 -18 OFFCURVE",
"1348 -12 OFFCURVE",
"1410 0 CURVE",
"1638 1072 LINE",
"1622 1090 LINE",
"1578 1106 OFFCURVE",
"1516 1114 OFFCURVE",
"1462 1114 CURVE SMOOTH",
"1418 1114 OFFCURVE",
"1372 1114 OFFCURVE",
"1320 1102 CURVE",
"1224 560 LINE SMOOTH",
"1208 470 OFFCURVE",
"1194 356 OFFCURVE",
"1186 266 CURVE",
"1176 266 OFFCURVE",
"1170 264 OFFCURVE",
"1166 290 CURVE SMOOTH",
"1044 1088 LINE",
"980 1098 OFFCURVE",
"908 1102 OFFCURVE",
"842 1102 CURVE SMOOTH",
"776 1102 OFFCURVE",
"700 1098 OFFCURVE",
"638 1088 CURVE",
"506 266 LINE",
"492 266 OFFCURVE",
"490 268 OFFCURVE",
"488 290 CURVE SMOOTH",
"478 376 OFFCURVE",
"464 476 OFFCURVE",
"450 556 CURVE SMOOTH",
"386 932 LINE SMOOTH",
"360 1070 OFFCURVE",
"326 1118 OFFCURVE",
"210 1118 CURVE SMOOTH",
"152 1118 OFFCURVE",
"74 1106 OFFCURVE",
"28 1088 CURVE"
);
}
);
width = 1672;
}
);
leftKerningGroup = w.smcp;
rightKerningGroup = w.smcp;
},
{
glyphname = x.smcp;
lastChange = "2018-11-23 02:18:52 +0000";
layers = (
{
anchors = (
{
name = bottom;
position = "{496, -40}";
},
{
name = top;
position = "{502, 1188}";
}
);
layerId = UUID0;
paths = (
{
closed = 1;
nodes = (
"776 46 LINE",
"804 4 OFFCURVE",
"832 -12 OFFCURVE",
"866 -12 CURVE SMOOTH",
"902 -12 OFFCURVE",
"936 0 OFFCURVE",
"962 24 CURVE",
"270 1038 LINE SMOOTH",
"242 1078 OFFCURVE",
"218 1096 OFFCURVE",
"178 1096 CURVE SMOOTH",
"144 1096 OFFCURVE",
"116 1086 OFFCURVE",
"84 1064 CURVE"
);
},
{
closed = 1;
nodes = (
"490 660 LINE",
"432 604 LINE",
"32 16 LINE",
"38 6 LINE",
"54 -2 OFFCURVE",
"82 -8 OFFCURVE",
"112 -8 CURVE SMOOTH",
"132 -8 OFFCURVE",
"160 -4 OFFCURVE",
"172 0 CURVE",
"506 494 LINE",
"558 544 LINE",
"918 1070 LINE",
"912 1080 LINE",
"896 1088 OFFCURVE",
"868 1092 OFFCURVE",
"840 1092 CURVE SMOOTH",
"820 1092 OFFCURVE",
"792 1088 OFFCURVE",
"780 1084 CURVE"
);
}
);
width = 992;
},
{
anchors = (
{
name = bottom;
position = "{552, -40}";
},
{
name = top;
position = "{564, 1188}";
}
);
layerId = UUID1;
paths = (
{
closed = 1;
nodes = (
"678 114 LINE",
"738 26 OFFCURVE",
"794 -16 OFFCURVE",
"886 -16 CURVE SMOOTH",
"930 -16 OFFCURVE",
"1030 -6 OFFCURVE",
"1116 52 CURVE",
"476 990 LINE SMOOTH",
"414 1080 OFFCURVE",
"362 1120 OFFCURVE",
"272 1120 CURVE SMOOTH",
"224 1120 OFFCURVE",
"130 1108 OFFCURVE",
"44 1052 CURVE"
);
},
{
closed = 1;
nodes = (
"530 762 LINE",
"404 634 LINE",
"6 26 LINE",
"16 10 LINE",
"68 -6 OFFCURVE",
"120 -12 OFFCURVE",
"186 -12 CURVE SMOOTH",
"234 -12 OFFCURVE",
"290 -8 OFFCURVE",
"332 0 CURVE",
"580 394 LINE",
"700 520 LINE",
"1068 1078 LINE",
"1066 1094 LINE",
"1010 1110 OFFCURVE",
"940 1116 OFFCURVE",
"898 1116 CURVE SMOOTH",
"842 1116 OFFCURVE",
"802 1116 OFFCURVE",
"752 1104 CURVE"
);
}
);
width = 1122;
}
);
},
{
glyphname = y.smcp;
lastChange = "2018-11-23 02:18:52 +0000";
layers = (
{
anchors = (
{
name = bottom;
position = "{426, -40}";
},
{
name = top;
position = "{432, 1188}";
}
);
layerId = UUID0;
paths = (
{
closed = 1;
nodes = (
"356 0 LINE",
"374 -4 OFFCURVE",
"402 -6 OFFCURVE",
"426 -6 CURVE SMOOTH",
"454 -6 OFFCURVE",
"478 -4 OFFCURVE",
"498 0 CURVE",
"498 394 LINE",
"356 394 LINE"
);
},
{
closed = 1;
nodes = (
"518 678 LINE SMOOTH",
"480 592 OFFCURVE",
"460 528 OFFCURVE",
"440 472 CURVE",
"432 472 LINE",
"414 524 OFFCURVE",
"382 608 OFFCURVE",
"354 672 CURVE SMOOTH",
"194 1036 LINE SMOOTH",
"176 1078 OFFCURVE",
"154 1098 OFFCURVE",
"116 1098 CURVE SMOOTH",
"82 1098 OFFCURVE",
"58 1090 OFFCURVE",
"24 1074 CURVE",
"376 298 LINE",
"482 298 LINE",
"830 1072 LINE",
"824 1082 LINE",
"806 1088 OFFCURVE",
"782 1092 OFFCURVE",
"758 1092 CURVE SMOOTH",
"738 1092 OFFCURVE",
"716 1090 OFFCURVE",
"694 1084 CURVE"
);
}
);
width = 848;
},
{
anchors = (
{
name = bottom;
position = "{482, -40}";
},
{
name = top;
position = "{484, 1188}";
}
);
layerId = UUID1;
paths = (
{
closed = 1;
nodes = (
"316 0 LINE",
"370 -10 OFFCURVE",
"444 -12 OFFCURVE",
"482 -12 CURVE SMOOTH",
"524 -12 OFFCURVE",
"586 -10 OFFCURVE",
"640 0 CURVE",
"640 456 LINE",
"316 456 LINE"
);
},
{
closed = 1;
nodes = (
"564 854 LINE SMOOTH",
"542 798 OFFCURVE",
"518 688 OFFCURVE",
"494 608 CURVE",
"482 608 LINE",
"476 670 OFFCURVE",
"462 736 OFFCURVE",
"430 822 CURVE SMOOTH",
"364 998 LINE SMOOTH",
"330 1090 OFFCURVE",
"276 1120 OFFCURVE",
"188 1120 CURVE SMOOTH",
"132 1120 OFFCURVE",
"60 1102 OFFCURVE",
"0 1074 CURVE",
"338 278 LINE",
"622 278 LINE",
"958 1080 LINE",
"944 1096 LINE",
"882 1110 OFFCURVE",
"856 1116 OFFCURVE",
"800 1116 CURVE SMOOTH",
"758 1116 OFFCURVE",
"704 1114 OFFCURVE",
"658 1102 CURVE"
);
}
);
width = 960;
}
);
leftKerningGroup = y.smcp;
rightKerningGroup = y.smcp;
},
{
glyphname = z.smcp;
lastChange = "2018-11-23 02:18:52 +0000";
layers = (
{
anchors = (
{
name = bottom;
position = "{494, -40}";
},
{
name = top;
position = "{504, 1188}";
}
);
layerId = UUID0;
paths = (
{
closed = 1;
nodes = (
"114 160 LINE",
"98 136 OFFCURVE",
"92 112 OFFCURVE",
"92 92 CURVE SMOOTH",
"92 78 OFFCURVE",
"94 62 OFFCURVE",
"112 0 CURVE",
"784 0 LINE SMOOTH",
"862 0 OFFCURVE",
"890 30 OFFCURVE",
"890 80 CURVE SMOOTH",
"890 106 OFFCURVE",
"884 126 OFFCURVE",
"876 150 CURVE",
"830 132 OFFCURVE",
"758 124 OFFCURVE",
"660 124 CURVE SMOOTH",
"438 124 LINE SMOOTH",
"392 124 OFFCURVE",
"326 122 OFFCURVE",
"248 114 CURVE",
"244 120 LINE",
"290 178 OFFCURVE",
"346 244 OFFCURVE",
"386 298 CURVE SMOOTH",
"854 930 LINE SMOOTH",
"868 950 OFFCURVE",
"876 970 OFFCURVE",
"876 990 CURVE SMOOTH",
"876 1004 OFFCURVE",
"872 1022 OFFCURVE",
"854 1084 CURVE",
"144 1084 LINE",
"136 1058 OFFCURVE",
"132 1034 OFFCURVE",
"132 1010 CURVE SMOOTH",
"132 994 OFFCURVE",
"134 978 OFFCURVE",
"138 962 CURVE",
"438 962 LINE SMOOTH",
"482 962 OFFCURVE",
"674 964 OFFCURVE",
"720 972 CURVE",
"726 968 LINE",
"672 904 OFFCURVE",
"622 846 OFFCURVE",
"584 794 CURVE SMOOTH"
);
}
);
width = 976;
},
{
anchors = (
{
name = bottom;
position = "{522, -40}";
},
{
name = top;
position = "{532, 1188}";
}
);
layerId = UUID1;
paths = (
{
closed = 1;
nodes = (
"102 300 LINE",
"78 270 OFFCURVE",
"64 226 OFFCURVE",
"64 188 CURVE SMOOTH",
"64 164 OFFCURVE",
"68 142 OFFCURVE",
"98 -2 CURVE",
"774 -2 LINE SMOOTH",
"890 -2 OFFCURVE",
"992 60 OFFCURVE",
"992 174 CURVE SMOOTH",
"992 230 OFFCURVE",
"986 264 OFFCURVE",
"974 306 CURVE",
"920 278 OFFCURVE",
"836 270 OFFCURVE",
"764 266 CURVE SMOOTH",
"722 264 LINE SMOOTH",
"638 260 OFFCURVE",
"530 256 OFFCURVE",
"436 250 CURVE",
"432 258 LINE",
"478 292 OFFCURVE",
"542 358 OFFCURVE",
"574 394 CURVE SMOOTH",
"940 802 LINE SMOOTH",
"970 836 OFFCURVE",
"976 872 OFFCURVE",
"976 908 CURVE SMOOTH",
"976 928 OFFCURVE",
"974 946 OFFCURVE",
"930 1104 CURVE",
"118 1104 LINE",
"104 1048 OFFCURVE",
"96 1010 OFFCURVE",
"96 954 CURVE SMOOTH",
"96 918 OFFCURVE",
"98 884 OFFCURVE",
"108 844 CURVE",
"334 844 LINE SMOOTH",
"378 844 OFFCURVE",
"524 850 OFFCURVE",
"620 860 CURVE",
"624 854 LINE",
"580 822 OFFCURVE",
"500 746 OFFCURVE",
"468 710 CURVE SMOOTH"
);
}
);
width = 1054;
}
);
leftKerningGroup = z.smcp;
rightKerningGroup = z.smcp;
},
{
glyphname = quotesingle;
lastChange = "2018-11-23 02:18:52 +0000";
layers = (
{
layerId = UUID0;
paths = (
{
closed = 1;
nodes = (
"90 1360 OFFCURVE",
"124 1232 OFFCURVE",
"144 1036 CURVE",
"166 1026 OFFCURVE",
"206 1026 OFFCURVE",
"224 1036 CURVE",
"246 1230 OFFCURVE",
"278 1360 OFFCURVE",
"278 1388 CURVE SMOOTH",
"278 1414 OFFCURVE",
"274 1440 OFFCURVE",
"266 1468 CURVE",
"250 1478 OFFCURVE",
"216 1488 OFFCURVE",
"184 1488 CURVE SMOOTH",
"148 1488 OFFCURVE",
"120 1478 OFFCURVE",
"102 1468 CURVE",
"94 1440 OFFCURVE",
"90 1414 OFFCURVE",
"90 1388 CURVE SMOOTH"
);
}
);
width = 382;
},
{
layerId = UUID1;
paths = (
{
closed = 1;
nodes = (
"80 1396 OFFCURVE",
"130 1176 OFFCURVE",
"156 980 CURVE",
"192 958 OFFCURVE",
"280 958 OFFCURVE",
"316 980 CURVE",
"342 1176 OFFCURVE",
"392 1396 OFFCURVE",
"392 1440 CURVE SMOOTH",
"392 1484 OFFCURVE",
"386 1526 OFFCURVE",
"378 1564 CURVE",
"336 1588 OFFCURVE",
"290 1600 OFFCURVE",
"236 1600 CURVE SMOOTH",
"182 1600 OFFCURVE",
"136 1588 OFFCURVE",
"94 1564 CURVE",
"86 1526 OFFCURVE",
"80 1484 OFFCURVE",
"80 1440 CURVE SMOOTH"
);
}
);
width = 492;
}
);
unicode = 0027;
},
{
glyphname = numbersign;
lastChange = "2018-11-23 02:18:52 +0000";
layers = (
{
layerId = UUID0;
paths = (
{
closed = 1;
nodes = (
"484 1262 LINE",
"518 1272 OFFCURVE",
"582 1272 OFFCURVE",
"616 1262 CURVE",
"340 28 LINE",
"310 14 OFFCURVE",
"238 14 OFFCURVE",
"208 28 CURVE"
);
},
{
closed = 1;
nodes = (
"876 1262 LINE",
"910 1272 OFFCURVE",
"974 1272 OFFCURVE",
"1008 1262 CURVE",
"732 28 LINE",
"702 14 OFFCURVE",
"630 14 OFFCURVE",
"600 28 CURVE"
);
},
{
closed = 1;
nodes = (
"62 338 LINE",
"50 370 OFFCURVE",
"50 430 OFFCURVE",
"62 462 CURVE",
"1052 462 LINE",
"1064 430 OFFCURVE",
"1064 370 OFFCURVE",
"1052 338 CURVE"
);
},
{
closed = 1;
nodes = (
"150 828 LINE",
"138 860 OFFCURVE",
"138 920 OFFCURVE",
"150 952 CURVE",
"1140 952 LINE",
"1152 920 OFFCURVE",
"1152 860 OFFCURVE",
"1140 828 CURVE"
);
}
);
width = 1198;
},
{
layerId = UUID1;
paths = (
{
closed = 1;
nodes = (
"476 1306 LINE",
"546 1338 OFFCURVE",
"696 1338 OFFCURVE",
"760 1306 CURVE",
"472 24 LINE",
"402 -8 OFFCURVE",
"252 -8 OFFCURVE",
"188 24 CURVE"
);
},
{
closed = 1;
nodes = (
"996 1306 LINE",
"1066 1338 OFFCURVE",
"1216 1338 OFFCURVE",
"1280 1306 CURVE",
"992 24 LINE",
"922 -8 OFFCURVE",
"772 -8 OFFCURVE",
"708 24 CURVE"
);
},
{
closed = 1;
nodes = (
"54 258 LINE",
"28 332 OFFCURVE",
"28 440 OFFCURVE",
"54 514 CURVE",
"1302 514 LINE",
"1328 440 OFFCURVE",
"1328 332 OFFCURVE",
"1302 258 CURVE"
);
},
{
closed = 1;
nodes = (
"162 816 LINE",
"136 890 OFFCURVE",
"136 998 OFFCURVE",
"162 1072 CURVE",
"1410 1072 LINE",
"1436 998 OFFCURVE",
"1436 890 OFFCURVE",
"1410 816 CURVE"
);
}
);
width = 1456;
}
);
unicode = 0023;
},
{
glyphname = ampersand;
lastChange = "2018-11-23 02:18:52 +0000";
layers = (
{
layerId = UUID0;
paths = (
{
closed = 1;
nodes = (
"600 790 LINE",
"406 790 OFFCURVE",
"322 894 OFFCURVE",
"322 1032 CURVE SMOOTH",
"322 1170 OFFCURVE",
"416 1268 OFFCURVE",
"574 1268 CURVE SMOOTH",
"688 1268 OFFCURVE",
"780 1244 OFFCURVE",
"868 1218 CURVE SMOOTH",
"894 1246 OFFCURVE",
"908 1296 OFFCURVE",
"908 1336 CURVE",
"828 1366 OFFCURVE",
"700 1390 OFFCURVE",
"578 1390 CURVE SMOOTH",
"314 1390 OFFCURVE",
"170 1226 OFFCURVE",
"170 1038 CURVE SMOOTH",
"170 866 OFFCURVE",
"306 724 OFFCURVE",
"460 718 CURVE",
"460 746 LINE",
"290 742 OFFCURVE",
"114 576 OFFCURVE",
"114 360 CURVE SMOOTH",
"114 136 OFFCURVE",
"244 -24 OFFCURVE",
"492 -24 CURVE SMOOTH",
"606 -24 OFFCURVE",
"724 16 OFFCURVE",
"818 78 CURVE",
"830 0 LINE",
"848 -4 OFFCURVE",
"870 -6 OFFCURVE",
"898 -6 CURVE SMOOTH",
"926 -6 OFFCURVE",
"948 -4 OFFCURVE",
"966 0 CURVE",
"964 64 OFFCURVE",
"954 220 OFFCURVE",
"954 292 CURVE SMOOTH",
"954 540 LINE SMOOTH",
"954 586 OFFCURVE",
"952 676 OFFCURVE",
"950 728 CURVE",
"818 728 LINE",
"816 676 OFFCURVE",
"814 588 OFFCURVE",
"814 538 CURVE SMOOTH",
"814 202 LINE",
"748 146 OFFCURVE",
"632 98 OFFCURVE",
"514 98 CURVE SMOOTH",
"358 98 OFFCURVE",
"266 200 OFFCURVE",
"266 360 CURVE SMOOTH",
"266 492 OFFCURVE",
"346 666 OFFCURVE",
"582 666 CURVE SMOOTH",
"1026 666 LINE SMOOTH",
"1094 666 OFFCURVE",
"1152 678 OFFCURVE",
"1152 746 CURVE SMOOTH",
"1152 768 OFFCURVE",
"1146 798 OFFCURVE",
"1132 816 CURVE",
"1094 798 OFFCURVE",
"1024 790 OFFCURVE",
"956 790 CURVE SMOOTH"
);
}
);
width = 1202;
},
{
layerId = UUID1;
paths = (
{
closed = 1;
nodes = (
"670 854 LINE",
"540 854 OFFCURVE",
"478 898 OFFCURVE",
"478 1002 CURVE SMOOTH",
"478 1080 OFFCURVE",
"528 1140 OFFCURVE",
"634 1140 CURVE SMOOTH",
"732 1140 OFFCURVE",
"832 1114 OFFCURVE",
"922 1084 CURVE SMOOTH",
"978 1144 OFFCURVE",
"1010 1246 OFFCURVE",
"1006 1328 CURVE",
"894 1366 OFFCURVE",
"734 1396 OFFCURVE",
"574 1396 CURVE SMOOTH",
"308 1396 OFFCURVE",
"136 1250 OFFCURVE",
"136 1030 CURVE SMOOTH",
"136 852 OFFCURVE",
"258 716 OFFCURVE",
"424 712 CURVE",
"424 744 LINE",
"254 744 OFFCURVE",
"76 592 OFFCURVE",
"76 358 CURVE SMOOTH",
"76 150 OFFCURVE",
"212 -30 OFFCURVE",
"468 -30 CURVE SMOOTH",
"592 -30 OFFCURVE",
"704 16 OFFCURVE",
"778 84 CURVE",
"800 -4 LINE",
"836 -14 OFFCURVE",
"894 -20 OFFCURVE",
"948 -20 CURVE SMOOTH",
"1006 -20 OFFCURVE",
"1060 -14 OFFCURVE",
"1098 0 CURVE",
"1090 96 OFFCURVE",
"1084 234 OFFCURVE",
"1084 322 CURVE SMOOTH",
"1084 456 LINE SMOOTH",
"1084 528 OFFCURVE",
"1082 636 OFFCURVE",
"1074 732 CURVE",
"772 732 LINE",
"764 636 OFFCURVE",
"762 528 OFFCURVE",
"762 456 CURVE SMOOTH",
"762 296 LINE",
"722 262 OFFCURVE",
"656 222 OFFCURVE",
"564 222 CURVE SMOOTH",
"486 222 OFFCURVE",
"418 270 OFFCURVE",
"418 390 CURVE SMOOTH",
"418 520 OFFCURVE",
"500 578 OFFCURVE",
"646 578 CURVE SMOOTH",
"1124 578 LINE SMOOTH",
"1248 578 OFFCURVE",
"1318 632 OFFCURVE",
"1318 742 CURVE SMOOTH",
"1318 802 OFFCURVE",
"1302 862 OFFCURVE",
"1276 894 CURVE",
"1216 868 OFFCURVE",
"1138 854 OFFCURVE",
"1060 854 CURVE SMOOTH"
);
}
);
width = 1322;
}
);
unicode = 0026;
},
{
glyphname = asterisk;
lastChange = "2018-11-23 02:18:52 +0000";
layers = (
{
layerId = UUID0;
paths = (
{
closed = 1;
nodes = (
"424 1362 LINE SMOOTH",
"422 1270 OFFCURVE",
"444 1168 OFFCURVE",
"460 1092 CURVE",
"472 1076 OFFCURVE",
"484 1070 OFFCURVE",
"494 1070 CURVE SMOOTH",
"504 1070 OFFCURVE",
"516 1078 OFFCURVE",
"528 1092 CURVE",
"542 1168 OFFCURVE",
"566 1270 OFFCURVE",
"564 1362 CURVE SMOOTH",
"562 1462 LINE",
"526 1478 OFFCURVE",
"460 1478 OFFCURVE",
"426 1462 CURVE"
);
},
{
closed = 1;
nodes = (
"194 1094 LINE SMOOTH",
"282 1062 OFFCURVE",
"386 1054 OFFCURVE",
"462 1046 CURVE",
"482 1050 OFFCURVE",
"490 1060 OFFCURVE",
"494 1070 CURVE SMOOTH",
"498 1080 OFFCURVE",
"494 1094 OFFCURVE",
"484 1110 CURVE",
"416 1144 OFFCURVE",
"326 1200 OFFCURVE",
"238 1228 CURVE SMOOTH",
"144 1256 LINE",
"116 1226 OFFCURVE",
"96 1164 OFFCURVE",
"100 1128 CURVE"
);
},
{
closed = 1;
nodes = (
"378 792 LINE SMOOTH",
"436 866 OFFCURVE",
"476 962 OFFCURVE",
"508 1034 CURVE",
"510 1052 OFFCURVE",
"502 1064 OFFCURVE",
"494 1070 CURVE SMOOTH",
"486 1076 OFFCURVE",
"472 1078 OFFCURVE",
"452 1072 CURVE",
"398 1020 OFFCURVE",
"318 950 OFFCURVE",
"264 874 CURVE SMOOTH",
"208 794 LINE",
"230 758 OFFCURVE",
"282 722 OFFCURVE",
"318 714 CURVE"
);
},
{
closed = 1;
nodes = (
"724 874 LINE SMOOTH",
"672 950 OFFCURVE",
"592 1020 OFFCURVE",
"534 1072 CURVE",
"516 1080 OFFCURVE",
"502 1076 OFFCURVE",
"494 1070 CURVE SMOOTH",
"486 1064 OFFCURVE",
"480 1052 OFFCURVE",
"480 1032 CURVE",
"514 962 OFFCURVE",
"552 866 OFFCURVE",
"610 792 CURVE SMOOTH",
"668 714 LINE",
"710 722 OFFCURVE",
"760 760 OFFCURVE",
"778 792 CURVE"
);
},
{
closed = 1;
nodes = (
"750 1228 LINE SMOOTH",
"662 1202 OFFCURVE",
"572 1148 OFFCURVE",
"504 1108 CURVE",
"492 1094 OFFCURVE",
"490 1080 OFFCURVE",
"494 1070 CURVE SMOOTH",
"498 1060 OFFCURVE",
"506 1052 OFFCURVE",
"528 1046 CURVE",
"602 1056 OFFCURVE",
"706 1064 OFFCURVE",
"794 1094 CURVE SMOOTH",
"888 1126 LINE",
"892 1168 OFFCURVE",
"870 1230 OFFCURVE",
"846 1254 CURVE"
);
}
);
width = 988;
},
{
layerId = UUID1;
paths = (
{
closed = 1;
nodes = (
"400 1328 LINE SMOOTH",
"406 1238 OFFCURVE",
"446 1140 OFFCURVE",
"474 1048 CURVE",
"486 1034 OFFCURVE",
"504 1026 OFFCURVE",
"522 1026 CURVE SMOOTH",
"540 1026 OFFCURVE",
"558 1034 OFFCURVE",
"570 1048 CURVE",
"598 1140 OFFCURVE",
"638 1238 OFFCURVE",
"644 1328 CURVE SMOOTH",
"652 1460 LINE",
"592 1484 OFFCURVE",
"450 1484 OFFCURVE",
"392 1460 CURVE"
);
},
{
closed = 1;
nodes = (
"198 1004 LINE SMOOTH",
"284 982 OFFCURVE",
"390 988 OFFCURVE",
"486 988 CURVE",
"504 994 OFFCURVE",
"516 1008 OFFCURVE",
"522 1026 CURVE SMOOTH",
"528 1044 OFFCURVE",
"526 1062 OFFCURVE",
"516 1078 CURVE",
"438 1134 OFFCURVE",
"356 1204 OFFCURVE",
"272 1236 CURVE SMOOTH",
"150 1284 LINE",
"108 1234 OFFCURVE",
"64 1100 OFFCURVE",
"70 1036 CURVE"
);
},
{
closed = 1;
nodes = (
"442 712 LINE SMOOTH",
"490 788 OFFCURVE",
"518 888 OFFCURVE",
"548 980 CURVE",
"546 998 OFFCURVE",
"538 1014 OFFCURVE",
"522 1026 CURVE SMOOTH",
"506 1038 OFFCURVE",
"488 1040 OFFCURVE",
"470 1036 CURVE",
"394 980 OFFCURVE",
"302 924 OFFCURVE",
"246 854 CURVE SMOOTH",
"162 752 LINE",
"196 696 OFFCURVE",
"310 614 OFFCURVE",
"372 600 CURVE"
);
},
{
closed = 1;
nodes = (
"796 852 LINE SMOOTH",
"738 922 OFFCURVE",
"652 980 OFFCURVE",
"574 1036 CURVE",
"556 1040 OFFCURVE",
"538 1038 OFFCURVE",
"522 1026 CURVE SMOOTH",
"506 1014 OFFCURVE",
"498 998 OFFCURVE",
"496 980 CURVE",
"526 890 OFFCURVE",
"552 786 OFFCURVE",
"600 710 CURVE SMOOTH",
"672 598 LINE",
"736 614 OFFCURVE",
"848 698 OFFCURVE",
"880 752 CURVE"
);
},
{
closed = 1;
nodes = (
"772 1232 LINE SMOOTH",
"688 1198 OFFCURVE",
"606 1136 OFFCURVE",
"528 1078 CURVE",
"520 1062 OFFCURVE",
"516 1044 OFFCURVE",
"522 1026 CURVE SMOOTH",
"528 1008 OFFCURVE",
"542 994 OFFCURVE",
"558 988 CURVE",
"652 988 OFFCURVE",
"760 980 OFFCURVE",
"846 1002 CURVE SMOOTH",
"976 1036 LINE",
"980 1102 OFFCURVE",
"934 1234 OFFCURVE",
"894 1282 CURVE"
);
}
);
width = 1046;
}
);
unicode = 002A;
},
{
glyphname = comma;
lastChange = "2018-11-23 02:18:52 +0000";
layers = (
{
layerId = UUID0;
paths = (
{
closed = 1;
nodes = (
"342 190 OFFCURVE",
"292 198 OFFCURVE",
"260 198 CURVE SMOOTH",
"226 198 OFFCURVE",
"174 186 OFFCURVE",
"158 178 CURVE",
"148 164 OFFCURVE",
"142 120 OFFCURVE",
"142 90 CURVE SMOOTH",
"142 60 OFFCURVE",
"150 22 OFFCURVE",
"158 8 CURVE",
"174 -4 OFFCURVE",
"212 -14 OFFCURVE",
"234 -18 CURVE",
"234 -102 OFFCURVE",
"172 -176 OFFCURVE",
"82 -220 CURVE",
"80 -248 OFFCURVE",
"96 -284 OFFCURVE",
"122 -298 CURVE",
"294 -234 OFFCURVE",
"378 -92 OFFCURVE",
"378 62 CURVE SMOOTH",
"378 104 OFFCURVE",
"370 154 OFFCURVE",
"358 178 CURVE"
);
}
);
width = 504;
},
{
layerId = UUID1;
paths = (
{
closed = 1;
nodes = (
"422 284 OFFCURVE",
"354 300 OFFCURVE",
"300 300 CURVE SMOOTH",
"246 300 OFFCURVE",
"180 284 OFFCURVE",
"142 262 CURVE",
"128 236 OFFCURVE",
"118 176 OFFCURVE",
"118 136 CURVE SMOOTH",
"118 96 OFFCURVE",
"128 42 OFFCURVE",
"142 16 CURVE",
"162 0 OFFCURVE",
"196 -10 OFFCURVE",
"230 -16 CURVE",
"214 -110 OFFCURVE",
"134 -184 OFFCURVE",
"40 -216 CURVE",
"34 -274 OFFCURVE",
"62 -338 OFFCURVE",
"118 -366 CURVE",
"360 -292 OFFCURVE",
"484 -92 OFFCURVE",
"484 100 CURVE SMOOTH",
"484 158 OFFCURVE",
"478 206 OFFCURVE",
"458 262 CURVE"
);
}
);
width = 598;
}
);
leftKerningGroup = comma;
rightKerningGroup = comma;
unicode = 002C;
},
{
color = (0,243,255,1);
glyphname = hyphen;
lastChange = "2018-11-23 02:18:52 +0000";
layers = (
{
layerId = UUID0;
paths = (
{
closed = 1;
nodes = (
"560 464 LINE",
"564 482 OFFCURVE",
"566 502 OFFCURVE",
"566 528 CURVE SMOOTH",
"566 556 OFFCURVE",
"564 576 OFFCURVE",
"560 596 CURVE",
"106 596 LINE",
"102 576 OFFCURVE",
"100 556 OFFCURVE",
"100 528 CURVE SMOOTH",
"100 502 OFFCURVE",
"102 482 OFFCURVE",
"106 464 CURVE"
);
}
);
width = 666;
},
{
layerId = UUID1;
paths = (
{
closed = 1;
nodes = (
"666 410 LINE",
"678 454 OFFCURVE",
"680 512 OFFCURVE",
"680 540 CURVE SMOOTH",
"680 568 OFFCURVE",
"678 626 OFFCURVE",
"666 670 CURVE",
"94 670 LINE",
"82 626 OFFCURVE",
"80 568 OFFCURVE",
"80 540 CURVE SMOOTH",
"80 512 OFFCURVE",
"82 454 OFFCURVE",
"94 410 CURVE"
);
}
);
width = 760;
}
);
leftKerningGroup = equal;
rightKerningGroup = equal;
unicode = 002D;
},
{
glyphname = period;
lastChange = "2018-11-23 02:18:52 +0000";
layers = (
{
layerId = UUID0;
paths = (
{
closed = 1;
nodes = (
"132 68 OFFCURVE",
"138 22 OFFCURVE",
"148 6 CURVE",
"166 -4 OFFCURVE",
"212 -14 OFFCURVE",
"248 -14 CURVE SMOOTH",
"280 -14 OFFCURVE",
"334 -4 OFFCURVE",
"348 6 CURVE",
"358 22 OFFCURVE",
"364 68 OFFCURVE",
"364 92 CURVE SMOOTH",
"364 116 OFFCURVE",
"358 162 OFFCURVE",
"348 178 CURVE",
"332 188 OFFCURVE",
"280 198 OFFCURVE",
"248 198 CURVE SMOOTH",
"212 198 OFFCURVE",
"166 188 OFFCURVE",
"148 178 CURVE",
"138 162 OFFCURVE",
"132 116 OFFCURVE",
"132 92 CURVE SMOOTH"
);
}
);
width = 496;
},
{
layerId = UUID1;
paths = (
{
closed = 1;
nodes = (
"104 116 OFFCURVE",
"110 54 OFFCURVE",
"128 16 CURVE",
"170 -10 OFFCURVE",
"236 -22 OFFCURVE",
"290 -22 CURVE SMOOTH",
"344 -22 OFFCURVE",
"410 -10 OFFCURVE",
"452 16 CURVE",
"470 54 OFFCURVE",
"476 116 OFFCURVE",
"476 140 CURVE SMOOTH",
"476 164 OFFCURVE",
"470 226 OFFCURVE",
"452 264 CURVE",
"410 288 OFFCURVE",
"344 302 OFFCURVE",
"290 302 CURVE SMOOTH",
"236 302 OFFCURVE",
"170 288 OFFCURVE",
"128 264 CURVE",
"110 226 OFFCURVE",
"104 164 OFFCURVE",
"104 140 CURVE SMOOTH"
);
}
);
width = 580;
}
);
leftKerningGroup = comma;
rightKerningGroup = comma;
unicode = 002E;
},
{
glyphname = question;
lastChange = "2018-11-23 02:18:52 +0000";
layers = (
{
layerId = UUID0;
paths = (
{
closed = 1;
nodes = (
"38 1254 OFFCURVE",
"64 1206 OFFCURVE",
"86 1184 CURVE",
"172 1226 OFFCURVE",
"270 1260 OFFCURVE",
"366 1260 CURVE SMOOTH",
"502 1260 OFFCURVE",
"588 1176 OFFCURVE",
"588 1050 CURVE SMOOTH",
"588 916 OFFCURVE",
"484 820 OFFCURVE",
"322 734 CURVE SMOOTH",
"232 686 LINE",
"220 668 LINE",
"228 370 LINE",
"244 364 OFFCURVE",
"266 362 OFFCURVE",
"286 362 CURVE SMOOTH",
"304 362 OFFCURVE",
"322 364 OFFCURVE",
"338 370 CURVE",
"352 606 LINE",
"480 680 LINE SMOOTH",
"624 764 OFFCURVE",
"740 886 OFFCURVE",
"740 1062 CURVE SMOOTH",
"740 1264 OFFCURVE",
"596 1388 OFFCURVE",
"396 1388 CURVE SMOOTH",
"268 1388 OFFCURVE",
"140 1350 OFFCURVE",
"34 1296 CURVE"
);
},
{
closed = 1;
nodes = (
"250 182 OFFCURVE",
"214 174 OFFCURVE",
"194 162 CURVE",
"186 148 OFFCURVE",
"180 106 OFFCURVE",
"180 84 CURVE SMOOTH",
"180 62 OFFCURVE",
"186 20 OFFCURVE",
"194 6 CURVE",
"214 -6 OFFCURVE",
"250 -14 OFFCURVE",
"284 -14 CURVE SMOOTH",
"316 -14 OFFCURVE",
"356 -6 OFFCURVE",
"376 6 CURVE",
"384 20 OFFCURVE",
"390 62 OFFCURVE",
"390 84 CURVE SMOOTH",
"390 106 OFFCURVE",
"384 148 OFFCURVE",
"376 162 CURVE",
"356 174 OFFCURVE",
"316 182 OFFCURVE",
"284 182 CURVE SMOOTH"
);
}
);
width = 760;
},
{
layerId = UUID1;
paths = (
{
closed = 1;
nodes = (
"4 1198 OFFCURVE",
"56 1094 OFFCURVE",
"118 1048 CURVE",
"186 1086 OFFCURVE",
"262 1118 OFFCURVE",
"342 1118 CURVE SMOOTH",
"444 1118 OFFCURVE",
"494 1068 OFFCURVE",
"494 994 CURVE SMOOTH",
"494 908 OFFCURVE",
"412 852 OFFCURVE",
"308 804 CURVE SMOOTH",
"196 754 LINE",
"170 722 LINE",
"188 424 LINE",
"228 412 OFFCURVE",
"276 408 OFFCURVE",
"314 408 CURVE SMOOTH",
"354 408 OFFCURVE",
"396 412 OFFCURVE",
"434 424 CURVE",
"454 570 LINE",
"574 632 LINE SMOOTH",
"724 710 OFFCURVE",
"836 828 OFFCURVE",
"836 1030 CURVE SMOOTH",
"836 1242 OFFCURVE",
"694 1398 OFFCURVE",
"416 1398 CURVE SMOOTH",
"256 1398 OFFCURVE",
"112 1348 OFFCURVE",
"0 1280 CURVE"
);
},
{
closed = 1;
nodes = (
"258 280 OFFCURVE",
"200 268 OFFCURVE",
"160 246 CURVE",
"146 220 OFFCURVE",
"138 162 OFFCURVE",
"138 124 CURVE SMOOTH",
"138 86 OFFCURVE",
"146 30 OFFCURVE",
"160 4 CURVE",
"200 -18 OFFCURVE",
"258 -30 OFFCURVE",
"314 -30 CURVE SMOOTH",
"370 -30 OFFCURVE",
"428 -18 OFFCURVE",
"466 4 CURVE",
"482 30 OFFCURVE",
"490 86 OFFCURVE",
"490 124 CURVE SMOOTH",
"490 162 OFFCURVE",
"482 220 OFFCURVE",
"466 246 CURVE",
"428 268 OFFCURVE",
"370 280 OFFCURVE",
"314 280 CURVE SMOOTH"
);
}
);
width = 848;
}
);
unicode = 003F;
},
{
glyphname = exclam;
lastChange = "2018-11-23 02:18:52 +0000";
layers = (
{
layerId = UUID0;
paths = (
{
closed = 1;
nodes = (
"234 364 OFFCURVE",
"254 362 OFFCURVE",
"274 362 CURVE SMOOTH",
"294 362 OFFCURVE",
"314 364 OFFCURVE",
"330 370 CURVE",
"342 640 OFFCURVE",
"354 910 OFFCURVE",
"354 1180 CURVE SMOOTH",
"354 1364 LINE",
"314 1376 OFFCURVE",
"234 1376 OFFCURVE",
"194 1366 CURVE",
"194 1180 LINE SMOOTH",
"194 910 OFFCURVE",
"208 642 OFFCURVE",
"218 370 CURVE"
);
},
{
closed = 1;
nodes = (
"240 182 OFFCURVE",
"204 174 OFFCURVE",
"184 162 CURVE",
"176 148 OFFCURVE",
"170 106 OFFCURVE",
"170 84 CURVE SMOOTH",
"170 62 OFFCURVE",
"176 20 OFFCURVE",
"184 6 CURVE",
"204 -6 OFFCURVE",
"240 -14 OFFCURVE",
"274 -14 CURVE SMOOTH",
"306 -14 OFFCURVE",
"344 -6 OFFCURVE",
"364 6 CURVE",
"372 20 OFFCURVE",
"378 62 OFFCURVE",
"378 84 CURVE SMOOTH",
"378 106 OFFCURVE",
"372 148 OFFCURVE",
"364 162 CURVE",
"344 174 OFFCURVE",
"306 182 OFFCURVE",
"274 182 CURVE SMOOTH"
);
}
);
width = 550;
},
{
layerId = UUID1;
paths = (
{
closed = 1;
nodes = (
"220 410 OFFCURVE",
"274 408 OFFCURVE",
"302 408 CURVE SMOOTH",
"334 408 OFFCURVE",
"380 410 OFFCURVE",
"424 422 CURVE",
"444 678 OFFCURVE",
"484 932 OFFCURVE",
"484 1188 CURVE SMOOTH",
"484 1364 LINE",
"394 1390 OFFCURVE",
"210 1390 OFFCURVE",
"120 1364 CURVE",
"120 1192 LINE SMOOTH",
"120 932 OFFCURVE",
"154 678 OFFCURVE",
"178 422 CURVE"
);
},
{
closed = 1;
nodes = (
"246 286 OFFCURVE",
"188 274 OFFCURVE",
"148 252 CURVE",
"134 226 OFFCURVE",
"126 168 OFFCURVE",
"126 130 CURVE SMOOTH",
"126 92 OFFCURVE",
"134 36 OFFCURVE",
"148 10 CURVE",
"188 -12 OFFCURVE",
"246 -24 OFFCURVE",
"302 -24 CURVE SMOOTH",
"358 -24 OFFCURVE",
"416 -12 OFFCURVE",
"454 10 CURVE",
"470 36 OFFCURVE",
"478 92 OFFCURVE",
"478 130 CURVE SMOOTH",
"478 168 OFFCURVE",
"470 226 OFFCURVE",
"454 252 CURVE",
"416 274 OFFCURVE",
"358 286 OFFCURVE",
"302 286 CURVE SMOOTH"
);
}
);
width = 622;
}
);
unicode = 0021;
},
{
glyphname = at;
lastChange = "2018-11-23 02:18:52 +0000";
layers = (
{
layerId = UUID0;
paths = (
{
closed = 1;
nodes = (
"1284 826 LINE",
"1202 900 OFFCURVE",
"1088 956 OFFCURVE",
"956 956 CURVE SMOOTH",
"702 956 OFFCURVE",
"562 720 OFFCURVE",
"562 452 CURVE SMOOTH",
"562 184 OFFCURVE",
"686 20 OFFCURVE",
"876 20 CURVE SMOOTH",
"1028 20 OFFCURVE",
"1174 140 OFFCURVE",
"1222 258 CURVE",
"1222 258 OFFCURVE",
"1194 308 OFFCURVE",
"1166 338 CURVE",
"1128 240 OFFCURVE",
"1002 138 OFFCURVE",
"902 138 CURVE SMOOTH",
"762 138 OFFCURVE",
"702 276 OFFCURVE",
"702 452 CURVE SMOOTH",
"702 668 OFFCURVE",
"794 848 OFFCURVE",
"956 848 CURVE SMOOTH",
"1036 848 OFFCURVE",
"1110 810 OFFCURVE",
"1146 772 CURVE",
"1146 264 LINE SMOOTH",
"1146 122 OFFCURVE",
"1228 30 OFFCURVE",
"1376 30 CURVE SMOOTH",
"1576 30 OFFCURVE",
"1762 228 OFFCURVE",
"1762 572 CURVE SMOOTH",
"1762 1032 OFFCURVE",
"1440 1344 OFFCURVE",
"962 1344 CURVE SMOOTH",
"462 1344 OFFCURVE",
"116 958 OFFCURVE",
"116 456 CURVE SMOOTH",
"116 -64 OFFCURVE",
"436 -358 OFFCURVE",
"874 -358 CURVE SMOOTH",
"1034 -358 OFFCURVE",
"1186 -330 OFFCURVE",
"1336 -276 CURVE",
"1336 -238 OFFCURVE",
"1316 -192 OFFCURVE",
"1294 -174 CURVE",
"1174 -224 OFFCURVE",
"1034 -246 OFFCURVE",
"880 -246 CURVE SMOOTH",
"514 -246 OFFCURVE",
"256 8 OFFCURVE",
"256 456 CURVE SMOOTH",
"256 896 OFFCURVE",
"534 1238 OFFCURVE",
"962 1238 CURVE SMOOTH",
"1364 1238 OFFCURVE",
"1624 970 OFFCURVE",
"1624 578 CURVE SMOOTH",
"1624 256 OFFCURVE",
"1498 142 OFFCURVE",
"1386 142 CURVE SMOOTH",
"1316 142 OFFCURVE",
"1282 186 OFFCURVE",
"1282 306 CURVE SMOOTH"
);
}
);
width = 1858;
},
{
layerId = UUID1;
paths = (
{
closed = 1;
nodes = (
"1402 822 LINE",
"1326 900 OFFCURVE",
"1168 974 OFFCURVE",
"1010 974 CURVE SMOOTH",
"730 974 OFFCURVE",
"576 764 OFFCURVE",
"576 454 CURVE SMOOTH",
"576 184 OFFCURVE",
"686 -8 OFFCURVE",
"904 -8 CURVE SMOOTH",
"1070 -8 OFFCURVE",
"1228 140 OFFCURVE",
"1280 254 CURVE",
"1254 312 OFFCURVE",
"1206 358 OFFCURVE",
"1168 396 CURVE",
"1132 312 OFFCURVE",
"1052 234 OFFCURVE",
"980 234 CURVE SMOOTH",
"908 234 OFFCURVE",
"888 304 OFFCURVE",
"888 470 CURVE SMOOTH",
"888 622 OFFCURVE",
"906 748 OFFCURVE",
"1010 748 CURVE SMOOTH",
"1046 748 OFFCURVE",
"1070 740 OFFCURVE",
"1098 718 CURVE",
"1098 324 LINE SMOOTH",
"1098 146 OFFCURVE",
"1246 -2 OFFCURVE",
"1458 -2 CURVE SMOOTH",
"1674 -2 OFFCURVE",
"1908 172 OFFCURVE",
"1908 594 CURVE SMOOTH",
"1908 1096 OFFCURVE",
"1520 1374 OFFCURVE",
"1016 1374 CURVE SMOOTH",
"474 1374 OFFCURVE",
"74 990 OFFCURVE",
"74 442 CURVE SMOOTH",
"74 -150 OFFCURVE",
"428 -410 OFFCURVE",
"926 -410 CURVE SMOOTH",
"1090 -410 OFFCURVE",
"1298 -364 OFFCURVE",
"1422 -308 CURVE",
"1422 -238 OFFCURVE",
"1396 -146 OFFCURVE",
"1342 -86 CURVE",
"1216 -134 OFFCURVE",
"1084 -162 OFFCURVE",
"952 -162 CURVE SMOOTH",
"610 -162 OFFCURVE",
"400 28 OFFCURVE",
"400 442 CURVE SMOOTH",
"400 850 OFFCURVE",
"644 1134 OFFCURVE",
"1016 1134 CURVE SMOOTH",
"1360 1134 OFFCURVE",
"1586 936 OFFCURVE",
"1586 602 CURVE SMOOTH",
"1586 322 OFFCURVE",
"1530 234 OFFCURVE",
"1458 234 CURVE SMOOTH",
"1416 234 OFFCURVE",
"1400 262 OFFCURVE",
"1400 330 CURVE SMOOTH"
);
}
);
width = 1968;
}
);
unicode = 0040;
},
{
glyphname = parenleft;
lastChange = "2018-11-23 02:18:52 +0000";
layers = (
{
layerId = UUID0;
paths = (
{
closed = 1;
nodes = (
"286 976 OFFCURVE",
"374 1302 OFFCURVE",
"582 1560 CURVE",
"562 1606 OFFCURVE",
"530 1630 OFFCURVE",
"494 1640 CURVE",
"262 1408 OFFCURVE",
"130 1000 OFFCURVE",
"130 652 CURVE SMOOTH",
"130 304 OFFCURVE",
"262 -104 OFFCURVE",
"494 -336 CURVE",
"530 -326 OFFCURVE",
"562 -302 OFFCURVE",
"582 -256 CURVE",
"374 2 OFFCURVE",
"286 328 OFFCURVE",
"286 652 CURVE"
);
}
);
width = 608;
},
{
layerId = UUID1;
paths = (
{
closed = 1;
nodes = (
"456 930 OFFCURVE",
"542 1264 OFFCURVE",
"722 1520 CURVE",
"682 1606 OFFCURVE",
"608 1664 OFFCURVE",
"534 1690 CURVE",
"254 1426 OFFCURVE",
"116 1000 OFFCURVE",
"116 644 CURVE SMOOTH",
"116 288 OFFCURVE",
"254 -138 OFFCURVE",
"534 -402 CURVE",
"608 -376 OFFCURVE",
"682 -318 OFFCURVE",
"722 -232 CURVE",
"542 24 OFFCURVE",
"456 358 OFFCURVE",
"456 644 CURVE"
);
}
);
width = 762;
}
);
unicode = 0028;
},
{
glyphname = parenright;
lastChange = "2018-11-23 02:18:52 +0000";
layers = (
{
layerId = UUID0;
paths = (
{
closed = 1;
nodes = (
"322 976 OFFCURVE",
"234 1302 OFFCURVE",
"26 1560 CURVE",
"46 1606 OFFCURVE",
"78 1630 OFFCURVE",
"114 1640 CURVE",
"346 1408 OFFCURVE",
"478 1000 OFFCURVE",
"478 652 CURVE SMOOTH",
"478 304 OFFCURVE",
"346 -104 OFFCURVE",
"114 -336 CURVE",
"78 -326 OFFCURVE",
"46 -302 OFFCURVE",
"26 -256 CURVE",
"234 2 OFFCURVE",
"322 328 OFFCURVE",
"322 652 CURVE"
);
}
);
width = 608;
},
{
layerId = UUID1;
paths = (
{
closed = 1;
nodes = (
"306 930 OFFCURVE",
"220 1264 OFFCURVE",
"40 1520 CURVE",
"80 1606 OFFCURVE",
"154 1664 OFFCURVE",
"228 1690 CURVE",
"508 1426 OFFCURVE",
"646 1000 OFFCURVE",
"646 644 CURVE SMOOTH",
"646 288 OFFCURVE",
"508 -138 OFFCURVE",
"228 -402 CURVE",
"154 -376 OFFCURVE",
"80 -318 OFFCURVE",
"40 -232 CURVE",
"220 24 OFFCURVE",
"306 358 OFFCURVE",
"306 644 CURVE"
);
}
);
width = 762;
}
);
unicode = 0029;
},
{
glyphname = bracketleft;
lastChange = "2018-11-23 02:18:52 +0000";
layers = (
{
layerId = UUID0;
paths = (
{
closed = 1;
nodes = (
"200 -268 LINE",
"344 -220 LINE",
"344 1550 LINE",
"200 1602 LINE"
);
},
{
closed = 1;
nodes = (
"558 -266 LINE",
"562 -250 OFFCURVE",
"562 -236 OFFCURVE",
"562 -222 CURVE SMOOTH",
"562 -202 OFFCURVE",
"556 -176 OFFCURVE",
"550 -158 CURVE",
"212 -150 LINE",
"200 -268 LINE",
"212 -280 LINE"
);
},
{
closed = 1;
nodes = (
"212 1614 LINE",
"200 1602 LINE",
"212 1484 LINE",
"550 1492 LINE",
"556 1510 OFFCURVE",
"562 1536 OFFCURVE",
"562 1556 CURVE SMOOTH",
"562 1570 OFFCURVE",
"562 1584 OFFCURVE",
"558 1600 CURVE"
);
}
);
width = 622;
},
{
layerId = UUID1;
paths = (
{
closed = 1;
nodes = (
"196 -316 LINE",
"514 -236 LINE",
"514 1534 LINE",
"196 1644 LINE"
);
},
{
closed = 1;
nodes = (
"726 -314 LINE",
"734 -294 OFFCURVE",
"738 -248 OFFCURVE",
"738 -224 CURVE SMOOTH",
"738 -172 OFFCURVE",
"724 -116 OFFCURVE",
"714 -92 CURVE",
"222 -78 LINE",
"196 -316 LINE",
"214 -332 LINE"
);
},
{
closed = 1;
nodes = (
"214 1660 LINE",
"196 1644 LINE",
"222 1406 LINE",
"714 1420 LINE",
"724 1444 OFFCURVE",
"738 1500 OFFCURVE",
"738 1552 CURVE SMOOTH",
"738 1576 OFFCURVE",
"734 1622 OFFCURVE",
"726 1642 CURVE"
);
}
);
width = 804;
}
);
unicode = 005B;
},
{
glyphname = bracketright;
lastChange = "2018-11-23 02:18:52 +0000";
layers = (
{
layerId = UUID0;
paths = (
{
closed = 1;
nodes = (
"422 -268 LINE",
"278 -220 LINE",
"278 1550 LINE",
"422 1602 LINE"
);
},
{
closed = 1;
nodes = (
"64 -266 LINE",
"60 -250 OFFCURVE",
"60 -236 OFFCURVE",
"60 -222 CURVE SMOOTH",
"60 -202 OFFCURVE",
"66 -176 OFFCURVE",
"72 -158 CURVE",
"410 -150 LINE",
"422 -268 LINE",
"410 -280 LINE"
);
},
{
closed = 1;
nodes = (
"410 1614 LINE",
"422 1602 LINE",
"410 1484 LINE",
"72 1492 LINE",
"66 1510 OFFCURVE",
"60 1536 OFFCURVE",
"60 1556 CURVE SMOOTH",
"60 1570 OFFCURVE",
"60 1584 OFFCURVE",
"64 1600 CURVE"
);
}
);
width = 622;
},
{
layerId = UUID1;
paths = (
{
closed = 1;
nodes = (
"608 -316 LINE",
"290 -236 LINE",
"290 1534 LINE",
"608 1644 LINE"
);
},
{
closed = 1;
nodes = (
"78 -314 LINE",
"70 -294 OFFCURVE",
"66 -248 OFFCURVE",
"66 -224 CURVE SMOOTH",
"66 -172 OFFCURVE",
"80 -116 OFFCURVE",
"90 -92 CURVE",
"582 -78 LINE",
"608 -316 LINE",
"590 -332 LINE"
);
},
{
closed = 1;
nodes = (
"590 1660 LINE",
"608 1644 LINE",
"582 1406 LINE",
"90 1420 LINE",
"80 1444 OFFCURVE",
"66 1500 OFFCURVE",
"66 1552 CURVE SMOOTH",
"66 1576 OFFCURVE",
"70 1622 OFFCURVE",
"78 1642 CURVE"
);
}
);
width = 804;
}
);
unicode = 005D;
},
{
glyphname = braceleft;
lastChange = "2018-11-23 02:18:52 +0000";
layers = (
{
layerId = UUID0;
paths = (
{
closed = 1;
nodes = (
"72 674 OFFCURVE",
"72 622 OFFCURVE",
"82 600 CURVE",
"170 564 OFFCURVE",
"242 480 OFFCURVE",
"242 354 CURVE SMOOTH",
"242 0 LINE SMOOTH",
"242 -180 OFFCURVE",
"352 -282 OFFCURVE",
"502 -308 CURVE SMOOTH",
"584 -322 LINE",
"604 -300 OFFCURVE",
"616 -254 OFFCURVE",
"608 -218 CURVE",
"522 -192 LINE SMOOTH",
"430 -164 OFFCURVE",
"386 -98 OFFCURVE",
"386 2 CURVE SMOOTH",
"386 350 LINE SMOOTH",
"386 470 OFFCURVE",
"324 592 OFFCURVE",
"226 640 CURVE",
"226 656 LINE",
"324 704 OFFCURVE",
"386 826 OFFCURVE",
"386 946 CURVE",
"386 1292 LINE",
"386 1392 OFFCURVE",
"430 1458 OFFCURVE",
"522 1486 CURVE SMOOTH",
"608 1512 LINE",
"616 1548 OFFCURVE",
"604 1594 OFFCURVE",
"584 1616 CURVE",
"502 1602 LINE SMOOTH",
"352 1576 OFFCURVE",
"242 1474 OFFCURVE",
"242 1294 CURVE",
"242 942 LINE",
"242 814 OFFCURVE",
"170 732 OFFCURVE",
"82 696 CURVE"
);
}
);
width = 626;
},
{
layerId = UUID1;
paths = (
{
closed = 1;
nodes = (
"70 708 OFFCURVE",
"70 604 OFFCURVE",
"90 552 CURVE",
"190 536 OFFCURVE",
"260 438 OFFCURVE",
"260 336 CURVE SMOOTH",
"260 18 LINE SMOOTH",
"260 -194 OFFCURVE",
"398 -312 OFFCURVE",
"588 -342 CURVE SMOOTH",
"726 -364 LINE",
"770 -316 OFFCURVE",
"800 -202 OFFCURVE",
"788 -154 CURVE",
"664 -112 LINE SMOOTH",
"628 -100 OFFCURVE",
"588 -54 OFFCURVE",
"588 20 CURVE SMOOTH",
"588 332 LINE SMOOTH",
"588 470 OFFCURVE",
"518 602 OFFCURVE",
"410 648 CURVE",
"410 664 LINE",
"518 710 OFFCURVE",
"588 842 OFFCURVE",
"588 980 CURVE",
"588 1292 LINE",
"588 1366 OFFCURVE",
"628 1412 OFFCURVE",
"664 1424 CURVE SMOOTH",
"788 1466 LINE",
"800 1514 OFFCURVE",
"770 1628 OFFCURVE",
"726 1676 CURVE",
"588 1654 LINE SMOOTH",
"398 1624 OFFCURVE",
"260 1506 OFFCURVE",
"260 1294 CURVE",
"260 976 LINE",
"260 874 OFFCURVE",
"190 776 OFFCURVE",
"90 760 CURVE"
);
}
);
width = 812;
}
);
unicode = 007B;
},
{
glyphname = braceright;
lastChange = "2018-11-23 02:18:52 +0000";
layers = (
{
layerId = UUID0;
paths = (
{
closed = 1;
nodes = (
"554 674 OFFCURVE",
"554 622 OFFCURVE",
"544 600 CURVE",
"456 564 OFFCURVE",
"384 480 OFFCURVE",
"384 354 CURVE SMOOTH",
"384 0 LINE SMOOTH",
"384 -180 OFFCURVE",
"274 -282 OFFCURVE",
"124 -308 CURVE SMOOTH",
"42 -322 LINE",
"22 -300 OFFCURVE",
"10 -254 OFFCURVE",
"18 -218 CURVE",
"104 -192 LINE SMOOTH",
"196 -164 OFFCURVE",
"240 -98 OFFCURVE",
"240 2 CURVE SMOOTH",
"240 350 LINE SMOOTH",
"240 470 OFFCURVE",
"302 592 OFFCURVE",
"400 640 CURVE",
"400 656 LINE",
"302 704 OFFCURVE",
"240 826 OFFCURVE",
"240 946 CURVE",
"240 1292 LINE",
"240 1392 OFFCURVE",
"196 1458 OFFCURVE",
"104 1486 CURVE SMOOTH",
"18 1512 LINE",
"10 1548 OFFCURVE",
"22 1594 OFFCURVE",
"42 1616 CURVE",
"124 1602 LINE SMOOTH",
"274 1576 OFFCURVE",
"384 1474 OFFCURVE",
"384 1294 CURVE",
"384 942 LINE",
"384 814 OFFCURVE",
"456 732 OFFCURVE",
"544 696 CURVE"
);
}
);
width = 626;
},
{
layerId = UUID1;
paths = (
{
closed = 1;
nodes = (
"742 708 OFFCURVE",
"742 604 OFFCURVE",
"722 552 CURVE",
"622 536 OFFCURVE",
"552 438 OFFCURVE",
"552 336 CURVE SMOOTH",
"552 18 LINE SMOOTH",
"552 -194 OFFCURVE",
"414 -312 OFFCURVE",
"224 -342 CURVE SMOOTH",
"86 -364 LINE",
"42 -316 OFFCURVE",
"12 -202 OFFCURVE",
"24 -154 CURVE",
"148 -112 LINE SMOOTH",
"184 -100 OFFCURVE",
"224 -54 OFFCURVE",
"224 20 CURVE SMOOTH",
"224 332 LINE SMOOTH",
"224 470 OFFCURVE",
"294 602 OFFCURVE",
"402 648 CURVE",
"402 664 LINE",
"294 710 OFFCURVE",
"224 842 OFFCURVE",
"224 980 CURVE",
"224 1292 LINE",
"224 1366 OFFCURVE",
"184 1412 OFFCURVE",
"148 1424 CURVE SMOOTH",
"24 1466 LINE",
"12 1514 OFFCURVE",
"42 1628 OFFCURVE",
"86 1676 CURVE",
"224 1654 LINE SMOOTH",
"414 1624 OFFCURVE",
"552 1506 OFFCURVE",
"552 1294 CURVE",
"552 976 LINE",
"552 874 OFFCURVE",
"622 776 OFFCURVE",
"722 760 CURVE"
);
}
);
width = 812;
}
);
unicode = 007D;
},
{
glyphname = backslash;
lastChange = "2018-11-23 02:18:52 +0000";
layers = (
{
layerId = UUID0;
paths = (
{
closed = 1;
nodes = (
"28 1468 LINE",
"64 1496 OFFCURVE",
"112 1514 OFFCURVE",
"152 1514 CURVE",
"786 -164 LINE",
"752 -190 OFFCURVE",
"700 -208 OFFCURVE",
"662 -210 CURVE"
);
}
);
width = 808;
},
{
layerId = UUID1;
paths = (
{
closed = 1;
nodes = (
"4 1432 LINE",
"84 1494 OFFCURVE",
"186 1526 OFFCURVE",
"282 1538 CURVE",
"910 -136 LINE",
"830 -198 OFFCURVE",
"728 -230 OFFCURVE",
"632 -242 CURVE"
);
}
);
width = 910;
}
);
unicode = 005C;
},
{
glyphname = slash;
lastChange = "2018-11-23 02:18:52 +0000";
layers = (
{
layerId = UUID0;
paths = (
{
closed = 1;
nodes = (
"22 -164 LINE",
"58 -192 OFFCURVE",
"106 -210 OFFCURVE",
"146 -210 CURVE",
"780 1468 LINE",
"746 1494 OFFCURVE",
"694 1512 OFFCURVE",
"656 1514 CURVE"
);
}
);
width = 808;
},
{
layerId = UUID1;
paths = (
{
closed = 1;
nodes = (
"0 -136 LINE",
"80 -198 OFFCURVE",
"182 -230 OFFCURVE",
"278 -242 CURVE",
"906 1432 LINE",
"826 1494 OFFCURVE",
"724 1526 OFFCURVE",
"628 1538 CURVE"
);
}
);
width = 910;
}
);
unicode = 002F;
},
